%FSLAX43Y43*%
%MOMM*%
G71*
G01*
G75*
G04 Layer_Physical_Order=1*
%ADD10C,0.300*%
%ADD11C,0.075*%
%ADD12R,1.800X1.600*%
%ADD13R,0.300X1.650*%
%ADD14R,0.300X1.650*%
%ADD15R,1.600X1.800*%
%ADD16R,2.700X2.500*%
%ADD17O,1.500X0.400*%
%ADD18R,1.500X0.400*%
%ADD19R,0.300X1.500*%
%ADD20R,3.000X4.000*%
%ADD21C,0.254*%
%ADD22C,1.300*%
%ADD23C,1.500*%
%ADD24R,1.500X1.500*%
%ADD25C,3.000*%
%ADD26C,1.000*%
D10*
X59261Y59613D02*
G03*
X58908Y59760I-354J-354D01*
G01*
X59261Y59613D02*
G03*
X58908Y59760I-354J-354D01*
G01*
X58110D02*
G03*
X57756Y59613I0J-500D01*
G01*
X58110Y59760D02*
G03*
X57756Y59613I0J-500D01*
G01*
X57182Y59039D02*
G03*
X57234Y57370I-132J-840D01*
G01*
X55350Y63400D02*
G03*
X55339Y63536I-850J0D01*
G01*
X54629Y64240D02*
G03*
X55350Y63400I-129J-840D01*
G01*
X50916Y67597D02*
G03*
X51700Y66750I-65J-847D01*
G01*
G03*
X51677Y66945I-850J0D01*
G01*
X54336Y55346D02*
G03*
X54350Y55500I-836J154D01*
G01*
G03*
X53611Y54657I-850J0D01*
G01*
X50340Y51564D02*
G03*
X50350Y51697I-840J132D01*
G01*
G03*
X49632Y50857I-850J0D01*
G01*
X45750Y51713D02*
G03*
X46100Y52400I-500J687D01*
G01*
X46150Y48400D02*
G03*
X46004Y48753I-500J0D01*
G01*
X46150Y48400D02*
G03*
X46004Y48753I-500J0D01*
G01*
X46005Y47131D02*
G03*
X46150Y47483I-355J352D01*
G01*
X46005Y47131D02*
G03*
X46150Y47483I-355J352D01*
G01*
X42575Y66600D02*
G03*
X41544Y67431I-850J0D01*
G01*
X40879Y66682D02*
G03*
X42575Y66600I846J-82D01*
G01*
X37875Y62400D02*
G03*
X36199Y62600I-850J0D01*
G01*
X36738Y61600D02*
G03*
X37875Y62400I287J800D01*
G01*
X35208Y61746D02*
G03*
X35561Y61600I354J354D01*
G01*
X35208Y61746D02*
G03*
X35561Y61600I354J354D01*
G01*
X33753Y60329D02*
G03*
X33578Y60442I-354J-354D01*
G01*
X33753Y60329D02*
G03*
X33578Y60442I-354J-354D01*
G01*
X34500Y59375D02*
G03*
X34353Y59729I-500J0D01*
G01*
X34500Y59375D02*
G03*
X34353Y59729I-500J0D01*
G01*
Y58814D02*
G03*
X34500Y59167I-354J354D01*
G01*
X34353Y58814D02*
G03*
X34500Y59167I-354J354D01*
G01*
X46100Y52400D02*
G03*
X44750Y51713I-850J0D01*
G01*
X44075Y52125D02*
G03*
X42385Y51996I-850J0D01*
G01*
X43089Y51286D02*
G03*
X44075Y52125I136J839D01*
G01*
X44750Y48800D02*
G03*
X44896Y48446I500J0D01*
G01*
X44750Y48800D02*
G03*
X44896Y48446I500J0D01*
G01*
X40400Y55550D02*
G03*
X38714Y55396I-850J0D01*
G01*
X39439Y54707D02*
G03*
X40400Y55550I111J843D01*
G01*
X1607Y67482D02*
Y69988D01*
X1575Y67450D02*
X1607Y67482D01*
X1450Y107450D02*
X1493Y107407D01*
Y105012D02*
Y107407D01*
Y86612D02*
Y90474D01*
X1507Y90488D01*
X8954Y1865D02*
X21946D01*
X8954Y4405D02*
X21946D01*
X69747Y2170D02*
X82739D01*
X69747Y4710D02*
X82739D01*
X71024Y115903D02*
X84016D01*
X71024Y118443D02*
X84016D01*
X71024Y120983D02*
X84016D01*
X9203Y115853D02*
X22128D01*
X22161Y115886D02*
X22250Y115975D01*
X22128Y115853D02*
X22161Y115886D01*
X9203Y118393D02*
X22195D01*
X9203Y120933D02*
X22195D01*
X47275Y109700D02*
X54050D01*
X46475Y110500D02*
X47275Y109700D01*
X36650Y110500D02*
X46475D01*
X45225Y111725D02*
X45275Y111775D01*
X45225Y110500D02*
Y111725D01*
X59412Y90152D02*
Y96707D01*
X57860Y88600D02*
X59412Y90152D01*
X55300Y91000D02*
Y93850D01*
X56612Y95162D02*
Y96707D01*
X55300Y93850D02*
X56612Y95162D01*
X50612Y94312D02*
Y96707D01*
X50240Y91140D02*
Y93940D01*
Y91140D02*
X51500Y89880D01*
X50240Y93940D02*
X50612Y94312D01*
X54025Y89895D02*
X55320Y88600D01*
X53412Y93413D02*
Y96707D01*
X54025Y89895D02*
Y92800D01*
X53412Y93413D02*
X54025Y92800D01*
X50988Y83793D02*
X51500Y84306D01*
Y89880D01*
X47700Y88600D02*
X48188Y88112D01*
Y83793D02*
Y88112D01*
X61724Y62850D02*
X75600D01*
X43825Y89750D02*
X45160Y88415D01*
Y81010D02*
Y88415D01*
X45212Y94412D02*
Y96607D01*
X60183Y61308D02*
X61724Y62850D01*
X43575Y79425D02*
X45160Y81010D01*
X43825Y89750D02*
Y93025D01*
X45212Y94412D01*
X42412Y96607D02*
X42620Y96399D01*
Y91140D02*
Y96399D01*
X21400Y60557D02*
Y62600D01*
Y60557D02*
X21407Y60550D01*
Y58607D02*
Y60550D01*
X21400Y58600D02*
X21407Y58607D01*
X17000Y68100D02*
X28147D01*
X33878Y62369D01*
X30633Y55800D02*
X34000Y59167D01*
X17325Y55800D02*
X30633D01*
X31500Y60025D02*
X31550Y59975D01*
X30225Y60025D02*
X31500D01*
X26400Y58600D02*
X28800D01*
X30225Y60025D01*
X16975Y65550D02*
X29283D01*
X33171Y61662D01*
X27750Y65800D02*
X28000Y65550D01*
X26400Y62600D02*
X28600D01*
X30651Y56525D02*
X32817Y58692D01*
X16850Y57100D02*
X18300D01*
X18875Y56525D01*
X30651D01*
X29326Y64800D02*
X32818Y61308D01*
X16275Y62975D02*
X18100Y64800D01*
X7540Y64240D02*
X12785D01*
X18100Y64800D02*
X29326D01*
X50865Y22275D02*
X52739Y20402D01*
X48025Y22600D02*
Y23525D01*
Y22600D02*
X48350Y22275D01*
X50865D01*
X44553Y38178D02*
X46840D01*
X44300Y38175D02*
X44550D01*
X44553Y38178D01*
X44507Y40993D02*
X46788D01*
X44400Y41100D02*
X44507Y40993D01*
X58307Y25807D02*
X58400Y25900D01*
X56512Y25807D02*
X58307D01*
X58378Y28647D02*
X58400Y28625D01*
X56510Y28647D02*
X58378D01*
X32615Y23665D02*
Y25926D01*
X32600Y23650D02*
X32615Y23665D01*
X32450Y31075D02*
X32588Y30937D01*
Y28693D02*
Y30937D01*
X51925Y23525D02*
X55279Y20171D01*
Y17702D02*
Y20171D01*
X48675Y23525D02*
X51925D01*
X49025Y21575D02*
X50199Y20402D01*
X47375Y22075D02*
Y23525D01*
X47875Y21575D02*
X49025D01*
X47375Y22075D02*
X47875Y21575D01*
X50199Y17702D02*
Y20402D01*
X52739Y17702D02*
Y20402D01*
X46725Y21335D02*
Y25050D01*
X47482Y25807D02*
X53712D01*
X47659Y17702D02*
Y20402D01*
X46725Y21335D02*
X47659Y20402D01*
X46725Y25050D02*
X47482Y25807D01*
X52672Y28647D02*
X53710D01*
X46075Y23525D02*
Y25875D01*
X45119Y17702D02*
Y20402D01*
X51250Y27225D02*
X52672Y28647D01*
X47425Y27225D02*
X51250D01*
X46075Y25875D02*
X47425Y27225D01*
X46075Y22025D02*
Y23525D01*
X45119Y21069D02*
X46075Y22025D01*
X45119Y20402D02*
Y21069D01*
X42579Y17702D02*
Y20402D01*
X35388Y28693D02*
X36032D01*
X38625Y26100D01*
X44400D01*
X45425Y25075D01*
Y23525D02*
Y25075D01*
X44525Y25100D02*
X44775Y24850D01*
Y22450D02*
Y24850D01*
X36241Y25100D02*
X44525D01*
X45425Y22275D02*
Y23525D01*
X44625Y21475D02*
X45425Y22275D01*
X42900Y21475D02*
X44625D01*
X42579Y21154D02*
X42900Y21475D01*
X42579Y20402D02*
Y21154D01*
X40039Y17702D02*
Y21289D01*
X35415Y25926D02*
X36241Y25100D01*
X44525Y22200D02*
X44775Y22450D01*
X40950Y22200D02*
X44525D01*
X40039Y21289D02*
X40950Y22200D01*
X40622Y23525D02*
X44125D01*
X37499Y20402D02*
X40622Y23525D01*
X37499Y17702D02*
Y20402D01*
X37625Y32375D02*
Y35210D01*
X40925Y29075D02*
X44125D01*
X37625Y32375D02*
X40925Y29075D01*
X40165Y32375D02*
Y35210D01*
X44775Y29075D02*
Y30275D01*
X40165Y32375D02*
X42115Y30425D01*
X44625D01*
X44775Y30275D01*
X42679Y35184D02*
X42705Y35210D01*
X45425Y29075D02*
Y30775D01*
X42679Y32402D02*
Y35184D01*
Y32402D02*
X44055Y31025D01*
X45175D01*
X45425Y30775D01*
X46075Y29075D02*
Y31375D01*
X45245Y32205D02*
Y35210D01*
Y32205D02*
X46075Y31375D01*
X47785Y32428D02*
Y35210D01*
X46725Y29075D02*
Y30650D01*
X47785Y31710D01*
Y32428D01*
X48125Y31050D02*
X49450D01*
X47375Y30300D02*
X48125Y31050D01*
X47375Y29075D02*
Y30300D01*
X50299Y31899D02*
Y35184D01*
X50325Y35210D01*
X49450Y31050D02*
X50299Y31899D01*
X52865Y32428D02*
Y36935D01*
X49640Y38178D02*
X51622D01*
X52839Y31614D02*
Y32402D01*
X48025Y29075D02*
Y29975D01*
X48450Y30400D01*
X51625D01*
X52839Y31614D01*
Y32402D02*
X52865Y32428D01*
X51622Y38178D02*
X52865Y36935D01*
X55379Y31204D02*
Y37471D01*
X49588Y40993D02*
X51857D01*
X48675Y29075D02*
X51350D01*
X51857Y40993D02*
X55379Y37471D01*
X54575Y30400D02*
X55379Y31204D01*
X52675Y30400D02*
X54575D01*
X51350Y29075D02*
X52675Y30400D01*
X60881Y61300D02*
X61375D01*
X60981Y61400D02*
X61275D01*
X61128Y61547D02*
X62850Y59825D01*
X60781Y61200D02*
X61475D01*
X60536Y60955D02*
X61128Y61547D01*
X60535Y60954D02*
X61128Y61547D01*
X60581Y61000D02*
X61675D01*
X60681Y61100D02*
X61575D01*
X60481Y60900D02*
X61775D01*
X58662Y61202D02*
X59016Y60849D01*
X59723Y60141D02*
X60535Y60954D01*
X58309Y61556D02*
X58662Y61202D01*
X58309Y61556D02*
X58662Y61202D01*
X58500Y59760D02*
Y61365D01*
X57955Y61909D02*
X58309Y61556D01*
X57602Y62263D02*
X57955Y61909D01*
X57955Y61909D02*
X58309Y61556D01*
X58900Y59760D02*
Y60965D01*
X58800Y59760D02*
Y61065D01*
X58700Y59760D02*
Y61165D01*
X58662Y61202D02*
X59016Y60849D01*
X58600Y59760D02*
Y61265D01*
X61400Y58375D02*
Y61275D01*
X61200Y58382D02*
Y61475D01*
X61300Y58282D02*
Y61375D01*
X61000Y58582D02*
Y61418D01*
X60900Y58682D02*
Y61318D01*
X61100Y58482D02*
Y61518D01*
X61800Y58775D02*
Y60875D01*
X61700Y58675D02*
Y60975D01*
X61600Y58575D02*
Y61075D01*
X60800Y58782D02*
Y61218D01*
X61500Y58475D02*
Y61175D01*
X58100Y59759D02*
Y61765D01*
X58000Y59747D02*
Y61865D01*
X57900Y59713D02*
Y61965D01*
X57800Y59652D02*
Y62065D01*
X57700Y59557D02*
Y62165D01*
X60600Y58982D02*
Y61018D01*
X58400Y59760D02*
Y61465D01*
X60700Y58882D02*
Y61118D01*
X58300Y59760D02*
Y61565D01*
X58200Y59760D02*
Y61665D01*
X56541Y63323D02*
X56894Y62970D01*
X56187Y63677D02*
X56541Y63323D01*
X56541Y63323D02*
X56894Y62970D01*
X55326Y63200D02*
X56664D01*
X55344Y63300D02*
X56564D01*
X55295Y63100D02*
X56764D01*
X55187Y62900D02*
X56964D01*
X55250Y63000D02*
X56864D01*
X56894Y62970D02*
X57248Y62616D01*
X55102Y62800D02*
X57064D01*
X54982Y62700D02*
X57164D01*
X55834Y64031D02*
X56187Y63677D01*
X55703Y63900D02*
X55964D01*
X55834Y64031D02*
X56187Y63677D01*
X55603Y63800D02*
X56064D01*
X55339Y63536D02*
X55834Y64031D01*
X55403Y63600D02*
X56264D01*
X55503Y63700D02*
X56164D01*
X56187Y63677D02*
X56541Y63323D01*
X55344Y63500D02*
X56364D01*
X55350Y63400D02*
X56464D01*
X57248Y62616D02*
X57602Y62263D01*
X57248Y62616D02*
X57602Y62263D01*
X57200Y59057D02*
Y62665D01*
X56894Y62970D02*
X57248Y62616D01*
X54787Y62600D02*
X57264D01*
X57100Y59048D02*
Y62765D01*
X57602Y62263D02*
X57955Y61909D01*
X57600Y59457D02*
Y62265D01*
X57500Y59357D02*
Y62365D01*
X57400Y59257D02*
Y62465D01*
X57300Y59157D02*
Y62565D01*
X56500Y58848D02*
Y63365D01*
X56400Y58747D02*
Y63465D01*
X56300Y58599D02*
Y63565D01*
X56200Y56335D02*
Y63665D01*
X56100Y56235D02*
Y63765D01*
X57000Y59048D02*
Y62865D01*
X56900Y59036D02*
Y62965D01*
X56800Y59012D02*
Y63065D01*
X56700Y58974D02*
Y63165D01*
X56600Y58921D02*
Y63265D01*
X62800Y59775D02*
Y59875D01*
X62700Y59675D02*
Y59975D01*
X62600Y59575D02*
Y60075D01*
X59781Y60200D02*
X62475D01*
X62500Y59475D02*
Y60175D01*
X62400Y59375D02*
Y60275D01*
X59982Y59600D02*
X62625D01*
X60082Y59500D02*
X62525D01*
X60182Y59400D02*
X62425D01*
X59782Y59800D02*
X62825D01*
X59882Y59700D02*
X62725D01*
X60281Y60700D02*
X61975D01*
X60381Y60800D02*
X61875D01*
X60181Y60600D02*
X62075D01*
X59981Y60400D02*
X62275D01*
X60081Y60500D02*
X62175D01*
X60100Y59482D02*
Y60518D01*
X59881Y60300D02*
X62375D01*
X59900Y59682D02*
Y60318D01*
X60000Y59582D02*
Y60418D01*
X59700Y59835D02*
Y60165D01*
X59800Y59782D02*
Y60218D01*
X62300Y59275D02*
Y60375D01*
X62200Y59175D02*
Y60475D01*
X62100Y59075D02*
Y60575D01*
X62000Y58975D02*
Y60675D01*
X61900Y58875D02*
Y60775D01*
X61303Y58278D02*
X62850Y59825D01*
X60482Y59100D02*
X62125D01*
X60582Y59000D02*
X62025D01*
X60682Y58900D02*
X61925D01*
X60282Y59300D02*
X62325D01*
X60382Y59200D02*
X62225D01*
X60400Y59182D02*
Y60818D01*
X60300Y59282D02*
Y60718D01*
X60500Y59082D02*
Y60918D01*
X60200Y59382D02*
Y60618D01*
X60982Y58600D02*
X61625D01*
X61082Y58500D02*
X61525D01*
X61182Y58400D02*
X61425D01*
X60782Y58800D02*
X61825D01*
X60882Y58700D02*
X61725D01*
X59369Y60495D02*
X59723Y60141D01*
X59600Y59735D02*
Y60265D01*
X59500Y59635D02*
Y60365D01*
X59016Y60849D02*
X59369Y60495D01*
X59016Y60849D02*
X59369Y60495D01*
X59400Y59535D02*
Y60465D01*
X59664Y60200D02*
X59781D01*
X59664Y59800D02*
X59782D01*
X59369Y59505D02*
X59723Y59859D01*
X59145Y59700D02*
X59564D01*
X59275Y59600D02*
X59464D01*
X59200Y59665D02*
Y60665D01*
X59100Y59721D02*
Y60765D01*
X59300Y59575D02*
Y60565D01*
X59000Y59751D02*
Y60865D01*
X58110Y59760D02*
X58908D01*
X59261Y59613D02*
X59369Y59505D01*
X57182Y59039D02*
X57756Y59613D01*
X59723Y59859D02*
X61303Y58278D01*
X56894Y57030D02*
X57234Y57370D01*
X56894Y57030D02*
X57234Y57370D01*
X57100Y57235D02*
Y57351D01*
X57000Y57135D02*
Y57351D01*
X56900Y57035D02*
Y57363D01*
X56541Y56677D02*
X56894Y57030D01*
X56541Y56677D02*
X56894Y57030D01*
X56800Y56935D02*
Y57388D01*
X56600Y56735D02*
Y57479D01*
X56500Y56635D02*
Y57552D01*
X56400Y56535D02*
Y57652D01*
X56300Y56435D02*
Y57800D01*
X56700Y56835D02*
Y57425D01*
X56187Y56323D02*
X56541Y56677D01*
X56187Y56323D02*
X56541Y56677D01*
X53788Y56300D02*
X56164D01*
X53982Y56200D02*
X56064D01*
X47700Y74281D02*
Y74975D01*
X47600Y74181D02*
Y75075D01*
X47500Y74081D02*
Y75175D01*
X46275Y76400D02*
X48047Y74628D01*
X47400Y73981D02*
Y75275D01*
X47300Y73881D02*
Y75375D01*
X47900Y74481D02*
Y74775D01*
X47800Y74381D02*
Y74875D01*
X46641Y73223D02*
X48047Y74628D01*
X47100Y73681D02*
Y75575D01*
X47000Y73581D02*
Y75675D01*
X46900Y73481D02*
Y75775D01*
X46800Y73381D02*
Y75875D01*
X46700Y73281D02*
Y75975D01*
X46300Y73282D02*
Y76375D01*
X47200Y73781D02*
Y75475D01*
X46700Y73165D02*
Y73281D01*
X46641Y73223D02*
X46995Y72869D01*
X46300Y73164D02*
Y73282D01*
X46336Y73200D02*
X46665D01*
X49470Y70394D02*
X49823Y70041D01*
X49116Y70748D02*
X49470Y70394D01*
X49470Y70394D02*
X49823Y70041D01*
X48763Y71102D02*
X49116Y70748D01*
X48763Y71102D02*
X49116Y70748D01*
X49116Y70748D02*
X49470Y70394D01*
X50177Y69687D02*
X50531Y69334D01*
X50177Y69687D02*
X50531Y69334D01*
X50100Y67150D02*
Y69765D01*
X49823Y70041D02*
X50177Y69687D01*
X49823Y70041D02*
X50177Y69687D01*
X47349Y72516D02*
X47702Y72162D01*
X47349Y72516D02*
X47702Y72162D01*
X47702Y72162D02*
X48056Y71809D01*
X46995Y72869D02*
X47349Y72516D01*
X46995Y72869D02*
X47349Y72516D01*
X48409Y71455D02*
X48763Y71102D01*
X48056Y71809D02*
X48409Y71455D01*
X48409Y71455D02*
X48763Y71102D01*
X47702Y72162D02*
X48056Y71809D01*
X48056Y71809D02*
X48409Y71455D01*
X45775Y75900D02*
X46775D01*
X45875Y76000D02*
X46675D01*
X45675Y75800D02*
X46875D01*
X45475Y75600D02*
X47075D01*
X45575Y75700D02*
X46975D01*
X45375Y75500D02*
X47175D01*
X45582Y74000D02*
X47418D01*
X45682Y73900D02*
X47318D01*
X45782Y73800D02*
X47218D01*
X45382Y74200D02*
X47618D01*
X45482Y74100D02*
X47518D01*
X46175Y76300D02*
X46375D01*
X46175Y76300D02*
X46275Y76400D01*
X46075Y76200D02*
X46475D01*
X45975Y76100D02*
X46575D01*
X45900Y73682D02*
Y76025D01*
X45700Y73882D02*
Y75825D01*
X45600Y73982D02*
Y75725D01*
X45800Y73782D02*
Y75925D01*
X45400Y74182D02*
Y75525D01*
X45500Y74082D02*
Y75625D01*
X45982Y73600D02*
X47018D01*
X46082Y73500D02*
X46918D01*
X46136Y73000D02*
X46865D01*
X45882Y73700D02*
X47118D01*
X46036Y72900D02*
X46965D01*
X45936Y72800D02*
X47064D01*
X45736Y72600D02*
X47264D01*
X45836Y72700D02*
X47164D01*
X45636Y72500D02*
X47364D01*
X45536Y72400D02*
X47464D01*
X45436Y72300D02*
X47564D01*
X46200Y73382D02*
Y76325D01*
X46100Y73482D02*
Y76225D01*
X46182Y73400D02*
X46818D01*
X46000Y73582D02*
Y76125D01*
X45546Y74035D02*
X46359Y73223D01*
X46236Y73100D02*
X46765D01*
X46282Y73300D02*
X46718D01*
X46005Y72869D02*
X46359Y73223D01*
X45651Y72516D02*
X46005Y72869D01*
X45651Y72516D02*
X46005Y72869D01*
X54773Y65091D02*
X55127Y64738D01*
X54773Y65091D02*
X55127Y64738D01*
X54600Y64244D02*
Y65265D01*
X54420Y65445D02*
X54773Y65091D01*
X54066Y65798D02*
X54420Y65445D01*
X54420Y65445D02*
X54773Y65091D01*
X55000Y64611D02*
Y64865D01*
X54900Y64511D02*
Y64965D01*
X54800Y64411D02*
Y65065D01*
X54700Y64311D02*
Y65165D01*
X54629Y64240D02*
X55127Y64738D01*
X53005Y66859D02*
X53359Y66505D01*
X52652Y67212D02*
X53005Y66859D01*
X53005Y66859D02*
X53359Y66505D01*
X52298Y67566D02*
X52652Y67212D01*
X52298Y67566D02*
X52652Y67212D01*
X52652Y67212D02*
X53005Y66859D01*
X53712Y66152D02*
X54066Y65798D01*
X53712Y66152D02*
X54066Y65798D01*
X54066Y65798D02*
X54420Y65445D01*
X53359Y66505D02*
X53712Y66152D01*
X53359Y66505D02*
X53712Y66152D01*
X54400Y64244D02*
Y65465D01*
X54300Y64226D02*
Y65565D01*
X54200Y64195D02*
Y65665D01*
X54100Y64150D02*
Y65765D01*
X54000Y64087D02*
Y65865D01*
X53900Y64002D02*
Y65965D01*
X54500Y64250D02*
Y65365D01*
X54000Y56188D02*
Y62713D01*
X53900Y56250D02*
Y62798D01*
X53500Y56350D02*
Y66365D01*
X53400Y56344D02*
Y66465D01*
X53300Y56326D02*
Y66565D01*
X53200Y56295D02*
Y66665D01*
X53100Y56250D02*
Y66765D01*
X53800Y63882D02*
Y66065D01*
X53700Y63687D02*
Y66165D01*
X53800Y56295D02*
Y62918D01*
X53700Y56326D02*
Y63113D01*
X53600Y56344D02*
Y66265D01*
X51238Y68627D02*
X51591Y68273D01*
X51300Y67982D02*
Y68565D01*
X50884Y68980D02*
X51238Y68627D01*
X50884Y68980D02*
X51238Y68627D01*
X51238Y68627D02*
X51591Y68273D01*
X52232Y67500D02*
X52364D01*
X51500Y68182D02*
Y68365D01*
X52132Y67400D02*
X52464D01*
X51400Y68082D02*
Y68465D01*
X50916Y67597D02*
X51591Y68273D01*
X50700Y67587D02*
Y69165D01*
X50600Y67562D02*
Y69265D01*
X50500Y67525D02*
Y69365D01*
X50531Y69334D02*
X50884Y68980D01*
X50531Y69334D02*
X50884Y68980D01*
X51200Y67882D02*
Y68665D01*
X51100Y67782D02*
Y68765D01*
X51000Y67682D02*
Y68865D01*
X50900Y67599D02*
Y68965D01*
X50800Y67599D02*
Y69065D01*
X51699Y66800D02*
X53064D01*
X51732Y67000D02*
X52864D01*
X51699Y66700D02*
X53164D01*
X51687Y66600D02*
X53264D01*
X51687Y66900D02*
X52964D01*
X51662Y66500D02*
X53364D01*
X51571Y66300D02*
X53564D01*
X51625Y66400D02*
X53464D01*
X51498Y66200D02*
X53664D01*
X51398Y66100D02*
X53764D01*
X51250Y66000D02*
X53864D01*
X50400Y67471D02*
Y69465D01*
X50300Y67398D02*
Y69565D01*
X51677Y66945D02*
X52298Y67566D01*
X50200Y67298D02*
Y69665D01*
X51932Y67200D02*
X52664D01*
X52032Y67300D02*
X52564D01*
X51832Y67100D02*
X52764D01*
X51700Y66768D02*
Y66968D01*
X56000Y56135D02*
Y63865D01*
X55900Y56035D02*
Y63965D01*
X55800Y55935D02*
Y63996D01*
X55834Y55969D02*
X56187Y56323D01*
X55834Y55969D02*
X56187Y56323D01*
X55700Y55835D02*
Y63896D01*
X55480Y55616D02*
X55834Y55969D01*
X54250Y55900D02*
X55764D01*
X55480Y55616D02*
X55834Y55969D01*
X54102Y56100D02*
X55964D01*
X54187Y56000D02*
X55864D01*
X55600Y55735D02*
Y63797D01*
X55500Y55635D02*
Y63696D01*
X55400Y55535D02*
Y63597D01*
X54200Y55982D02*
Y62605D01*
X54100Y56102D02*
Y62650D01*
X55300Y55435D02*
Y63112D01*
X54295Y55800D02*
X55664D01*
X54300Y55788D02*
Y62574D01*
X54326Y55700D02*
X55564D01*
X54344Y55600D02*
X55464D01*
X54350Y55500D02*
X55364D01*
X55127Y55262D02*
X55480Y55616D01*
X55200Y55335D02*
Y62918D01*
X55127Y55262D02*
X55480Y55616D01*
X54344Y55400D02*
X55264D01*
X55100Y55235D02*
Y62798D01*
X55000Y55135D02*
Y62712D01*
X54773Y54909D02*
X55127Y55262D01*
X54773Y54909D02*
X55127Y55262D01*
X54382Y55300D02*
X55164D01*
X54482Y55200D02*
X55064D01*
X54900Y55035D02*
Y62650D01*
X54800Y54935D02*
Y62605D01*
X54700Y54982D02*
Y62574D01*
X54500Y55182D02*
Y62550D01*
X54600Y55082D02*
Y62556D01*
X54582Y55100D02*
X54964D01*
X54400Y55282D02*
Y62556D01*
X54682Y55000D02*
X54864D01*
X54336Y55346D02*
X54773Y54909D01*
X53000Y56187D02*
Y66865D01*
X52900Y56102D02*
Y66965D01*
X52800Y55982D02*
Y67065D01*
X52700Y55787D02*
Y67165D01*
X52600Y52735D02*
Y67265D01*
X52500Y52635D02*
Y67365D01*
X53000Y53135D02*
Y54813D01*
X52900Y53035D02*
Y54898D01*
X52800Y52935D02*
Y55018D01*
X52700Y52835D02*
Y55213D01*
X49800Y52492D02*
Y70065D01*
X49700Y52523D02*
Y70165D01*
X49600Y52541D02*
Y70265D01*
X49500Y52547D02*
Y70365D01*
X49400Y52541D02*
Y70465D01*
X49300Y52523D02*
Y70564D01*
X52400Y52535D02*
Y67465D01*
X52300Y52435D02*
Y67565D01*
X52200Y52335D02*
Y67468D01*
X49900Y52447D02*
Y69965D01*
X50000Y52384D02*
Y69865D01*
X52100Y52235D02*
Y67368D01*
X52000Y52135D02*
Y67268D01*
X51900Y52035D02*
Y67168D01*
X51800Y51935D02*
Y67068D01*
X51700Y51835D02*
Y66732D01*
X51600Y51735D02*
Y66350D01*
X51500Y51635D02*
Y66202D01*
X51400Y51535D02*
Y66102D01*
X51300Y51435D02*
Y66029D01*
X51200Y51335D02*
Y65975D01*
X51100Y51235D02*
Y65938D01*
X50400Y51504D02*
Y66029D01*
X50300Y51984D02*
Y66102D01*
X50600Y51304D02*
Y65938D01*
X50100Y52299D02*
Y66350D01*
X50200Y52179D02*
Y66202D01*
X51000Y51135D02*
Y65913D01*
X50800Y51104D02*
Y65901D01*
X50900Y51035D02*
Y65901D01*
X50500Y51404D02*
Y65975D01*
X50700Y51204D02*
Y65913D01*
X53900Y54035D02*
Y54368D01*
X53800Y53935D02*
Y54468D01*
X53700Y53835D02*
Y54568D01*
X53611Y54657D02*
X54066Y54202D01*
X53600Y53735D02*
Y54656D01*
X53500Y53635D02*
Y54650D01*
X53712Y53848D02*
X54066Y54202D01*
X54000Y54135D02*
Y54268D01*
X53712Y53848D02*
X54066Y54202D01*
X53359Y53495D02*
X53712Y53848D01*
X53359Y53495D02*
X53712Y53848D01*
X53400Y53535D02*
Y54656D01*
X53300Y53435D02*
Y54674D01*
X53200Y53335D02*
Y54705D01*
X53005Y53141D02*
X53359Y53495D01*
X53100Y53235D02*
Y54750D01*
X53005Y53141D02*
X53359Y53495D01*
X52652Y52788D02*
X53005Y53141D01*
X52652Y52788D02*
X53005Y53141D01*
X52298Y52434D02*
X52652Y52788D01*
X52298Y52434D02*
X52652Y52788D01*
X51945Y52080D02*
X52298Y52434D01*
X51945Y52080D02*
X52298Y52434D01*
X51591Y51727D02*
X51945Y52080D01*
X51591Y51727D02*
X51945Y52080D01*
X50248Y52100D02*
X51964D01*
X50294Y52000D02*
X51864D01*
X50325Y51900D02*
X51764D01*
X51238Y51373D02*
X51591Y51727D01*
X51238Y51373D02*
X51591Y51727D01*
X50344Y51800D02*
X51664D01*
X50350Y51700D02*
X51564D01*
X50404Y51500D02*
X51364D01*
X50504Y51400D02*
X51264D01*
X50344Y51600D02*
X51464D01*
X50340Y51564D02*
X50884Y51020D01*
X51238Y51373D01*
X50804Y51100D02*
X50964D01*
X50884Y51020D02*
X51238Y51373D01*
X50604Y51300D02*
X51164D01*
X50704Y51200D02*
X51064D01*
X45937Y52900D02*
X52764D01*
X46000Y52800D02*
X52664D01*
X46045Y52700D02*
X52564D01*
X45538Y53200D02*
X53064D01*
X45732Y53100D02*
X52964D01*
X45852Y53000D02*
X52864D01*
X49978Y52400D02*
X52264D01*
X50099Y52300D02*
X52164D01*
X50185Y52200D02*
X52064D01*
X46076Y52600D02*
X52464D01*
X49778Y52500D02*
X52364D01*
X45750Y50800D02*
X49690D01*
X49632Y50857D02*
X50177Y50313D01*
X45750Y50700D02*
X49790D01*
X45750Y50600D02*
X49890D01*
X45750Y50400D02*
X50090D01*
X45750Y50500D02*
X49990D01*
X50100Y50235D02*
Y50390D01*
X45750Y50300D02*
X50164D01*
X45750Y50200D02*
X50064D01*
X50000Y50135D02*
Y50490D01*
X49900Y50035D02*
Y50590D01*
X49800Y49935D02*
Y50690D01*
X49823Y49959D02*
X50177Y50313D01*
X49823Y49959D02*
X50177Y50313D01*
X49700Y49835D02*
Y50790D01*
X45750Y50100D02*
X49964D01*
X49470Y49606D02*
X49823Y49959D01*
X49470Y49606D02*
X49823Y49959D01*
X45750Y50000D02*
X49864D01*
X45750Y49900D02*
X49764D01*
X49600Y49735D02*
Y50853D01*
X49500Y49635D02*
Y50847D01*
X49400Y49535D02*
Y50853D01*
X45750Y49800D02*
X49664D01*
X49300Y49435D02*
Y50871D01*
X45750Y49700D02*
X49564D01*
X49116Y49252D02*
X49470Y49606D01*
X49116Y49252D02*
X49470Y49606D01*
X45750Y49600D02*
X49464D01*
X45750Y49500D02*
X49364D01*
X49200Y52492D02*
Y70664D01*
X49100Y52447D02*
Y70765D01*
X49000Y52384D02*
Y70865D01*
X46094Y52500D02*
X49222D01*
X48900Y52299D02*
Y70965D01*
Y49035D02*
Y51095D01*
X49200Y49335D02*
Y50901D01*
X49100Y49235D02*
Y50947D01*
X49000Y49135D02*
Y51009D01*
X48763Y48898D02*
X49116Y49252D01*
X48763Y48898D02*
X49116Y49252D01*
X48700Y51983D02*
Y71165D01*
X48600Y48735D02*
Y71265D01*
X48500Y48635D02*
Y71365D01*
X48400Y48535D02*
Y71465D01*
X46100Y52418D02*
Y72964D01*
X48300Y48435D02*
Y71565D01*
X48800Y52179D02*
Y71064D01*
Y48935D02*
Y51215D01*
X48700Y48835D02*
Y51410D01*
X48409Y48545D02*
X48763Y48898D01*
X48409Y48545D02*
X48763Y48898D01*
X47700Y47835D02*
Y72164D01*
X47600Y47735D02*
Y72265D01*
X47500Y47635D02*
Y72365D01*
X47400Y47535D02*
Y72465D01*
X47300Y47435D02*
Y72564D01*
X47200Y47335D02*
Y72664D01*
X48200Y48335D02*
Y71664D01*
X48100Y48235D02*
Y71765D01*
X48000Y48135D02*
Y71865D01*
X47900Y48035D02*
Y71965D01*
X47800Y47935D02*
Y72064D01*
X46700Y46835D02*
Y73165D01*
X46600Y43575D02*
Y76075D01*
X46500Y43475D02*
Y76175D01*
X46300Y46836D02*
Y73164D01*
X46400Y43425D02*
Y76275D01*
X47100Y47235D02*
Y72765D01*
X47000Y47135D02*
Y72865D01*
X46900Y47035D02*
Y72965D01*
X46800Y46935D02*
Y73065D01*
X46200Y46936D02*
Y73064D01*
X46100Y52400D02*
X49022D01*
X46094Y52300D02*
X48901D01*
X46076Y52200D02*
X48815D01*
X46045Y52100D02*
X48752D01*
X46000Y52000D02*
X48706D01*
X45937Y51900D02*
X48675D01*
X45852Y51800D02*
X48656D01*
X45750Y51600D02*
X48656D01*
X45750Y51500D02*
X48673D01*
X45750Y51400D02*
X48704D01*
X45750Y51300D02*
X48748D01*
X45900Y52948D02*
Y72764D01*
X45800Y53048D02*
Y72664D01*
X46000Y52800D02*
Y72864D01*
X45600Y53175D02*
Y72464D01*
X45700Y53121D02*
Y72564D01*
X45500Y53212D02*
Y72364D01*
X45750Y51700D02*
X48650D01*
X45300Y53249D02*
Y72164D01*
X45400Y53237D02*
Y72264D01*
X45750Y51100D02*
X48895D01*
X45750Y51200D02*
X48810D01*
X45750Y51000D02*
X49013D01*
X45750Y49400D02*
X49264D01*
X45750Y50900D02*
X49204D01*
X45750Y49300D02*
X49164D01*
X45750Y49200D02*
X49064D01*
X45857Y48900D02*
X48764D01*
X45957Y48800D02*
X48664D01*
X45750Y49100D02*
X48964D01*
X45757Y49000D02*
X48864D01*
X46000Y48757D02*
Y52000D01*
X45900Y48857D02*
Y51852D01*
X46100Y48618D02*
Y52382D01*
X45750Y49007D02*
Y51713D01*
X45800Y48957D02*
Y51752D01*
X46050Y48700D02*
X48564D01*
X46108Y48600D02*
X48464D01*
X45750Y49007D02*
X46004Y48753D01*
X48056Y48191D02*
X48409Y48545D01*
X46140Y48500D02*
X48364D01*
X48056Y48191D02*
X48409Y48545D01*
X46150Y48400D02*
X48264D01*
X46150Y48300D02*
X48164D01*
X46150Y48200D02*
X48064D01*
X47702Y47838D02*
X48056Y48191D01*
X47702Y47838D02*
X48056Y48191D01*
X47349Y47484D02*
X47702Y47838D01*
X46150Y48100D02*
X47964D01*
X46150Y48000D02*
X47864D01*
X47349Y47484D02*
X47702Y47838D01*
X46995Y47131D02*
X47349Y47484D01*
X46995Y47131D02*
X47349Y47484D01*
X46236Y46900D02*
X46764D01*
X46150Y47483D02*
Y48400D01*
X46641Y46777D02*
X46995Y47131D01*
X46336Y46800D02*
X46664D01*
X46700Y46719D02*
Y46835D01*
X46641Y46777D02*
X47454Y45965D01*
X46300Y46718D02*
Y46836D01*
X46281Y46700D02*
X46719D01*
X47455Y45964D02*
X48222Y45197D01*
X47700Y44675D02*
Y45719D01*
X47600Y44575D02*
Y45819D01*
X47454Y45965D02*
X48222Y45197D01*
X47500Y44475D02*
Y45919D01*
X47400Y44375D02*
Y46019D01*
X48100Y45075D02*
Y45319D01*
X48000Y44975D02*
Y45419D01*
X47900Y44875D02*
Y45519D01*
X47800Y44775D02*
Y45619D01*
X46425Y43400D02*
X48222Y45197D01*
X47000Y43975D02*
Y46419D01*
X46900Y43875D02*
Y46519D01*
X46800Y43775D02*
Y46619D01*
X46700Y43675D02*
Y46719D01*
X46300Y43525D02*
Y46718D01*
X47300Y44275D02*
Y46119D01*
X47200Y44175D02*
Y46219D01*
X47100Y44075D02*
Y46319D01*
X46225Y43600D02*
X46625D01*
X46325Y43500D02*
X46525D01*
X46150Y47900D02*
X47764D01*
X46150Y47800D02*
X47664D01*
X46150Y47700D02*
X47564D01*
X46150Y47600D02*
X47464D01*
X46150Y47500D02*
X47364D01*
X46143Y47400D02*
X47264D01*
X46115Y47300D02*
X47164D01*
X45881Y46300D02*
X47119D01*
X45781Y46200D02*
X47219D01*
X45681Y46100D02*
X47319D01*
X45581Y46000D02*
X47419D01*
X46062Y47200D02*
X47064D01*
X46100Y47036D02*
Y47264D01*
X46005Y47131D02*
X46359Y46777D01*
X46136Y47000D02*
X46864D01*
X46181Y46600D02*
X46819D01*
X46081Y46500D02*
X46919D01*
X46036Y47100D02*
X46964D01*
X45981Y46400D02*
X47019D01*
X45481Y45900D02*
X47519D01*
X45525Y44300D02*
X47325D01*
X45625Y44200D02*
X47225D01*
X45381Y45800D02*
X47619D01*
X45325Y44500D02*
X47525D01*
X45425Y44400D02*
X47425D01*
X45925Y43900D02*
X46925D01*
X46025Y43800D02*
X46825D01*
X46125Y43700D02*
X46725D01*
X45725Y44100D02*
X47125D01*
X45825Y44000D02*
X47025D01*
X46100Y43725D02*
Y46518D01*
X46000Y43825D02*
Y46418D01*
X46200Y43625D02*
Y46618D01*
X45800Y44025D02*
Y46218D01*
X45900Y43925D02*
Y46318D01*
X45600Y44225D02*
Y46018D01*
X45500Y44325D02*
Y45918D01*
X45700Y44125D02*
Y46118D01*
X45300Y44525D02*
Y45718D01*
X45400Y44425D02*
Y45818D01*
X44975Y75100D02*
X47575D01*
X45075Y75200D02*
X47475D01*
X44875Y75000D02*
X47675D01*
X44782Y74800D02*
X47875D01*
X44775Y74900D02*
X47775D01*
X44882Y74700D02*
X47975D01*
X45182Y74400D02*
X47818D01*
X45282Y74300D02*
X47718D01*
X45336Y72200D02*
X47664D01*
X44982Y74600D02*
X48018D01*
X45082Y74500D02*
X47918D01*
X45175Y75300D02*
X47375D01*
X45275Y75400D02*
X47275D01*
X45300Y74282D02*
Y75425D01*
X44728Y74853D02*
X46175Y76300D01*
X45100Y74482D02*
Y75225D01*
X45200Y74382D02*
Y75325D01*
X45298Y72162D02*
X45651Y72516D01*
X45000Y74582D02*
Y75125D01*
X45298Y72162D02*
X45651Y72516D01*
X44732Y74849D02*
X45546Y74035D01*
X44732Y74849D02*
X45545Y74036D01*
X44336Y71200D02*
X48664D01*
X44436Y71300D02*
X48564D01*
X44236Y71100D02*
X48764D01*
X44036Y70900D02*
X48964D01*
X44136Y71000D02*
X48864D01*
X43936Y70800D02*
X49064D01*
X43736Y70600D02*
X49264D01*
X43836Y70700D02*
X49164D01*
X43636Y70500D02*
X49364D01*
X43536Y70400D02*
X49464D01*
X43436Y70300D02*
X49564D01*
X45136Y72000D02*
X47864D01*
X45236Y72100D02*
X47764D01*
X45036Y71900D02*
X47964D01*
X44944Y71809D02*
X45298Y72162D01*
X44944Y71809D02*
X45298Y72162D01*
X44836Y71700D02*
X48164D01*
X44936Y71800D02*
X48064D01*
X44736Y71600D02*
X48264D01*
X44636Y71500D02*
X48364D01*
X44536Y71400D02*
X48464D01*
X42136Y69000D02*
X50864D01*
X42236Y69100D02*
X50764D01*
X42036Y68900D02*
X50964D01*
X41836Y68700D02*
X51164D01*
X41936Y68800D02*
X51064D01*
X41736Y68600D02*
X51264D01*
X41536Y68400D02*
X51464D01*
X41636Y68500D02*
X51364D01*
X41436Y68300D02*
X51564D01*
X41336Y68200D02*
X51518D01*
X41236Y68100D02*
X51418D01*
X43236Y70100D02*
X49764D01*
X43336Y70200D02*
X49664D01*
X43136Y70000D02*
X49864D01*
X42936Y69800D02*
X50064D01*
X43036Y69900D02*
X49964D01*
X42836Y69700D02*
X50164D01*
X42636Y69500D02*
X50364D01*
X42736Y69600D02*
X50264D01*
X42536Y69400D02*
X50464D01*
X42436Y69300D02*
X50564D01*
X42336Y69200D02*
X50664D01*
X41275Y67700D02*
X51018D01*
X41375Y67600D02*
X50834D01*
X41475Y67500D02*
X50450D01*
X41136Y68000D02*
X51318D01*
X41075Y67900D02*
X51218D01*
X41175Y67800D02*
X51118D01*
X42412Y66100D02*
X50302D01*
X42475Y66200D02*
X50202D01*
X42327Y66000D02*
X50450D01*
X42013Y67400D02*
X50302D01*
X42207Y67300D02*
X50202D01*
X42475Y67000D02*
X50038D01*
X42520Y66900D02*
X50013D01*
X42551Y66800D02*
X50001D01*
X42327Y67200D02*
X50129D01*
X42412Y67100D02*
X50075D01*
X42569Y66700D02*
X50001D01*
X42575Y66600D02*
X50013D01*
X42569Y66500D02*
X50038D01*
X42551Y66400D02*
X50075D01*
X42520Y66300D02*
X50129D01*
X38336Y65200D02*
X54664D01*
X38436Y65300D02*
X54564D01*
X38236Y65100D02*
X54764D01*
X38036Y64900D02*
X54964D01*
X38136Y65000D02*
X54864D01*
X37936Y64800D02*
X55064D01*
X37836Y64700D02*
X55089D01*
X37736Y64600D02*
X54989D01*
X37636Y64500D02*
X54889D01*
X37536Y64400D02*
X54789D01*
X37436Y64300D02*
X54689D01*
X42012Y65800D02*
X54064D01*
X42207Y65900D02*
X53964D01*
X38836Y65700D02*
X54164D01*
X38636Y65500D02*
X54364D01*
X38736Y65600D02*
X54264D01*
X38536Y65400D02*
X54464D01*
X37336Y64200D02*
X54212D01*
X37236Y64100D02*
X54018D01*
X37136Y64000D02*
X53898D01*
X37036Y63900D02*
X53813D01*
X36936Y63800D02*
X53750D01*
X37869Y62500D02*
X57364D01*
X37851Y62600D02*
X54213D01*
X37875Y62400D02*
X57464D01*
X37851Y62200D02*
X57664D01*
X37869Y62300D02*
X57564D01*
X37820Y62100D02*
X57764D01*
X37712Y61900D02*
X57964D01*
X37775Y62000D02*
X57864D01*
X37627Y61800D02*
X58064D01*
X37507Y61700D02*
X58164D01*
X37312Y61600D02*
X58264D01*
X36836Y63700D02*
X53705D01*
X36736Y63600D02*
X53674D01*
X37312Y63200D02*
X53674D01*
X36636Y63500D02*
X53656D01*
X36536Y63400D02*
X53650D01*
X37775Y62800D02*
X53898D01*
X37712Y62900D02*
X53813D01*
X37820Y62700D02*
X54018D01*
X37507Y63100D02*
X53705D01*
X37627Y63000D02*
X53750D01*
X33836Y60700D02*
X59164D01*
X33936Y60800D02*
X59064D01*
X33736Y60600D02*
X59264D01*
X33663Y60400D02*
X59464D01*
X33636Y60500D02*
X59364D01*
X33782Y60300D02*
X59564D01*
X34182Y59900D02*
X62775D01*
X34082Y60000D02*
X62675D01*
X34282Y59800D02*
X59664D01*
X33882Y60200D02*
X59664D01*
X33982Y60100D02*
X62575D01*
X34636Y61500D02*
X58364D01*
X36436Y63300D02*
X53656D01*
X34536Y61400D02*
X58464D01*
X34436Y61300D02*
X58564D01*
X34336Y61200D02*
X58664D01*
X34236Y61100D02*
X58764D01*
X34380Y59700D02*
X57873D01*
X34446Y59600D02*
X57743D01*
X34136Y61000D02*
X58864D01*
X34036Y60900D02*
X58964D01*
X34484Y59500D02*
X57643D01*
X34499Y59400D02*
X57543D01*
X34500Y59300D02*
X57443D01*
X34500Y59200D02*
X57343D01*
X34495Y59100D02*
X57243D01*
X34471Y59000D02*
X56763D01*
X35636Y57500D02*
X56568D01*
X35536Y57600D02*
X56448D01*
X35736Y57400D02*
X56763D01*
X34422Y58900D02*
X56568D01*
X34436Y58700D02*
X56363D01*
X34736Y58400D02*
X56224D01*
X34836Y58300D02*
X56206D01*
X34936Y58200D02*
X56200D01*
X34536Y58600D02*
X56300D01*
X34636Y58500D02*
X56255D01*
X35236Y57900D02*
X56255D01*
X35336Y57800D02*
X56300D01*
X35436Y57700D02*
X56363D01*
X35036Y58100D02*
X56206D01*
X35136Y58000D02*
X56224D01*
X44900Y74682D02*
Y75025D01*
X44800Y74782D02*
Y74925D01*
X44591Y71455D02*
X44944Y71809D01*
X44591Y71455D02*
X44944Y71809D01*
X44237Y71102D02*
X44591Y71455D01*
X44237Y71102D02*
X44591Y71455D01*
X43884Y70748D02*
X44237Y71102D01*
X43884Y70748D02*
X44237Y71102D01*
X43530Y70394D02*
X43884Y70748D01*
X43530Y70394D02*
X43884Y70748D01*
X43177Y70041D02*
X43530Y70394D01*
X43177Y70041D02*
X43530Y70394D01*
X42823Y69687D02*
X43177Y70041D01*
X42823Y69687D02*
X43177Y70041D01*
X42469Y69334D02*
X42823Y69687D01*
X42469Y69334D02*
X42823Y69687D01*
X42116Y68980D02*
X42469Y69334D01*
X42116Y68980D02*
X42469Y69334D01*
X41762Y68627D02*
X42116Y68980D01*
X41762Y68627D02*
X42116Y68980D01*
X41409Y68273D02*
X41762Y68627D01*
X41409Y68273D02*
X41762Y68627D01*
X42400Y67117D02*
Y69264D01*
X42300Y67226D02*
Y69164D01*
X42500Y66950D02*
Y69364D01*
X42200Y67305D02*
Y69064D01*
X42000Y67404D02*
Y68864D01*
X42100Y67363D02*
Y68964D01*
X41900Y67432D02*
Y68764D01*
X41800Y67447D02*
Y68664D01*
X41700Y67450D02*
Y68564D01*
X41500Y67475D02*
Y68364D01*
X41400Y67575D02*
Y68264D01*
X41600Y67441D02*
Y68464D01*
X41055Y67920D02*
X41409Y68273D01*
X41055Y67920D02*
X41409Y68273D01*
X41300Y67675D02*
Y68164D01*
X41200Y67775D02*
Y68064D01*
X41055Y67920D02*
X41544Y67431D01*
X40236Y67100D02*
X40461D01*
X40348Y67212D02*
X40879Y66682D01*
X39936Y66800D02*
X40761D01*
X40036Y66900D02*
X40661D01*
X39836Y66700D02*
X40861D01*
X39736Y66600D02*
X40875D01*
X39636Y66500D02*
X40881D01*
X39536Y66400D02*
X40899D01*
X39436Y66300D02*
X40930D01*
X39336Y66200D02*
X40975D01*
X39236Y66100D02*
X41038D01*
X39136Y66000D02*
X41123D01*
X39036Y65900D02*
X41243D01*
X40136Y67000D02*
X40561D01*
X39995Y66859D02*
X40348Y67212D01*
X39995Y66859D02*
X40348Y67212D01*
X39641Y66505D02*
X39995Y66859D01*
X39641Y66505D02*
X39995Y66859D01*
X39288Y66152D02*
X39641Y66505D01*
X39288Y66152D02*
X39641Y66505D01*
X38934Y65798D02*
X39288Y66152D01*
X38934Y65798D02*
X39288Y66152D01*
X38936Y65800D02*
X41438D01*
X38580Y65445D02*
X38934Y65798D01*
X38580Y65445D02*
X38934Y65798D01*
X38227Y65091D02*
X38580Y65445D01*
X38227Y65091D02*
X38580Y65445D01*
X37873Y64738D02*
X38227Y65091D01*
X37873Y64738D02*
X38227Y65091D01*
X37700Y62917D02*
Y64564D01*
X37800Y62749D02*
Y64664D01*
X37520Y64384D02*
X37873Y64738D01*
X37520Y64384D02*
X37873Y64738D01*
X37500Y63105D02*
Y64364D01*
X37400Y63163D02*
Y64264D01*
X37600Y63026D02*
Y64464D01*
X37166Y64031D02*
X37520Y64384D01*
X37166Y64031D02*
X37520Y64384D01*
X37200Y63232D02*
Y64064D01*
X37100Y63247D02*
Y63964D01*
X37300Y63204D02*
Y64164D01*
X36813Y63677D02*
X37166Y64031D01*
X36813Y63677D02*
X37166Y64031D01*
X37000Y63249D02*
Y63864D01*
X36900Y63241D02*
Y63764D01*
X36800Y63219D02*
Y63664D01*
X36459Y63323D02*
X36813Y63677D01*
X36459Y63323D02*
X36813Y63677D01*
X36700Y63185D02*
Y63564D01*
X36336Y63200D02*
X36738D01*
X36600Y63136D02*
Y63464D01*
X36500Y63068D02*
Y63364D01*
X36236Y63100D02*
X36543D01*
X36136Y63000D02*
X36423D01*
X36400Y62976D02*
Y63264D01*
X36300Y62843D02*
Y63164D01*
X36200Y62604D02*
Y63064D01*
X36106Y62970D02*
X36459Y63323D01*
X36106Y62970D02*
X36459Y63323D01*
X36100Y62600D02*
Y62964D01*
X36036Y62900D02*
X36338D01*
X35936Y62800D02*
X36275D01*
X36000Y62600D02*
Y62864D01*
X35836Y62700D02*
X36230D01*
X35900Y62600D02*
Y62764D01*
X35752Y62616D02*
X36106Y62970D01*
X35768Y62600D02*
X36199D01*
X35752Y62616D02*
X36106Y62970D01*
X35561Y61600D02*
X36738D01*
X35561D02*
X36738D01*
X35700Y57436D02*
Y61600D01*
X35800Y57336D02*
Y61600D01*
X35600Y57536D02*
Y61600D01*
X35398Y57737D02*
X35752Y57384D01*
X35100Y58036D02*
Y61854D01*
X35045Y61909D02*
X35208Y61746D01*
X35000Y58136D02*
Y61864D01*
X35400Y57736D02*
Y61627D01*
X35300Y57836D02*
Y61674D01*
X35500Y57636D02*
Y61604D01*
X35200Y57936D02*
Y61754D01*
X35045Y58091D02*
X35398Y57737D01*
X34936Y61800D02*
X35154D01*
X34836Y61700D02*
X35261D01*
X34691Y61556D02*
X35045Y61909D01*
X34691Y61556D02*
X35045Y61909D01*
X34736Y61600D02*
X35561D01*
X34338Y61202D02*
X34691Y61556D01*
X34338Y61202D02*
X34691Y61556D01*
X33984Y60849D02*
X34338Y61202D01*
X33984Y60849D02*
X34338Y61202D01*
X34100Y59982D02*
Y60964D01*
X34000Y60082D02*
Y60864D01*
X34200Y59882D02*
Y61064D01*
X33631Y60495D02*
X33984Y60849D01*
X33631Y60495D02*
X33984Y60849D01*
X33800Y60282D02*
Y60664D01*
X33700Y60375D02*
Y60564D01*
X33900Y60182D02*
Y60764D01*
X34800Y58336D02*
Y61664D01*
X34700Y58436D02*
Y61564D01*
X34900Y58236D02*
Y61764D01*
X34500Y59375D02*
Y61364D01*
X34600Y58536D02*
Y61464D01*
X34691Y58444D02*
X35045Y58091D01*
X34691Y58444D02*
X35045Y58091D01*
X35045Y58091D02*
X35398Y57737D01*
X34338Y58798D02*
X34691Y58444D01*
X34338Y58798D02*
X34691Y58444D01*
X34400Y59675D02*
Y61264D01*
X34500Y59167D02*
Y59375D01*
X34300Y59782D02*
Y61164D01*
X33753Y60329D02*
X34353Y59729D01*
X34400Y58736D02*
Y58867D01*
X34500Y58636D02*
Y59375D01*
X45200Y53249D02*
Y72064D01*
X45100Y53237D02*
Y71964D01*
X45000Y53212D02*
Y71864D01*
X44900Y53175D02*
Y71764D01*
X44800Y53121D02*
Y71664D01*
X44700Y53048D02*
Y71564D01*
X44600Y52948D02*
Y71464D01*
X43574Y52900D02*
X44563D01*
X44500Y52800D02*
Y71364D01*
X40387Y55700D02*
X52674D01*
X40399Y55600D02*
X52656D01*
X43800Y52751D02*
Y70664D01*
X43700Y52830D02*
Y70564D01*
X43900Y52642D02*
Y70764D01*
X43500Y52929D02*
Y70364D01*
X43400Y52957D02*
Y70264D01*
X43600Y52888D02*
Y70464D01*
X43851Y52700D02*
X44455D01*
X43930Y52600D02*
X44424D01*
X43988Y52500D02*
X44406D01*
X43300Y52972D02*
Y70164D01*
X43742Y52800D02*
X44500D01*
X44072Y52200D02*
X44424D01*
X44500Y48636D02*
Y52000D01*
X44066Y52000D02*
X44500D01*
X44075Y52100D02*
X44455D01*
X44045Y51900D02*
X44563D01*
X44750Y48800D02*
Y51713D01*
X44600Y48536D02*
Y51852D01*
X44700Y48436D02*
Y51752D01*
X44010Y51800D02*
X44648D01*
X43961Y51700D02*
X44750D01*
X44300Y48836D02*
Y71164D01*
X44200Y48936D02*
Y71064D01*
X44400Y48736D02*
Y71264D01*
X44000Y52474D02*
Y70864D01*
X44100Y49036D02*
Y70964D01*
X44029Y52400D02*
X44400D01*
X44057Y52300D02*
X44406D01*
X44000Y49136D02*
Y51775D01*
X36136Y57000D02*
X56864D01*
X36236Y56900D02*
X56764D01*
X36336Y56800D02*
X56664D01*
X35836Y57300D02*
X57164D01*
X35936Y57200D02*
X57064D01*
X36036Y57100D02*
X56964D01*
X36636Y56500D02*
X56364D01*
X39565Y56400D02*
X56264D01*
X39950Y56300D02*
X53212D01*
X36436Y56700D02*
X56564D01*
X36536Y56600D02*
X56464D01*
X40271Y56000D02*
X52813D01*
X40325Y55900D02*
X52750D01*
X40362Y55800D02*
X52705D01*
X40098Y56200D02*
X53018D01*
X40198Y56100D02*
X52898D01*
X40399Y55500D02*
X52650D01*
X40387Y55400D02*
X52656D01*
X40362Y55300D02*
X52674D01*
X40325Y55200D02*
X52705D01*
X40271Y55100D02*
X52750D01*
X39232Y54500D02*
X53768D01*
X39332Y54600D02*
X53668D01*
X39132Y54400D02*
X53868D01*
X38936Y54200D02*
X54064D01*
X39032Y54300D02*
X53968D01*
X39036Y54100D02*
X53964D01*
X39336Y53800D02*
X53664D01*
X39436Y53700D02*
X53564D01*
X39536Y53600D02*
X53464D01*
X39136Y54000D02*
X53864D01*
X39236Y53900D02*
X53764D01*
X40098Y54900D02*
X52898D01*
X40198Y55000D02*
X52813D01*
X39950Y54800D02*
X53018D01*
X39432Y54700D02*
X53213D01*
X39636Y53500D02*
X53364D01*
X39936Y53200D02*
X44962D01*
X40036Y53100D02*
X44768D01*
X40136Y53000D02*
X44648D01*
X39736Y53400D02*
X53264D01*
X39836Y53300D02*
X53164D01*
X45100Y48036D02*
Y48243D01*
X45000Y48136D02*
Y48343D01*
X45150Y47986D02*
Y48193D01*
X44896Y48446D02*
X45150Y48193D01*
X44836Y48300D02*
X45043D01*
X44936Y48200D02*
X45143D01*
X45036Y48100D02*
X45150D01*
X44944Y48191D02*
X45150Y47986D01*
X44944Y48191D02*
X45150Y47986D01*
X44591Y48545D02*
X44944Y48191D01*
X44336Y48800D02*
X44750D01*
X44436Y48700D02*
X44760D01*
X44591Y48545D02*
X44944Y48191D01*
X44736Y48400D02*
X44943D01*
X44800Y48336D02*
Y48582D01*
X44900Y48236D02*
Y48443D01*
X44536Y48600D02*
X44792D01*
X44636Y48500D02*
X44850D01*
X45181Y45600D02*
X47819D01*
X45281Y45700D02*
X47719D01*
X45081Y45500D02*
X47919D01*
X44881Y45300D02*
X48119D01*
X44981Y45400D02*
X48019D01*
X44781Y45200D02*
X48219D01*
X44925Y44900D02*
X47925D01*
X45025Y44800D02*
X47825D01*
X45125Y44700D02*
X47725D01*
X44725Y45100D02*
X48125D01*
X44825Y45000D02*
X48025D01*
X44732Y45151D02*
X46359Y46777D01*
X45100Y44725D02*
Y45518D01*
X45200Y44625D02*
Y45618D01*
X44350Y45475D02*
X46425Y43400D01*
X45000Y44825D02*
Y45418D01*
X44900Y44925D02*
Y45318D01*
X45225Y44600D02*
X47625D01*
X44379Y45504D02*
X44732Y45151D01*
X44800Y45025D02*
Y45218D01*
X43893Y51600D02*
X44750D01*
X43801Y51500D02*
X44750D01*
X43669Y51400D02*
X44750D01*
X43429Y51300D02*
X44750D01*
X43003Y51200D02*
X44750D01*
X42903Y51100D02*
X44750D01*
X42803Y51000D02*
X44750D01*
X42703Y50900D02*
X44750D01*
X42603Y50800D02*
X44750D01*
X42503Y50700D02*
X44750D01*
X42536Y50600D02*
X44750D01*
X42836Y50300D02*
X44750D01*
X42936Y50200D02*
X44750D01*
X43400Y49736D02*
Y51293D01*
X42636Y50500D02*
X44750D01*
X42736Y50400D02*
X44750D01*
X43236Y49900D02*
X44750D01*
X43336Y49800D02*
X44750D01*
X43436Y49700D02*
X44750D01*
X43036Y50100D02*
X44750D01*
X43136Y50000D02*
X44750D01*
X43836Y49300D02*
X44750D01*
X43936Y49200D02*
X44750D01*
X43884Y49252D02*
X44237Y48898D01*
X43536Y49600D02*
X44750D01*
X43636Y49500D02*
X44750D01*
X43736Y49400D02*
X44750D01*
X44236Y48900D02*
X44750D01*
X44237Y48898D02*
X44591Y48545D01*
X44237Y48898D02*
X44591Y48545D01*
X44036Y49100D02*
X44750D01*
X44136Y49000D02*
X44750D01*
X43800Y49336D02*
Y51499D01*
X43700Y49436D02*
Y51420D01*
X43900Y49236D02*
Y51608D01*
X43500Y49636D02*
Y51321D01*
X43600Y49536D02*
Y51362D01*
X43530Y49606D02*
X43884Y49252D01*
X43530Y49606D02*
X43884Y49252D01*
X43884Y49252D02*
X44237Y48898D01*
X43177Y49959D02*
X43530Y49606D01*
X43177Y49959D02*
X43530Y49606D01*
X43200Y52975D02*
Y70064D01*
X43100Y52966D02*
Y69964D01*
X43000Y52945D02*
Y69864D01*
X42900Y52910D02*
Y69764D01*
X42800Y52861D02*
Y69664D01*
X42700Y52793D02*
Y69564D01*
X40400Y55567D02*
Y67161D01*
X40300Y55950D02*
Y67164D01*
X42600Y52701D02*
Y69464D01*
X40100Y56198D02*
Y66964D01*
X40200Y56098D02*
Y67064D01*
X39900Y56325D02*
Y66764D01*
X39800Y56362D02*
Y66664D01*
X40000Y56271D02*
Y66864D01*
X39700Y56387D02*
Y66564D01*
X39600Y56399D02*
Y66464D01*
X39500Y56399D02*
Y66364D01*
X39400Y56387D02*
Y66264D01*
X39300Y56362D02*
Y66164D01*
X39200Y56325D02*
Y66064D01*
X39100Y56271D02*
Y65964D01*
X39000Y56198D02*
Y65864D01*
X42500Y52568D02*
Y66251D01*
X42400Y52329D02*
Y66083D01*
X42300Y51911D02*
Y65974D01*
X42200Y51811D02*
Y65895D01*
X42100Y51711D02*
Y65837D01*
X42000Y51611D02*
Y65796D01*
X41900Y51511D02*
Y65768D01*
X41800Y51411D02*
Y65753D01*
X41700Y51436D02*
Y65750D01*
X41500Y51636D02*
Y65780D01*
X41600Y51536D02*
Y65759D01*
X40800Y52336D02*
Y66761D01*
X40700Y52436D02*
Y66861D01*
X40900Y52236D02*
Y66396D01*
X40500Y52636D02*
Y67061D01*
X40600Y52536D02*
Y66961D01*
X41300Y51836D02*
Y65864D01*
X41200Y51936D02*
Y65932D01*
X41400Y51736D02*
Y65815D01*
X41000Y52136D02*
Y66157D01*
X41100Y52036D02*
Y66024D01*
X36900Y56236D02*
Y61559D01*
X36800Y56336D02*
Y61580D01*
X38900Y56098D02*
Y65764D01*
X36600Y56536D02*
Y61600D01*
X36500Y56636D02*
Y61600D01*
X36700Y56436D02*
Y61600D01*
X36736Y56400D02*
X39535D01*
X36459Y56677D02*
X36813Y56323D01*
X36836Y56300D02*
X39150D01*
X36106Y57030D02*
X36459Y56677D01*
X36459Y56677D02*
X36813Y56323D01*
X36300Y56836D02*
Y61600D01*
X36200Y56936D02*
Y61600D01*
X36400Y56736D02*
Y61600D01*
X36000Y57136D02*
Y61600D01*
X36100Y57036D02*
Y61600D01*
X35752Y57384D02*
X36106Y57030D01*
X35900Y57236D02*
Y61600D01*
X36106Y57030D02*
X36459Y56677D01*
X35398Y57737D02*
X35752Y57384D01*
X35752Y57384D02*
X36106Y57030D01*
X38800Y55950D02*
Y65664D01*
X38700Y55382D02*
Y65564D01*
X38600Y55282D02*
Y65464D01*
X38500Y55182D02*
Y65364D01*
X38400Y55082D02*
Y65264D01*
X38300Y54982D02*
Y65164D01*
X38100Y55036D02*
Y64964D01*
X38200Y54936D02*
Y65064D01*
X37900Y55236D02*
Y64764D01*
X38000Y55136D02*
Y64864D01*
X37700Y55436D02*
Y61883D01*
X37600Y55536D02*
Y61774D01*
X37800Y55336D02*
Y62050D01*
X37400Y55736D02*
Y61637D01*
X37500Y55636D02*
Y61695D01*
X37200Y55936D02*
Y61568D01*
X37100Y56036D02*
Y61553D01*
X37300Y55836D02*
Y61596D01*
X37000Y56136D02*
Y61550D01*
X36813Y56323D02*
X37166Y55969D01*
X40536Y52600D02*
X42520D01*
X40636Y52500D02*
X42462D01*
X40736Y52400D02*
X42421D01*
X40236Y52900D02*
X42876D01*
X40336Y52800D02*
X42708D01*
X40436Y52700D02*
X42599D01*
X41036Y52100D02*
X42375D01*
X41136Y52000D02*
X42384D01*
X41236Y51900D02*
X42289D01*
X40836Y52300D02*
X42393D01*
X40936Y52200D02*
X42378D01*
X40400Y52736D02*
Y55533D01*
X40300Y52836D02*
Y55150D01*
X40348Y52788D02*
X40702Y52434D01*
X40100Y53036D02*
Y54902D01*
X40000Y53136D02*
Y54829D01*
X40200Y52936D02*
Y55002D01*
X41336Y51800D02*
X42189D01*
X40702Y52434D02*
X41055Y52080D01*
X41436Y51700D02*
X42089D01*
X40348Y52788D02*
X40702Y52434D01*
X40702Y52434D02*
X41055Y52080D01*
X43200Y49936D02*
Y51275D01*
X43100Y50036D02*
Y51284D01*
X43300Y49836D02*
Y51278D01*
X42469Y50666D02*
X43089Y51286D01*
X42900Y50236D02*
Y51097D01*
X43000Y50136D02*
Y51197D01*
X42823Y50313D02*
X43177Y49959D01*
X42800Y50336D02*
Y50997D01*
X42823Y50313D02*
X43177Y49959D01*
X42470Y50666D02*
X42823Y50313D01*
X42470Y50666D02*
X42823Y50313D01*
X41762Y51373D02*
X42385Y51996D01*
X41409Y51727D02*
X41762Y51373D01*
X41409Y51727D02*
X41762Y51373D01*
X41055Y52080D02*
X41409Y51727D01*
X41055Y52080D02*
X41409Y51727D01*
X42600Y50536D02*
Y50797D01*
X41636Y51500D02*
X41889D01*
X42700Y50436D02*
Y50897D01*
X41536Y51600D02*
X41989D01*
X37236Y55900D02*
X38775D01*
X37336Y55800D02*
X38738D01*
X37436Y55700D02*
X38713D01*
X36936Y56200D02*
X39002D01*
X37036Y56100D02*
X38902D01*
X37136Y56000D02*
X38829D01*
X37736Y55400D02*
X38713D01*
X37836Y55300D02*
X38618D01*
X38227Y54909D02*
X38714Y55396D01*
X37536Y55600D02*
X38701D01*
X37636Y55500D02*
X38701D01*
X37520Y55616D02*
X37873Y55262D01*
X37166Y55969D02*
X37520Y55616D01*
X37520Y55616D02*
X37873Y55262D01*
X36813Y56323D02*
X37166Y55969D01*
X37166Y55969D02*
X37520Y55616D01*
X37936Y55200D02*
X38518D01*
X38036Y55100D02*
X38418D01*
X38136Y55000D02*
X38318D01*
X37873Y55262D02*
X38227Y54909D01*
X37873Y55262D02*
X38227Y54909D01*
X39800Y53336D02*
Y54738D01*
X39700Y53436D02*
Y54713D01*
X39900Y53236D02*
Y54775D01*
X39600Y53536D02*
Y54701D01*
X39288Y53848D02*
X39641Y53495D01*
X39995Y53141D02*
X40348Y52788D01*
X39641Y53495D02*
X39995Y53141D01*
X39995Y53141D02*
X40348Y52788D01*
X39288Y53848D02*
X39641Y53495D01*
X39641Y53495D02*
X39995Y53141D01*
X39400Y53736D02*
Y54668D01*
X39300Y53836D02*
Y54568D01*
X39500Y53636D02*
Y54701D01*
X38934Y54202D02*
X39439Y54707D01*
X39200Y53936D02*
Y54468D01*
X39100Y54036D02*
Y54368D01*
X39000Y54136D02*
Y54268D01*
X38934Y54202D02*
X39288Y53848D01*
X38934Y54202D02*
X39288Y53848D01*
X45250Y48800D02*
Y52400D01*
Y48800D02*
X45650Y48400D01*
X24900Y26733D02*
X45650Y47483D01*
Y48400D01*
X64040Y53420D02*
X75570D01*
X59475Y57985D02*
X64040Y53420D01*
X58908Y59260D02*
X63492Y54675D01*
X58110Y59260D02*
X58908D01*
X57050Y58200D02*
X58110Y59260D01*
X36750Y62100D02*
X37050Y62400D01*
X27061Y70600D02*
X35561Y62100D01*
X37025Y62400D02*
X37050D01*
X35561Y62100D02*
X36750D01*
X34000Y59167D02*
Y59375D01*
X31550Y59975D02*
X33400D01*
X34000Y59375D01*
X51000Y110500D02*
X53875D01*
X38150Y109700D02*
X45725D01*
X50000Y111500D02*
X51000Y110500D01*
X46850Y108575D02*
X50375D01*
X45275Y108450D02*
Y109700D01*
X45725D02*
X46850Y108575D01*
X63700Y101625D02*
X63900D01*
X51175Y103300D02*
X52400D01*
X50500Y102625D02*
X51175Y103300D01*
X50500Y101425D02*
Y102625D01*
Y101425D02*
X51675Y100250D01*
X56275D01*
X57650Y101625D01*
X58275D01*
X59675Y100225D01*
X62300D01*
X63700Y101625D01*
X60400D02*
X61400D01*
X52400Y104100D02*
X53350D01*
X59075Y102950D02*
X60400Y101625D01*
X57475Y102950D02*
X59075D01*
X56325Y101800D02*
X57475Y102950D01*
X56325Y101625D02*
Y101800D01*
X55735Y101625D02*
X56325D01*
X55275D02*
X55735D01*
X53575Y103325D02*
X55275Y101625D01*
X53575Y103325D02*
Y103875D01*
X54175Y103825D02*
Y104275D01*
Y103825D02*
X55125Y102875D01*
X56525D01*
X53350Y104100D02*
X53575Y103875D01*
X59890Y120875D02*
X61360Y119405D01*
X55735D02*
X57205Y120875D01*
X55130Y119405D02*
X55735D01*
X57205Y120875D02*
X59890D01*
X58275Y119405D02*
X59420D01*
X62620Y118125D02*
X63900Y119405D01*
X60700Y118125D02*
X62620D01*
X59420Y119405D02*
X60700Y118125D01*
X59525Y118200D02*
X60860Y116865D01*
X57650Y118200D02*
X59525D01*
X50800Y115300D02*
X52400D01*
X49725Y116375D02*
X50800Y115300D01*
X52400Y116100D02*
X53150D01*
X53850Y118125D02*
X55130Y119405D01*
X53850Y116800D02*
Y118125D01*
X53150Y116100D02*
X53850Y116800D01*
X63315Y104165D02*
X63900D01*
X52400Y104900D02*
X53550D01*
X54175Y104275D01*
X56525Y102875D02*
X57800Y104150D01*
X58260D01*
X58275Y104165D01*
X58810D01*
X60050Y102925D01*
X62075D01*
X63315Y104165D01*
X59250Y105450D02*
X60535Y104165D01*
X61360D01*
X52400Y105700D02*
X53925D01*
X57525Y105450D02*
X59250D01*
X56250Y104175D02*
X57525Y105450D01*
X55450Y104175D02*
X56250D01*
X53925Y105700D02*
X55450Y104175D01*
X63405Y106705D02*
X63900D01*
X52400Y106500D02*
X54150D01*
X55200Y105450D01*
X56525D01*
X57780Y106705D01*
X58845D01*
X60050Y105500D01*
X62200D01*
X63405Y106705D01*
X55140Y107300D02*
X55740Y106700D01*
X61340Y106725D02*
X61360Y106705D01*
X52400Y107300D02*
X55140D01*
X60250Y106725D02*
X61340D01*
X58975Y108000D02*
X60250Y106725D01*
X57600Y108000D02*
X58975D01*
X56300Y106700D02*
X57600Y108000D01*
X55740Y106700D02*
X56300D01*
X54025Y115800D02*
X54666Y116440D01*
X52400Y114500D02*
X53475D01*
X54666Y116440D02*
X55090Y116865D01*
X54025Y115050D02*
Y115800D01*
X53475Y114500D02*
X54025Y115050D01*
X55000Y115550D02*
X56425D01*
X54700Y114825D02*
Y115250D01*
X52400Y113700D02*
X53575D01*
X54700Y115250D02*
X55000Y115550D01*
X53575Y113700D02*
X54700Y114825D01*
X60860Y116865D02*
X61360D01*
X55090D02*
X56315D01*
X57650Y118200D01*
X63265Y116865D02*
X63900D01*
X62050Y115650D02*
X63265Y116865D01*
X60625Y115650D02*
X62050D01*
X59410Y116865D02*
X60625Y115650D01*
X58860Y116865D02*
X59410D01*
X57740D02*
X58860D01*
X56425Y115550D02*
X57740Y116865D01*
X60575Y114325D02*
X61360D01*
X52400Y112100D02*
X53425D01*
X53700Y112375D01*
Y112875D01*
X55150Y114325D01*
X56225D01*
X54925Y113050D02*
X56475D01*
X54350Y112475D02*
X54925Y113050D01*
X54350Y112050D02*
Y112475D01*
X56225Y114325D02*
X57550Y115650D01*
X59250D01*
X60575Y114325D01*
X63275D02*
X63900D01*
X52400Y111300D02*
X53600D01*
X62025Y113075D02*
X63275Y114325D01*
X60550Y113075D02*
X62025D01*
X59325Y114300D02*
X60550Y113075D01*
X57725Y114300D02*
X59325D01*
X56475Y113050D02*
X57725Y114300D01*
X53600Y111300D02*
X54350Y112050D01*
X60690Y111785D02*
X61360D01*
X53875Y110500D02*
X55175Y111800D01*
X56475D01*
X57775Y113100D01*
X59375D01*
X60690Y111785D01*
X62640Y110525D02*
X63900Y111785D01*
X60075Y110525D02*
X62640D01*
X58815Y111785D02*
X60075Y110525D01*
X57610Y111785D02*
X58815D01*
X56400Y110575D02*
X57610Y111785D01*
X54925Y110575D02*
X56400D01*
X57550Y110600D02*
X58775D01*
X56195Y109245D02*
X57550Y110600D01*
X54050Y109700D02*
X54925Y110575D01*
X63520Y109245D02*
X63900D01*
X52400Y108100D02*
X54650D01*
X62250Y107975D02*
X63520Y109245D01*
X60050Y107975D02*
X62250D01*
X58780Y109245D02*
X60050Y107975D01*
X57595Y109245D02*
X58780D01*
X56325Y107975D02*
X57595Y109245D01*
X54775Y107975D02*
X56325D01*
X54650Y108100D02*
X54775Y107975D01*
X60130Y109245D02*
X61360D01*
X52400Y108900D02*
X55390D01*
X58775Y110600D02*
X60130Y109245D01*
X55735D02*
X56195D01*
X55390Y108900D02*
X55735Y109245D01*
X36440Y104040D02*
X37275D01*
X33650Y102800D02*
X35200D01*
X39250Y105700D02*
X40400D01*
X35200Y102800D02*
X36440Y104040D01*
X31700Y103940D02*
X32510D01*
X40400Y104100D02*
X42000D01*
X37275Y101500D02*
X38150D01*
X31700Y101400D02*
X32200D01*
X42000Y104100D02*
X42575Y103525D01*
Y100575D02*
Y103525D01*
X42150Y100150D02*
X42575Y100575D01*
X39500Y100150D02*
X42150D01*
X38150Y101500D02*
X39500Y100150D01*
X35950Y100175D02*
X37275Y101500D01*
X38550Y103900D02*
X39550Y104900D01*
X38550Y103675D02*
Y103900D01*
X37700Y102825D02*
X38550Y103675D01*
X33425Y100175D02*
X35950D01*
X32200Y101400D02*
X33425Y100175D01*
X39550Y104900D02*
X40400D01*
X33800Y101500D02*
X34735D01*
X29160Y101400D02*
X30510Y102750D01*
X32550D01*
X33800Y101500D01*
X34735D02*
X34975D01*
X36300Y102825D01*
X37700D01*
X32510Y103940D02*
X33650Y102800D01*
X37590Y104040D02*
X39250Y105700D01*
X33635Y104040D02*
X35240D01*
X38975Y106500D02*
X40400D01*
X29160Y103940D02*
X30470Y105250D01*
X32425D01*
X33635Y104040D01*
X35240D02*
X36575Y105375D01*
X37850D01*
X38975Y106500D01*
X39325Y108100D02*
X40400D01*
X31700Y106480D02*
X32270D01*
X33425Y105325D01*
X35475D01*
X36730Y106580D01*
X37275D01*
X37805D01*
X39325Y108100D01*
X38950Y108900D02*
X40400D01*
X29160Y106480D02*
X29580D01*
X30900Y107800D01*
X32150D01*
X33370Y106580D01*
X34095D01*
X34735D01*
X35230D01*
X36525Y107875D01*
X37925D01*
X38950Y108900D01*
X31700Y109020D02*
X32255D01*
X37570Y109120D02*
X38150Y109700D01*
X36695Y109120D02*
X37570D01*
X35475Y107900D02*
X36695Y109120D01*
X33375Y107900D02*
X35475D01*
X32255Y109020D02*
X33375Y107900D01*
X29160Y109020D02*
X29745D01*
X31050Y110325D01*
X32400D01*
X33605Y109120D01*
X34735D01*
X35270D01*
X36650Y110500D01*
X50800Y116900D02*
X52400D01*
X29160Y119180D02*
X30580Y120600D01*
X32850D01*
X34225Y119225D01*
X34680D01*
X34735Y119280D01*
X35230D01*
X36650Y120700D01*
X47000D01*
X50800Y116900D01*
X41770Y119280D02*
X42000Y119050D01*
X36880Y119280D02*
X41770D01*
X40400Y116100D02*
X41600D01*
X31700Y119180D02*
X32870D01*
X34050Y118000D01*
X35600D01*
X36880Y119280D01*
X42000Y116500D02*
Y119050D01*
X41600Y116100D02*
X42000Y116500D01*
X39575Y115300D02*
X40400D01*
X29160Y116640D02*
X29615D01*
X30875Y117900D01*
X32975D01*
X34135Y116740D01*
X34735D01*
X35465D01*
X36775Y118050D01*
X38025D01*
X38525Y117550D01*
Y116350D02*
Y117550D01*
Y116350D02*
X39575Y115300D01*
X37310Y116740D02*
X39550Y114500D01*
X40400D01*
X31700Y116640D02*
X32485D01*
X33650Y115475D01*
X35525D01*
X36790Y116740D01*
X37310D01*
X36850Y115500D02*
X37675D01*
X39475Y113700D01*
X40400D01*
X34735Y114200D02*
X35550D01*
X29160Y114100D02*
X29775D01*
X31075Y115400D01*
X32250D01*
X33450Y114200D01*
X34735D01*
X35550D02*
X36850Y115500D01*
X38525Y112100D02*
X40400D01*
X29160Y111560D02*
X29685D01*
X30975Y112850D01*
X32550D01*
X33740Y111660D01*
X34735D01*
X35260D01*
X36525Y112925D01*
X37700D01*
X38525Y112100D01*
X38575Y112900D02*
X40400D01*
X37275Y114200D02*
X38575Y112900D01*
X31700Y114100D02*
X32300D01*
X33400Y113000D01*
X35475D01*
X36675Y114200D01*
X37275D01*
X37635Y111300D02*
X40400D01*
X31700Y111560D02*
X32240D01*
X33400Y110400D01*
X35500D01*
X36760Y111660D01*
X37275D01*
X37635Y111300D01*
X46250Y75241D02*
X47808Y73683D01*
X35000Y85875D02*
Y91140D01*
X47808Y73683D02*
X66975Y92849D01*
X46250Y75241D02*
Y85875D01*
X9525Y55800D02*
X15550D01*
X16850Y57100D01*
X16875Y78225D02*
X23679D01*
X36707Y65197D01*
X48900Y93650D02*
X48925Y93625D01*
Y89915D02*
X50240Y88600D01*
X48925Y89915D02*
Y93625D01*
X64603Y52150D02*
X75600D01*
X43500Y78050D02*
X43850D01*
X42620Y78930D02*
Y88600D01*
X59122Y57631D02*
X64603Y52150D01*
X42620Y78930D02*
X43500Y78050D01*
X62367Y64200D02*
X75050D01*
X40080Y80045D02*
X43150Y76975D01*
X59829Y61662D02*
X62367Y64200D01*
X43150Y76975D02*
X44525D01*
X40080Y80045D02*
Y88600D01*
X38750Y94550D02*
X38800Y94600D01*
X37540Y88600D02*
X38750Y89810D01*
Y94550D01*
X53500Y55475D02*
Y55500D01*
X84955Y38175D02*
X84960Y38180D01*
X79445D02*
X84960D01*
X70795D02*
X74970D01*
X53500Y55475D02*
X55233Y53742D01*
X70795Y38180D01*
X78200Y39425D02*
X79445Y38180D01*
X76825Y39425D02*
X78200D01*
X75580Y38180D02*
X76825Y39425D01*
X74970Y38180D02*
X75580D01*
X87225Y7700D02*
X87500D01*
X77500D02*
X78600D01*
X85850Y6325D02*
X87225Y7700D01*
X79975Y6325D02*
X85850D01*
X78600Y7700D02*
X79975Y6325D01*
X79725Y8950D02*
X85575D01*
X77500Y10240D02*
X78435D01*
X79725Y8950D01*
X79950Y7700D02*
X84960D01*
X74960D02*
X76260Y9000D01*
X78650D02*
X79950Y7700D01*
X85575Y8950D02*
X86865Y10240D01*
X76260Y9000D02*
X78650D01*
X86865Y10240D02*
X87500D01*
X79485D02*
X84960D01*
X74960D02*
X75490D01*
X78200Y11525D02*
X79485Y10240D01*
X76775Y11525D02*
X78200D01*
X75490Y10240D02*
X76775Y11525D01*
X16965Y7540D02*
X17540D01*
X7540D02*
X8135D01*
X15675Y6250D02*
X16965Y7540D01*
X9425Y6250D02*
X15675D01*
X8135Y7540D02*
X9425Y6250D01*
X9535Y7540D02*
X15000D01*
X5000D02*
X5590D01*
X8275Y8800D02*
X9535Y7540D01*
X6850Y8800D02*
X8275D01*
X5590Y7540D02*
X6850Y8800D01*
X17055Y10080D02*
X17540D01*
X7540Y10080D02*
X8145D01*
X15775Y8800D02*
X17055Y10080D01*
X9425Y8800D02*
X15775D01*
X8145Y10080D02*
X9425Y8800D01*
X9595Y10080D02*
X15000D01*
X5000Y10080D02*
X5580D01*
X8325Y11350D02*
X9595Y10080D01*
X6850Y11350D02*
X8325D01*
X5580Y10080D02*
X6850Y11350D01*
X1538Y80438D02*
Y83768D01*
X1493Y83812D02*
X1538Y83768D01*
Y75845D02*
X3867Y78175D01*
X1538Y72857D02*
Y75845D01*
Y72857D02*
X1607Y72788D01*
X1600Y99450D02*
X3025D01*
X1600D02*
Y102106D01*
X1493Y102212D02*
X1600Y102106D01*
X4090Y96350D02*
X5000Y97260D01*
X1600Y96350D02*
X4090D01*
X1600Y93381D02*
Y96350D01*
X1507Y93288D02*
X1600Y93381D01*
X6800Y98550D02*
X13100D01*
X5500Y97250D02*
X6800Y98550D01*
X5000Y97260D02*
X5010Y97250D01*
X5500D01*
X6825Y99800D02*
X13050D01*
X3025Y99450D02*
X3925Y98550D01*
X5575D01*
X6825Y99800D01*
X67655Y9255D02*
Y12600D01*
X66700Y8300D02*
X67655Y9255D01*
X53200Y7025D02*
Y8000D01*
X46700Y5250D02*
X46700Y5250D01*
X9655Y38020D02*
X15470D01*
X5000D02*
X6305Y39325D01*
X16675Y39225D02*
X23250D01*
X15470Y38020D02*
X16675Y39225D01*
X8350Y39325D02*
X9655Y38020D01*
X6305Y39325D02*
X8350D01*
X9625Y39300D02*
X15675D01*
X7540Y40560D02*
X8365D01*
X9625Y39300D01*
X7540Y55800D02*
X8300D01*
X9575Y54525D01*
X16050D01*
X17325Y55800D01*
X78300Y90900D02*
X79600Y89600D01*
X84960D01*
X76825Y90900D02*
X78300D01*
X75525Y89600D02*
X76825Y90900D01*
X86245Y24225D02*
X87500Y25480D01*
X76855Y25480D02*
X78095D01*
X79350Y24225D01*
X86245D01*
X75575Y24200D02*
X76855Y25480D01*
X71100Y28200D02*
X73675Y25625D01*
X71100Y28200D02*
Y30097D01*
X73675Y24775D02*
X74250Y24200D01*
X75575D01*
X73675Y24775D02*
Y25625D01*
X19025Y27929D02*
X41303Y50207D01*
X19025Y27600D02*
Y27929D01*
X18075Y26650D02*
X19025Y27600D01*
X16900Y26650D02*
X18075D01*
X15550Y25300D02*
X16900Y26650D01*
X8200Y26600D02*
X9500Y25300D01*
X15550D01*
X6280Y26600D02*
X8200D01*
X5000Y25320D02*
X6280Y26600D01*
X15675Y88375D02*
X16940Y89640D01*
X7540D02*
X12885D01*
X14150Y88375D02*
X15675D01*
X12885Y89640D02*
X14150Y88375D01*
X14050Y62975D02*
X16275D01*
X12785Y64240D02*
X14050Y62975D01*
X70250Y20700D02*
X74375Y16575D01*
X70250Y20700D02*
Y23825D01*
X49222Y47732D02*
X67525Y29429D01*
X69650Y20400D02*
X73110Y16940D01*
X69650Y20400D02*
Y23525D01*
X73110Y16940D02*
X74730Y15320D01*
X48869Y47378D02*
X66875Y29372D01*
X69000Y19475D02*
X74425Y14050D01*
X69000Y19475D02*
Y23300D01*
X48515Y47025D02*
X66250Y29290D01*
X65000Y25575D02*
Y29126D01*
X86220Y11500D02*
X87500Y12780D01*
X47808Y46317D02*
X65000Y29126D01*
Y25575D02*
X67775Y22800D01*
Y18825D02*
Y22800D01*
Y18825D02*
X73650Y12950D01*
Y12275D02*
Y12950D01*
Y12275D02*
X74425Y11500D01*
X75650D01*
X76930Y12780D01*
X78095D01*
X79375Y11500D01*
X86220D01*
X68400Y19125D02*
Y23025D01*
X84955Y12775D02*
X84960Y12780D01*
X48162Y46671D02*
X65625Y29208D01*
X79425Y12775D02*
X84955D01*
X78150Y14050D02*
X79425Y12775D01*
X76840Y14050D02*
X78150D01*
X75570Y12780D02*
X76840Y14050D01*
X74960Y12780D02*
X75570D01*
X74745D02*
X74960D01*
X68400Y19125D02*
X74745Y12780D01*
X65625Y25800D02*
X68400Y23025D01*
X65625Y25800D02*
Y29208D01*
X66250Y26050D02*
Y29290D01*
X86230Y14050D02*
X87500Y15320D01*
X66250Y26050D02*
X69000Y23300D01*
X74425Y14050D02*
X75600D01*
X76850Y15300D01*
X78050D01*
X79300Y14050D01*
X86230D01*
X79455Y15320D02*
X84960D01*
X78175Y16600D02*
X79455Y15320D01*
X76850Y16600D02*
X78175D01*
X75570Y15320D02*
X76850Y16600D01*
X74960Y15320D02*
X75570D01*
X74730D02*
X74960D01*
X66875Y26300D02*
X69650Y23525D01*
X66875Y26300D02*
Y29372D01*
X86240Y16600D02*
X87500Y17860D01*
X67525Y26550D02*
Y29429D01*
Y26550D02*
X70250Y23825D01*
X74375Y16575D02*
X75650D01*
X76935Y17860D01*
X78090D01*
X79350Y16600D01*
X86240D01*
X79515Y17860D02*
X84960D01*
X49576Y48085D02*
X68125Y29536D01*
X78250Y19125D02*
X79515Y17860D01*
X76825Y19125D02*
X78250D01*
X75560Y17860D02*
X76825Y19125D01*
X74640Y17860D02*
X75560D01*
X70875Y21625D02*
X74640Y17860D01*
X70875Y21625D02*
Y24100D01*
X68125Y26850D02*
X70875Y24100D01*
X68125Y26850D02*
Y29536D01*
X50990Y49499D02*
X70525Y29965D01*
X68725Y27075D02*
Y29643D01*
X86250Y19150D02*
X87500Y20400D01*
X49929Y48439D02*
X68725Y29643D01*
Y27075D02*
X71425Y24375D01*
Y22075D02*
Y24375D01*
Y22075D02*
X74375Y19125D01*
X75625D01*
X76900Y20400D01*
X78125D01*
X79375Y19150D01*
X86250D01*
X74450Y20400D02*
X75525D01*
X79500D02*
X84960D01*
X78200Y21700D02*
X79500Y20400D01*
X76825Y21700D02*
X78200D01*
X75525Y20400D02*
X76825Y21700D01*
X71975Y22875D02*
X74450Y20400D01*
X50283Y48792D02*
X69350Y29725D01*
X71975Y22875D02*
Y24750D01*
X69350Y27375D02*
X71975Y24750D01*
X69350Y27375D02*
Y29725D01*
X86260Y21700D02*
X87500Y22940D01*
X50637Y49146D02*
X69925Y29857D01*
Y27625D02*
Y29857D01*
Y27625D02*
X72550Y25000D01*
Y23200D02*
Y25000D01*
Y23200D02*
X74050Y21700D01*
X75675D01*
X76900Y22925D01*
X76915Y22940D01*
X78110D01*
X79350Y21700D01*
X86260D01*
X84945Y22925D02*
X84960Y22940D01*
X74135D02*
X74960D01*
X79425Y22925D02*
X84945D01*
X78125Y24225D02*
X79425Y22925D01*
X76850Y24225D02*
X78125D01*
X75565Y22940D02*
X76850Y24225D01*
X74960Y22940D02*
X75565D01*
X73125Y23950D02*
X74135Y22940D01*
X73125Y23950D02*
Y25300D01*
X70525Y27900D02*
X73125Y25300D01*
X70525Y27900D02*
Y29965D01*
X79545Y25480D02*
X84960D01*
X51697Y50207D02*
X71700Y30204D01*
X78250Y26775D02*
X79545Y25480D01*
X76825Y26775D02*
X78250D01*
X75530Y25480D02*
X76825Y26775D01*
X74960Y25480D02*
X75530D01*
X74720D02*
X74960D01*
X71700Y28500D02*
X74720Y25480D01*
X71700Y28500D02*
Y30204D01*
X86280Y26800D02*
X87500Y28020D01*
X52051Y50560D02*
X72275Y30336D01*
Y28825D02*
Y30336D01*
Y28825D02*
X74325Y26775D01*
X75625D01*
X76850Y28000D01*
X78100D01*
X79300Y26800D01*
X86280D01*
X79430Y28020D02*
X84960D01*
X52404Y50914D02*
X72850Y30468D01*
X78150Y29300D02*
X79430Y28020D01*
X76875Y29300D02*
X78150D01*
X75600Y28025D02*
X76875Y29300D01*
X74375Y28025D02*
X75600D01*
X72850Y29550D02*
X74375Y28025D01*
X72850Y29550D02*
Y30468D01*
X73375Y30125D02*
Y30650D01*
X86240Y29300D02*
X87500Y30560D01*
X52758Y51267D02*
X73375Y30650D01*
Y30125D02*
X74225Y29275D01*
X75625D01*
X76900Y30550D01*
X78125D01*
X79375Y29300D01*
X86240D01*
X74172Y30560D02*
X75510D01*
X79440D02*
X84960D01*
X53111Y51621D02*
X74172Y30560D01*
X78150Y31850D02*
X79440Y30560D01*
X76800Y31850D02*
X78150D01*
X75510Y30560D02*
X76800Y31850D01*
X86225Y31825D02*
X87500Y33100D01*
X53465Y51974D02*
X73589Y31850D01*
X75650D01*
X76900Y33100D01*
X78100D01*
X79375Y31825D01*
X86225D01*
X79475Y33100D02*
X84960D01*
X73046D02*
X74960D01*
X53819Y52328D02*
X73046Y33100D01*
X78200Y34375D02*
X79475Y33100D01*
X76825Y34375D02*
X78200D01*
X75550Y33100D02*
X76825Y34375D01*
X74960Y33100D02*
X75550D01*
X86260Y34400D02*
X87500Y35640D01*
X54172Y52681D02*
X72454Y34400D01*
X75700D01*
X76950Y35650D01*
X78075D01*
X79325Y34400D01*
X86260D01*
X71921Y35640D02*
X75465D01*
X79435D02*
X84960D01*
X54526Y53035D02*
X71921Y35640D01*
X78150Y36925D02*
X79435Y35640D01*
X76750Y36925D02*
X78150D01*
X75465Y35640D02*
X76750Y36925D01*
X86270Y36950D02*
X87500Y38180D01*
X54879Y53389D02*
X71343Y36925D01*
X75650D01*
X76900Y38175D01*
X78100D01*
X79325Y36950D01*
X86270D01*
X86255Y39475D02*
X87500Y40720D01*
X55586Y54096D02*
X70232Y39450D01*
X75600D01*
X76870Y40720D01*
X78080D01*
X79325Y39475D01*
X86255D01*
X69669Y40720D02*
X75495D01*
X79430D02*
X84960D01*
X55940Y54449D02*
X69669Y40720D01*
X78150Y42000D02*
X79430Y40720D01*
X76775Y42000D02*
X78150D01*
X75495Y40720D02*
X76775Y42000D01*
X86215Y41975D02*
X87500Y43260D01*
X56293Y54803D02*
X69096Y42000D01*
X75675D01*
X76925Y43250D01*
X78100D01*
X79375Y41975D01*
X86215D01*
X68543Y43260D02*
X75385D01*
X79590D02*
X84960D01*
X56647Y55156D02*
X68543Y43260D01*
X78275Y44575D02*
X79590Y43260D01*
X76700Y44575D02*
X78275D01*
X75385Y43260D02*
X76700Y44575D01*
X86225Y44525D02*
X87500Y45800D01*
X57001Y55510D02*
X67985Y44525D01*
X79400D02*
X86225D01*
X78100Y45825D02*
X79400Y44525D01*
X76850Y45825D02*
X78100D01*
X75550Y44525D02*
X76850Y45825D01*
X67985Y44525D02*
X75550D01*
X22875Y101175D02*
X26425Y97625D01*
Y92449D02*
X45192Y73683D01*
X26425Y92449D02*
Y97625D01*
X25775Y92392D02*
Y97325D01*
Y92392D02*
X44838Y73329D01*
X22275Y100825D02*
X25775Y97325D01*
X25175Y92285D02*
Y97075D01*
Y92285D02*
X44485Y72975D01*
X5000Y107420D02*
X6330Y108750D01*
X22875Y101175D02*
Y102575D01*
X20075Y105375D02*
X22875Y102575D01*
X20075Y105375D02*
Y106475D01*
X17850Y108700D02*
X20075Y106475D01*
X16825Y108700D02*
X17850D01*
X15545Y107420D02*
X16825Y108700D01*
X15000Y107420D02*
X15545D01*
X14405D02*
X15000D01*
X13075Y108750D02*
X14405Y107420D01*
X6330Y108750D02*
X13075D01*
X7540Y107420D02*
X7545Y107425D01*
X12850D01*
X14100Y106175D01*
X15725D01*
X16970Y107420D01*
X17540D01*
X17930D01*
X19425Y105925D01*
Y105100D02*
Y105925D01*
Y105100D02*
X22275Y102250D01*
Y100825D02*
Y102250D01*
X5000Y104880D02*
X6295Y106175D01*
X21625Y100625D02*
X25175Y97075D01*
X21625Y100625D02*
Y101975D01*
X18850Y104750D02*
X21625Y101975D01*
X18850Y104750D02*
Y105475D01*
X18150Y106175D02*
X18850Y105475D01*
X16875Y106175D02*
X18150D01*
X15575Y104875D02*
X16875Y106175D01*
X15005Y104875D02*
X15575D01*
X15000Y104880D02*
X15005Y104875D01*
X14295Y104880D02*
X15000D01*
X13000Y106175D02*
X14295Y104880D01*
X6295Y106175D02*
X13000D01*
X24525Y92228D02*
Y96775D01*
Y92228D02*
X44131Y72622D01*
X7540Y104880D02*
X12870D01*
X14125Y103625D01*
X15675D01*
X16930Y104880D01*
X17540D01*
X17745D01*
X21025Y101600D01*
Y100275D02*
Y101600D01*
Y100275D02*
X24525Y96775D01*
X6285Y103625D02*
X13050D01*
X23900Y92146D02*
X43778Y72268D01*
X5000Y102340D02*
X6285Y103625D01*
X23900Y92146D02*
Y96525D01*
X20450Y99975D02*
X23900Y96525D01*
X20450Y99975D02*
Y101300D01*
X18100Y103650D02*
X20450Y101300D01*
X16875Y103650D02*
X18100D01*
X15565Y102340D02*
X16875Y103650D01*
X14335Y102340D02*
X15565D01*
X13050Y103625D02*
X14335Y102340D01*
X23275Y92064D02*
X43424Y71915D01*
X7540Y102340D02*
X7550Y102350D01*
X12900D01*
X14175Y101075D01*
X15725D01*
X16990Y102340D01*
X17540D01*
X17760D01*
X19800Y100300D01*
Y99675D02*
Y100300D01*
Y99675D02*
X23275Y96200D01*
Y92064D02*
Y96200D01*
X22675Y91957D02*
X43071Y71561D01*
X5000Y99800D02*
X6300Y101100D01*
X22675Y91957D02*
Y95900D01*
X19200Y99375D02*
X22675Y95900D01*
X19200Y99375D02*
Y99925D01*
X18050Y101075D02*
X19200Y99925D01*
X16875Y101075D02*
X18050D01*
X15575Y99775D02*
X16875Y101075D01*
X14425Y99775D02*
X15575D01*
X13100Y101100D02*
X14425Y99775D01*
X6300Y101100D02*
X13100D01*
X22050Y91875D02*
X42717Y71208D01*
X13050Y99800D02*
X14325Y98525D01*
X15675D01*
X16950Y99800D01*
X17800D01*
X22050Y95550D01*
Y91875D02*
Y95550D01*
X21425Y91793D02*
X42363Y70854D01*
X21425Y91793D02*
Y95200D01*
X18100Y98525D02*
X21425Y95200D01*
X16875Y98525D02*
X18100D01*
X15600Y97250D02*
X16875Y98525D01*
X14400Y97250D02*
X15600D01*
X13100Y98550D02*
X14400Y97250D01*
X20750Y91760D02*
X42010Y70501D01*
X7540Y97260D02*
X12965D01*
X14200Y96025D01*
X15700D01*
X16935Y97260D01*
X18165D01*
X20750Y94675D01*
Y91760D02*
Y94675D01*
X20100Y91703D02*
X41656Y70147D01*
X5000Y94720D02*
X6305Y96025D01*
X20100Y91703D02*
Y94475D01*
X18550Y96025D02*
X20100Y94475D01*
X16875Y96025D02*
X18550D01*
X15600Y94750D02*
X16875Y96025D01*
X15570Y94720D02*
X15600Y94750D01*
X14380Y94720D02*
X15570D01*
X13075Y96025D02*
X14380Y94720D01*
X6305Y96025D02*
X13075D01*
X19500Y91596D02*
X41303Y69793D01*
X7540Y94720D02*
X13030D01*
X14275Y93475D01*
X15675D01*
X16920Y94720D01*
X18105D01*
X19500Y93325D01*
Y91596D02*
Y93325D01*
X18900Y91489D02*
X40949Y69440D01*
X5000Y92180D02*
X6295Y93475D01*
X18900Y91489D02*
Y92975D01*
X18400Y93475D02*
X18900Y92975D01*
X16925Y93475D02*
X18400D01*
X15600Y92150D02*
X16925Y93475D01*
X14325Y92150D02*
X15600D01*
X13000Y93475D02*
X14325Y92150D01*
X6295Y93475D02*
X13000D01*
X17540Y92142D02*
X40596Y69086D01*
X7540Y92180D02*
X13020D01*
X14300Y90900D01*
X15625D01*
X16867Y92142D01*
X17540D01*
X18050Y90925D02*
X40242Y68733D01*
X5000Y89640D02*
X6285Y90925D01*
X16875D02*
X18050D01*
X15575Y89625D02*
X16875Y90925D01*
X14375Y89625D02*
X15575D01*
X13075Y90925D02*
X14375Y89625D01*
X6285Y90925D02*
X13075D01*
X19186Y88375D02*
X39535Y68026D01*
X5000Y87100D02*
X6300Y88400D01*
X16850Y88375D02*
X19186D01*
X15575Y87100D02*
X16850Y88375D01*
X14325Y87100D02*
X15575D01*
X13025Y88400D02*
X14325Y87100D01*
X6300Y88400D02*
X13025D01*
X16975Y87100D02*
X19754D01*
X39181Y67672D01*
X7540Y87100D02*
X13000D01*
X14250Y85850D01*
X15725D01*
X16975Y87100D01*
X20296Y85850D02*
X38828Y67319D01*
X5000Y84560D02*
X6290Y85850D01*
X16900D02*
X20296D01*
X15575Y84525D02*
X16900Y85850D01*
X14425Y84525D02*
X15575D01*
X13100Y85850D02*
X14425Y84525D01*
X6290Y85850D02*
X13100D01*
X16960Y84560D02*
X20879D01*
X38474Y66965D01*
X7540Y84560D02*
X13015D01*
X14250Y83325D01*
X15725D01*
X16960Y84560D01*
X21432Y83300D02*
X38121Y66611D01*
X5000Y82020D02*
X6305Y83325D01*
X16825Y83300D02*
X21432D01*
X15550Y82025D02*
X16825Y83300D01*
X14375Y82025D02*
X15550D01*
X13075Y83325D02*
X14375Y82025D01*
X6305Y83325D02*
X13075D01*
X12905Y82020D02*
X14150Y80775D01*
X7540Y82020D02*
X12905D01*
X16970D02*
X22005D01*
X37767Y66258D01*
X14150Y80775D02*
X15725D01*
X16970Y82020D01*
X22568Y80750D02*
X37414Y65904D01*
X16850Y80750D02*
X22568D01*
X15600Y79500D02*
X16850Y80750D01*
X14250Y79500D02*
X15600D01*
X12975Y80775D02*
X14250Y79500D01*
X6295Y80775D02*
X12975D01*
X16955Y79480D02*
X23131D01*
X37060Y65551D01*
X13025Y79475D02*
X14275Y78225D01*
X15700D01*
X16955Y79480D01*
X15600Y76950D02*
X16875Y78225D01*
X14375Y76950D02*
X15600D01*
X13125Y78200D02*
X14375Y76950D01*
X16965Y76940D02*
X24257D01*
X36353Y64844D01*
X7540Y76940D02*
X7550Y76950D01*
X13075D01*
X14325Y75700D01*
X15725D01*
X16965Y76940D01*
X24840Y75650D02*
X35999Y64490D01*
X5000Y74400D02*
X6300Y75700D01*
X16825Y75650D02*
X24840D01*
X15600Y74425D02*
X16825Y75650D01*
X14350Y74425D02*
X15600D01*
X13075Y75700D02*
X14350Y74425D01*
X6300Y75700D02*
X13075D01*
X17540Y74400D02*
X25382D01*
X35646Y64137D01*
X7540Y74400D02*
X12975D01*
X14225Y73150D01*
X15675D01*
X16925Y74400D01*
X17540D01*
X25975Y73100D02*
X35292Y63783D01*
X5000Y71860D02*
X6290Y73150D01*
X16850Y73100D02*
X25975D01*
X15625Y71875D02*
X16850Y73100D01*
X14325Y71875D02*
X15625D01*
X13050Y73150D02*
X14325Y71875D01*
X6290Y73150D02*
X13050D01*
X17540Y71860D02*
X26508D01*
X34939Y63429D01*
X7540Y71860D02*
X7555Y71875D01*
X12875D01*
X14150Y70600D01*
X15700D01*
X16960Y71860D01*
X17540D01*
X16400Y12100D02*
X16920Y12620D01*
X15675Y11375D02*
X16400Y12100D01*
X9425Y11375D02*
X15675D01*
X8180Y12620D02*
X9425Y11375D01*
X25500Y26626D02*
X45192Y46317D01*
X7540Y12620D02*
X8180D01*
X16920Y12620D02*
X17920D01*
X21825Y16525D01*
Y19325D01*
X25500Y23000D01*
Y26626D01*
X24900Y23225D02*
Y26733D01*
X18400Y13850D02*
X21225Y16675D01*
X9555Y12620D02*
X15000D01*
X5000Y12620D02*
X6305Y13925D01*
X21225Y19550D02*
X24900Y23225D01*
X21225Y16675D02*
Y19550D01*
X16810Y13850D02*
X18400D01*
X15580Y12620D02*
X16810Y13850D01*
X15000Y12620D02*
X15580D01*
X8250Y13925D02*
X9555Y12620D01*
X6305Y13925D02*
X8250D01*
X9400Y13875D02*
X15700D01*
X24350Y26890D02*
X44485Y47025D01*
X16985Y15160D02*
X17540D01*
X15700Y13875D02*
X16985Y15160D01*
X16875Y17700D02*
X17675D01*
X9400Y16425D02*
X15600D01*
X23125Y27079D02*
X43778Y47732D01*
X15600Y16425D02*
X16875Y17700D01*
X7540Y15160D02*
X8115D01*
X9400Y13875D01*
X17810Y15160D02*
X20600Y17950D01*
Y19775D01*
X24350Y23525D01*
Y26890D01*
X23725Y26972D02*
X44131Y47378D01*
X9490Y15160D02*
X15000D01*
X5000D02*
X6290Y16450D01*
X23725Y23675D02*
Y26972D01*
X19975Y19925D02*
X23725Y23675D01*
X19975Y18275D02*
Y19925D01*
X18150Y16450D02*
X19975Y18275D01*
X16800Y16450D02*
X18150D01*
X15510Y15160D02*
X16800Y16450D01*
X15000Y15160D02*
X15510D01*
X8200Y16450D02*
X9490Y15160D01*
X6290Y16450D02*
X8200D01*
X23125Y23925D02*
Y27079D01*
X8125Y17700D02*
X9400Y16425D01*
X19400Y20200D02*
X23125Y23925D01*
X19400Y19425D02*
Y20200D01*
X17675Y17700D02*
X19400Y19425D01*
X7540Y17700D02*
X8125D01*
X17040Y20240D02*
X17690D01*
X9400Y18975D02*
X15775D01*
X21900Y27268D02*
X43071Y48439D01*
X15775Y18975D02*
X17040Y20240D01*
X9450Y17700D02*
X15650D01*
X22525Y27186D02*
X43424Y48085D01*
X5000Y17700D02*
X6300Y19000D01*
X8150D01*
X9450Y17700D01*
X15650D02*
X16950Y19000D01*
X18125D01*
X18825Y19700D01*
Y20425D01*
X22525Y24125D01*
Y27186D01*
X7540Y20240D02*
X7555Y20225D01*
X21900Y24450D02*
Y27268D01*
X17690Y20240D02*
X21900Y24450D01*
X8150Y20225D02*
X9400Y18975D01*
X7555Y20225D02*
X8150D01*
X9510Y20240D02*
X15590D01*
X6310Y21550D02*
X8200D01*
X21300Y27375D02*
X42717Y48792D01*
X5000Y20240D02*
X6310Y21550D01*
X8200D02*
X9510Y20240D01*
X15590D02*
X16900Y21550D01*
X18125D01*
X21300Y24725D01*
Y27375D01*
X20725Y27507D02*
X42363Y49146D01*
X7540Y22780D02*
X8095D01*
X20725Y25875D02*
Y27507D01*
X17630Y22780D02*
X20725Y25875D01*
X17030Y22780D02*
X17630D01*
X15775Y21525D02*
X17030Y22780D01*
X9350Y21525D02*
X15775D01*
X8095Y22780D02*
X9350Y21525D01*
X9400Y24050D02*
X15675D01*
X19600Y27797D02*
X41656Y49853D01*
X16945Y25320D02*
X17540D01*
X17545Y25325D01*
X15675Y24050D02*
X16945Y25320D01*
X9550Y22800D02*
X15600D01*
X20150Y27640D02*
X42010Y49499D01*
X5000Y22780D02*
X6295Y24075D01*
X8275D01*
X9550Y22800D01*
X15600D02*
X16875Y24075D01*
X18075D01*
X20150Y26150D01*
Y27640D01*
X7540Y25320D02*
X8130D01*
X19600Y27400D02*
Y27797D01*
X17545Y25345D02*
X19600Y27400D01*
X17545Y25325D02*
Y25345D01*
X8130Y25320D02*
X9400Y24050D01*
X9425Y26600D02*
X15675D01*
X7540Y27860D02*
X8165D01*
X9425Y26600D01*
X18239Y27850D02*
X40949Y50560D01*
X16925Y27850D02*
X18239D01*
X15675Y26600D02*
X16925Y27850D01*
X15775Y29175D02*
X17000Y30400D01*
X9300Y29175D02*
X15775D01*
X19400Y30425D02*
X40242Y51267D01*
X17000Y30400D02*
X17540D01*
X17565Y30425D01*
X9415Y27860D02*
X15585D01*
X18832Y29150D02*
X40596Y50914D01*
X5000Y27860D02*
X6315Y29175D01*
X8100D01*
X9415Y27860D01*
X15585D02*
X16875Y29150D01*
X18832D01*
X7540Y30400D02*
X8075D01*
X17565Y30425D02*
X19400D01*
X8075Y30400D02*
X9300Y29175D01*
X16965Y32940D02*
X20501D01*
X9425Y31650D02*
X15675D01*
X20501Y32940D02*
X39535Y51974D01*
X15675Y31650D02*
X16965Y32940D01*
X9300Y30425D02*
X15650D01*
X19968Y31700D02*
X39889Y51621D01*
X5000Y30400D02*
X6300Y31700D01*
X8025D01*
X9300Y30425D01*
X15650D02*
X16925Y31700D01*
X19968D01*
X7540Y32940D02*
X8135D01*
X9425Y31650D01*
X9425Y32975D02*
X15650D01*
X21079Y34225D02*
X39181Y52328D01*
X5000Y32940D02*
X6285Y34225D01*
X8175D01*
X9425Y32975D01*
X15650D02*
X16900Y34225D01*
X21079D01*
X21621Y35475D02*
X38828Y52681D01*
X7540Y35480D02*
X8120D01*
X18125Y35475D02*
X21621D01*
X17000D02*
X18125D01*
X15725Y34200D02*
X17000Y35475D01*
X9400Y34200D02*
X15725D01*
X8120Y35480D02*
X9400Y34200D01*
X9475Y35475D02*
X15600D01*
X22214Y36775D02*
X38474Y53035D01*
X5000Y35480D02*
X6295Y36775D01*
X8175D01*
X9475Y35475D01*
X15600D02*
X16900Y36775D01*
X22214D01*
X16895Y38020D02*
X22752D01*
X38121Y53389D01*
X7540Y38020D02*
X8130D01*
X9375Y36775D01*
X15650D01*
X16895Y38020D01*
X5075Y55800D02*
X6350Y57075D01*
X8250D02*
X9525Y55800D01*
X6350Y57075D02*
X8250D01*
X16935Y40560D02*
X23878D01*
X37414Y54096D01*
X15675Y39300D02*
X16935Y40560D01*
X9565Y40560D02*
X15535D01*
X24436Y41825D02*
X37060Y54449D01*
X5000Y40560D02*
X6290Y41850D01*
X16800Y41825D02*
X24436D01*
X15535Y40560D02*
X16800Y41825D01*
X8275Y41850D02*
X9565Y40560D01*
X6290Y41850D02*
X8275D01*
X17000Y43100D02*
X25004D01*
X36707Y54803D01*
X7540Y43100D02*
X8125D01*
X9375Y41850D01*
X15750D01*
X17000Y43100D01*
X25572Y44375D02*
X36353Y55156D01*
X9525Y43100D02*
X15000D01*
X5000D02*
X6300Y44400D01*
X16825Y44375D02*
X25572D01*
X15550Y43100D02*
X16825Y44375D01*
X15000Y43100D02*
X15550D01*
X8225Y44400D02*
X9525Y43100D01*
X6300Y44400D02*
X8225D01*
X26130Y45640D02*
X35999Y55510D01*
X17540Y45640D02*
X26130D01*
X7540Y45640D02*
X8135D01*
X9375Y44400D01*
X15670D01*
X16910Y45640D01*
X17540D01*
X79445Y107380D02*
X84960D01*
X78175Y108650D02*
X79445Y107380D01*
X76775Y108650D02*
X78175D01*
X75525Y107400D02*
X76775Y108650D01*
X74980Y107400D02*
X75525D01*
X74960Y107380D02*
X74980Y107400D01*
X74855Y107380D02*
X74960D01*
X71900Y104425D02*
X74855Y107380D01*
X71900Y103175D02*
Y104425D01*
X66975Y98250D02*
X71900Y103175D01*
X66975Y92849D02*
Y98250D01*
X67600Y92767D02*
Y97975D01*
X86245Y106125D02*
X87500Y107380D01*
X48162Y73329D02*
X67600Y92767D01*
Y97975D02*
X72500Y102875D01*
Y104175D01*
X74450Y106125D01*
X75600D01*
X76850Y107375D01*
X78150D01*
X79400Y106125D01*
X86245D01*
X79475Y104850D02*
X84950D01*
X48515Y72975D02*
X68200Y92660D01*
X78175Y106150D02*
X79475Y104850D01*
X76850Y106150D02*
X78175D01*
X75540Y104840D02*
X76850Y106150D01*
X74665Y104840D02*
X75540D01*
X73125Y103300D02*
X74665Y104840D01*
X73125Y102600D02*
Y103300D01*
X68200Y97675D02*
X73125Y102600D01*
X68200Y92660D02*
Y97675D01*
X86235Y103575D02*
X87500Y104840D01*
X48869Y72622D02*
X68775Y92528D01*
Y97275D01*
X73700Y102200D01*
Y102950D01*
X74300Y103550D01*
X75575D01*
X76875Y104850D01*
X78100D01*
X79375Y103575D01*
X86235D01*
X79475Y102300D02*
X84960D01*
X49222Y72268D02*
X69375Y92421D01*
X78200Y103575D02*
X79475Y102300D01*
X76825Y103575D02*
X78200D01*
X75550Y102300D02*
X76825Y103575D01*
X74700Y102300D02*
X75550D01*
X69375Y96975D02*
X74700Y102300D01*
X69375Y92421D02*
Y96975D01*
X86250Y101050D02*
X87500Y102300D01*
X49576Y71915D02*
X69925Y92264D01*
Y96525D01*
X74450Y101050D01*
X75650D01*
X76900Y102300D01*
X78075D01*
X79325Y101050D01*
X86250D01*
X79465Y99760D02*
X84960D01*
X49929Y71561D02*
X70525Y92157D01*
X78200Y101025D02*
X79465Y99760D01*
X76825Y101025D02*
X78200D01*
X75575Y99775D02*
X76825Y101025D01*
X74975Y99775D02*
X75575D01*
X74960Y99760D02*
X74975Y99775D01*
X74585Y99760D02*
X74960D01*
X70525Y95700D02*
X74585Y99760D01*
X70525Y92157D02*
Y95700D01*
X71150Y92075D02*
Y95375D01*
X86240Y98500D02*
X87500Y99760D01*
X50283Y71208D02*
X71150Y92075D01*
Y95375D02*
X74275Y98500D01*
X75650D01*
X76900Y99750D01*
X78050D01*
X79300Y98500D01*
X86240D01*
X79380Y97220D02*
X84960D01*
X50637Y70854D02*
X71750Y91968D01*
X78125Y98475D02*
X79380Y97220D01*
X76775Y98475D02*
X78125D01*
X75520Y97220D02*
X76775Y98475D01*
X74960Y97220D02*
X75520D01*
X74570D02*
X74960D01*
X71750Y94400D02*
X74570Y97220D01*
X71750Y91968D02*
Y94400D01*
X86255Y95975D02*
X87500Y97220D01*
X50990Y70501D02*
X72350Y91860D01*
Y94000D01*
X74325Y95975D01*
X75650D01*
X76900Y97225D01*
X78075D01*
X79325Y95975D01*
X86255D01*
X79445Y94680D02*
X84960D01*
X51344Y70147D02*
X72975Y91778D01*
X78175Y95950D02*
X79445Y94680D01*
X76800Y95950D02*
X78175D01*
X75530Y94680D02*
X76800Y95950D01*
X74330Y94680D02*
X75530D01*
X72975Y93325D02*
X74330Y94680D01*
X72975Y91778D02*
Y93325D01*
X86245Y93425D02*
X87500Y94680D01*
X51697Y69793D02*
X73575Y91671D01*
Y92900D01*
X74075Y93400D01*
X75625D01*
X76900Y94675D01*
X78100D01*
X79350Y93425D01*
X86245D01*
X79485Y92140D02*
X84960D01*
X52051Y69440D02*
X74751Y92140D01*
X78200Y93425D02*
X79485Y92140D01*
X76850Y93425D02*
X78200D01*
X75565Y92140D02*
X76850Y93425D01*
X74751Y92140D02*
X75565D01*
X86235Y90875D02*
X87500Y92140D01*
X52404Y69086D02*
X74193Y90875D01*
X79425D02*
X86235D01*
X78150Y92150D02*
X79425Y90875D01*
X76900Y92150D02*
X78150D01*
X75625Y90875D02*
X76900Y92150D01*
X74193Y90875D02*
X75625D01*
X86225Y88325D02*
X87500Y89600D01*
X53111Y68379D02*
X73082Y88350D01*
X79400Y88325D02*
X86225D01*
X78125Y89600D02*
X79400Y88325D01*
X76900Y89600D02*
X78125D01*
X75650Y88350D02*
X76900Y89600D01*
X73082Y88350D02*
X75650D01*
X72499Y87060D02*
X75560D01*
X79340D02*
X84960D01*
X53465Y68026D02*
X72499Y87060D01*
X78075Y88325D02*
X79340Y87060D01*
X76825Y88325D02*
X78075D01*
X75560Y87060D02*
X76825Y88325D01*
X76960Y87060D02*
X78115D01*
X86240Y85800D02*
X87500Y87060D01*
X79375Y85800D02*
X86240D01*
X78115Y87060D02*
X79375Y85800D01*
X53819Y67672D02*
X71921Y85775D01*
X75675D02*
X76960Y87060D01*
X71921Y85775D02*
X75675D01*
X71374Y84520D02*
X75495D01*
X79330D02*
X84960D01*
X54172Y67319D02*
X71374Y84520D01*
X78050Y85800D02*
X79330Y84520D01*
X76775Y85800D02*
X78050D01*
X75495Y84520D02*
X76775Y85800D01*
X86230Y83250D02*
X87500Y84520D01*
X54526Y66965D02*
X70811Y83250D01*
X79350D02*
X86230D01*
X78080Y84520D02*
X79350Y83250D01*
X76920Y84520D02*
X78080D01*
X75650Y83250D02*
X76920Y84520D01*
X70811Y83250D02*
X75650D01*
X70248Y81980D02*
X75555D01*
X79420D02*
X84960D01*
X54879Y66611D02*
X70248Y81980D01*
X78150Y83250D02*
X79420Y81980D01*
X76825Y83250D02*
X78150D01*
X75555Y81980D02*
X76825Y83250D01*
X86220Y80700D02*
X87500Y81980D01*
X55233Y66258D02*
X69650Y80675D01*
X79400Y80700D02*
X86220D01*
X78100Y82000D02*
X79400Y80700D01*
X77000Y82000D02*
X78100D01*
X75675Y80675D02*
X77000Y82000D01*
X69650Y80675D02*
X75675D01*
X69122Y79440D02*
X75590D01*
X79410D02*
X84960D01*
X55586Y65904D02*
X69122Y79440D01*
X78125Y80725D02*
X79410Y79440D01*
X76875Y80725D02*
X78125D01*
X75590Y79440D02*
X76875Y80725D01*
X86260Y78200D02*
X87500Y79440D01*
X55940Y65551D02*
X68564Y78175D01*
X79325Y78200D02*
X86260D01*
X78085Y79440D02*
X79325Y78200D01*
X76940Y79440D02*
X78085D01*
X75675Y78175D02*
X76940Y79440D01*
X68564Y78175D02*
X75675D01*
X79300Y76900D02*
X84960D01*
X78025Y78175D02*
X79300Y76900D01*
X76825Y78175D02*
X78025D01*
X75550Y76900D02*
X76825Y78175D01*
X86250Y75650D02*
X87500Y76900D01*
X56647Y64844D02*
X67403Y75600D01*
X79375Y75650D02*
X86250D01*
X78125Y76900D02*
X79375Y75650D01*
X76900Y76900D02*
X78125D01*
X75600Y75600D02*
X76900Y76900D01*
X67403Y75600D02*
X75600D01*
X79415Y74360D02*
X84960D01*
X66870D02*
X74960D01*
X57001Y64490D02*
X66870Y74360D01*
X78150Y75625D02*
X79415Y74360D01*
X76855Y75625D02*
X78150D01*
X75590Y74360D02*
X76855Y75625D01*
X74960Y74360D02*
X75590D01*
X86215Y73075D02*
X87500Y74360D01*
X57354Y64137D02*
X66293Y73075D01*
X79375D02*
X86215D01*
X78100Y74350D02*
X79375Y73075D01*
X76875Y74350D02*
X78100D01*
X75600Y73075D02*
X76875Y74350D01*
X66293Y73075D02*
X75600D01*
X65745Y71820D02*
X75620D01*
X84955Y71825D02*
X84960Y71820D01*
X57708Y63783D02*
X65745Y71820D01*
X79525Y71825D02*
X84955D01*
X78275Y73075D02*
X79525Y71825D01*
X76875Y73075D02*
X78275D01*
X75620Y71820D02*
X76875Y73075D01*
X86205Y70525D02*
X87500Y71820D01*
X79375Y70525D02*
X86205D01*
X58061Y63429D02*
X65157Y70525D01*
X78125Y71775D02*
X79375Y70525D01*
X76825Y71775D02*
X78125D01*
X75575Y70525D02*
X76825Y71775D01*
X65157Y70525D02*
X75575D01*
X9500Y46900D02*
X15650D01*
X7540Y48180D02*
X8220D01*
X8220D02*
X9500Y46900D01*
X9385Y45640D02*
X15690D01*
X26707Y46925D02*
X35646Y55863D01*
X5000Y45640D02*
X6285Y46925D01*
X8100D01*
X9385Y45640D01*
X15690D02*
X16975Y46925D01*
X26707D01*
X5000Y69320D02*
X6330Y70650D01*
X13050D01*
X14380Y69320D01*
X15645D01*
X16925Y70600D01*
X27061D01*
X16895Y69320D02*
X27634D01*
X34232Y62722D01*
X7540Y69320D02*
X13055D01*
X14300Y68075D01*
X15650D01*
X16895Y69320D01*
X27255Y48180D02*
X35292Y56217D01*
X17540Y48180D02*
X27255D01*
X15650Y46900D02*
X16930Y48180D01*
X17540D01*
X9445D02*
X15655D01*
X27868Y49500D02*
X34939Y56571D01*
X5000Y48180D02*
X6270Y49450D01*
X8175D01*
X9445Y48180D01*
X15655D02*
X16975Y49500D01*
X27868D01*
X16895Y50720D02*
X28381D01*
X34585Y56924D01*
X7540Y50720D02*
X8280D01*
X9525Y49475D01*
X15650D01*
X16895Y50720D01*
X9650Y50650D02*
X15700D01*
X28954Y52000D02*
X34232Y57278D01*
X5000Y50720D02*
X6280Y52000D01*
X8300D01*
X9650Y50650D01*
X15700D02*
X17050Y52000D01*
X28954D01*
X16835Y53260D02*
X29507D01*
X33878Y57631D01*
X7540Y53260D02*
X8290D01*
X9550Y52000D01*
X15575D01*
X16835Y53260D01*
X9650Y53275D02*
X15575D01*
X6290Y54550D02*
X8375D01*
X9650Y53275D01*
X5000Y53260D02*
X6290Y54550D01*
X30090D02*
X33525Y57985D01*
X15575Y53275D02*
X16850Y54550D01*
X30090D01*
X5000Y55800D02*
X5075D01*
X5000Y66780D02*
X6295Y68075D01*
X13025D01*
X14300Y66800D01*
X15700D01*
X17000Y68100D01*
X16930Y66780D02*
X28760D01*
X33525Y62015D01*
X7540Y66780D02*
X12945D01*
X14225Y65500D01*
X15650D01*
X16930Y66780D01*
X5000Y64240D02*
X6310Y65550D01*
X12950D01*
X14260Y64240D01*
X15665D01*
X16975Y65550D01*
X7625Y64155D02*
Y64175D01*
X64619Y69280D02*
X75655D01*
X79445D02*
X84960D01*
X58415Y63076D02*
X64619Y69280D01*
X78175Y70550D02*
X79445Y69280D01*
X76925Y70550D02*
X78175D01*
X75655Y69280D02*
X76925Y70550D01*
X76855Y69280D02*
X78370D01*
X86245Y68025D02*
X87500Y69280D01*
X58768Y62722D02*
X64096Y68050D01*
X79625Y68025D02*
X86245D01*
X78370Y69280D02*
X79625Y68025D01*
X75625Y68050D02*
X76855Y69280D01*
X64096Y68050D02*
X75625D01*
X79600Y65475D02*
X86235D01*
X76765Y66740D02*
X78335D01*
X86235Y65475D02*
X87500Y66740D01*
X78335D02*
X79600Y65475D01*
X79800Y64200D02*
X84960D01*
X76375Y65525D02*
X78475D01*
X79800Y64200D01*
X79485Y66740D02*
X84960D01*
X63493D02*
X74960D01*
X59122Y62369D02*
X63493Y66740D01*
X78225Y68000D02*
X79485Y66740D01*
X76850Y68000D02*
X78225D01*
X75590Y66740D02*
X76850Y68000D01*
X74960Y66740D02*
X75590D01*
X59475Y62015D02*
X62935Y65475D01*
X75500D02*
X76765Y66740D01*
X62935Y65475D02*
X75500D01*
X75050Y64200D02*
X76375Y65525D01*
X86225Y62925D02*
X87500Y64200D01*
X79500Y62925D02*
X86225D01*
X78225Y64200D02*
X79500Y62925D01*
X76950Y64200D02*
X78225D01*
X75600Y62850D02*
X76950Y64200D01*
X67418Y45800D02*
X75525D01*
X79475D02*
X84960D01*
X57354Y55863D02*
X67418Y45800D01*
X78175Y47100D02*
X79475Y45800D01*
X76825Y47100D02*
X78175D01*
X75525Y45800D02*
X76825Y47100D01*
X86235Y47075D02*
X87500Y48340D01*
X57708Y56217D02*
X66875Y47050D01*
X79400Y47075D02*
X86235D01*
X78135Y48340D02*
X79400Y47075D01*
X76840Y48340D02*
X78135D01*
X75550Y47050D02*
X76840Y48340D01*
X66875Y47050D02*
X75550D01*
X79485Y48340D02*
X84960D01*
X66292D02*
X74960D01*
X58061Y56571D02*
X66292Y48340D01*
X78175Y49650D02*
X79485Y48340D01*
X76800Y49650D02*
X78175D01*
X75490Y48340D02*
X76800Y49650D01*
X74960Y48340D02*
X75490D01*
X86245Y49625D02*
X87500Y50880D01*
X58415Y56924D02*
X65689Y49650D01*
X79400Y49625D02*
X86245D01*
X78145Y50880D02*
X79400Y49625D01*
X76905Y50880D02*
X78145D01*
X75675Y49650D02*
X76905Y50880D01*
X65689Y49650D02*
X75675D01*
X65166Y50880D02*
X75455D01*
X79545D02*
X84960D01*
X58768Y57278D02*
X65166Y50880D01*
X78275Y52150D02*
X79545Y50880D01*
X76725Y52150D02*
X78275D01*
X75455Y50880D02*
X76725Y52150D01*
X86230D02*
X87500Y53420D01*
X79325Y52150D02*
X86230D01*
X78125Y53350D02*
X79325Y52150D01*
X76800Y53350D02*
X78125D01*
X75600Y52150D02*
X76800Y53350D01*
X77035Y55960D02*
X78165D01*
X79450Y54675D02*
X86215D01*
X63492D02*
X75750D01*
X86215D02*
X87500Y55960D01*
X78165D02*
X79450Y54675D01*
X75750D02*
X77035Y55960D01*
X79380Y53420D02*
X84960D01*
X78100Y54700D02*
X79380Y53420D01*
X76850Y54700D02*
X78100D01*
X75570Y53420D02*
X76850Y54700D01*
X79965Y55960D02*
X84960D01*
X74960D02*
X76225Y57225D01*
X62914Y55960D02*
X74960D01*
X60183Y58692D02*
X62914Y55960D01*
X78700Y57225D02*
X79965Y55960D01*
X76225Y57225D02*
X78700D01*
X41668Y66600D02*
X41725D01*
X18628Y89640D02*
X41668Y66600D01*
X16940Y89640D02*
X18628D01*
X50850Y66750D02*
Y66825D01*
X73625Y89600D01*
X75525D01*
X54500Y63400D02*
Y63404D01*
X67996Y76900D01*
X75550D01*
X49500Y51697D02*
X71100Y30097D01*
X41303Y50207D02*
X43221Y52125D01*
X43225D01*
X39550Y55525D02*
Y55550D01*
X23250Y39225D02*
X39550Y55525D01*
X51200Y8050D02*
X51600Y8450D01*
X51925D01*
X53500Y8300D02*
X66700D01*
X53200Y8000D02*
X53500Y8300D01*
X52200Y7950D02*
X53125Y8875D01*
X61875Y9500D02*
X62575Y10200D01*
X51200Y7025D02*
Y8050D01*
X62575Y10200D02*
Y12600D01*
X50200Y7025D02*
Y8075D01*
X58900Y10075D02*
X60035Y11210D01*
Y12600D01*
X64175Y8875D02*
X65115Y9815D01*
X52200Y7025D02*
Y7950D01*
X53125Y8875D02*
X64175D01*
X65115Y9815D02*
Y12600D01*
X50200Y8075D02*
X51200Y9075D01*
X51725D01*
X52725Y10075D01*
X58900D01*
X51925Y8450D02*
X52975Y9500D01*
X61875D01*
X50550Y9675D02*
X51450D01*
X52400Y10625D01*
X56675D01*
X57495Y11445D01*
X49200Y7025D02*
Y8325D01*
X57495Y11445D02*
Y12600D01*
X49200Y8325D02*
X50550Y9675D01*
X51150Y10250D02*
X52300Y11400D01*
X53755D02*
X54955Y12600D01*
X52300Y11400D02*
X53755D01*
X48200Y7025D02*
Y8525D01*
X47200Y7025D02*
Y8550D01*
X51215Y11400D02*
X52415Y12600D01*
X47200Y8550D02*
X50050Y11400D01*
X51215D01*
X48200Y8525D02*
X49925Y10250D01*
X51150D01*
X46200Y7025D02*
Y8650D01*
X49875Y12325D01*
Y12600D01*
X45200Y7025D02*
Y10400D01*
X47335Y12535D02*
Y12600D01*
X45200Y10400D02*
X47335Y12535D01*
X44200Y7025D02*
Y11800D01*
X44795Y12395D02*
Y12600D01*
X44200Y11800D02*
X44795Y12395D01*
X44700Y5150D02*
Y7025D01*
X44675Y5125D02*
X44700Y5150D01*
X45700Y4275D02*
Y7025D01*
X46700Y5125D02*
Y5250D01*
X46700Y5250D02*
Y7025D01*
X47700Y4225D02*
Y7025D01*
X48700Y5125D02*
Y7025D01*
X49675Y4175D02*
X49700Y4200D01*
Y7025D01*
X50700Y5150D02*
Y7025D01*
X50675Y5125D02*
X50700Y5150D01*
X51700Y4125D02*
Y7025D01*
X52700Y5150D02*
Y7025D01*
X53275Y4175D02*
X53700Y4600D01*
X53275Y4125D02*
Y4175D01*
X53700Y4600D02*
Y7025D01*
X43700Y4300D02*
Y7025D01*
X43675Y4275D02*
X43700Y4300D01*
X42255Y12600D02*
X43200Y11655D01*
Y7025D02*
Y11655D01*
X42675Y5125D02*
X42700Y5150D01*
Y7025D01*
X40590Y11725D02*
X41150D01*
X42200Y10675D01*
X39715Y12600D02*
X40590Y11725D01*
X42200Y7025D02*
Y10675D01*
X41700Y4275D02*
Y7025D01*
X37175Y12600D02*
X37800D01*
X41200Y7025D02*
Y10050D01*
X40700Y5125D02*
Y7025D01*
X39950Y11300D02*
X41200Y10050D01*
X34635Y12600D02*
X35100D01*
X36300Y11400D01*
X35450D02*
X36100Y10750D01*
X37800Y12600D02*
X39100Y11300D01*
X39950D01*
X39200Y7025D02*
Y9450D01*
X36100Y10750D02*
X37900D01*
X39200Y9450D01*
X40200Y7025D02*
Y9325D01*
X36300Y11400D02*
X38125D01*
X40200Y9325D01*
X36750Y9575D02*
X37200Y9125D01*
X32095Y12600D02*
X33295Y11400D01*
X35450D01*
X37200Y7025D02*
Y9125D01*
X35175Y10850D02*
X35825Y10200D01*
X37500D01*
X31305Y10850D02*
X35175D01*
X27015Y12600D02*
X29390Y10225D01*
X34900D01*
X35550Y9575D01*
X36750D01*
X34750Y9600D02*
X36200Y8150D01*
X27475Y9600D02*
X34750D01*
X24475Y12600D02*
X27475Y9600D01*
X36200Y7025D02*
Y8150D01*
X39700Y4275D02*
Y7025D01*
X38700Y5150D02*
X38725Y5125D01*
X38700Y5150D02*
Y7025D01*
X36700Y5150D02*
X36725Y5125D01*
X36700Y5150D02*
Y7025D01*
X29555Y12600D02*
X31305Y10850D01*
X38200Y7025D02*
Y9500D01*
X37500Y10200D02*
X38200Y9500D01*
X37700Y4225D02*
Y7025D01*
Y4225D02*
X37725Y4200D01*
X1538Y80438D02*
X2495Y79480D01*
X5000D01*
X6295Y80775D01*
X5600Y78175D02*
X6900Y79475D01*
X3867Y78175D02*
X5600D01*
X7540Y79480D02*
X7545Y79475D01*
X6900D02*
X13025D01*
X5000Y76940D02*
X5565D01*
X6825Y78200D01*
X13125D01*
X12865Y109960D02*
X14075Y108750D01*
X15625D01*
X16835Y109960D01*
X7540D02*
X12865D01*
X16835D02*
X17540D01*
X5000D02*
X6290Y111250D01*
X12675D02*
X13965Y109960D01*
X6290Y111250D02*
X12675D01*
X13965Y109960D02*
X15000D01*
X16250Y111175D02*
X17540Y112465D01*
X13925Y111175D02*
X16250D01*
X12600Y112500D02*
X13925Y111175D01*
X7540Y112500D02*
X12600D01*
X17540Y112465D02*
Y112500D01*
X6350Y113850D02*
X13650D01*
X5000Y112500D02*
X6350Y113850D01*
X13650D02*
X15000Y112500D01*
X78170Y109920D02*
X79390Y108700D01*
X86280D01*
X77500Y109920D02*
X78170D01*
X86280Y108700D02*
X87500Y109920D01*
X78100Y111250D02*
X79430Y109920D01*
X76900Y111250D02*
X78100D01*
X75570Y109920D02*
X76900Y111250D01*
X74960Y109920D02*
X75570D01*
X79430D02*
X84960D01*
X78090Y112460D02*
X79350Y111200D01*
X86240D01*
X77500Y112460D02*
X78090D01*
X86240Y111200D02*
X87500Y112460D01*
X78225Y113750D02*
X79515Y112460D01*
X76900Y113750D02*
X78225D01*
X75610Y112460D02*
X76900Y113750D01*
X74960Y112460D02*
X75610D01*
X79515D02*
X84960D01*
D11*
X33967Y63536D02*
X34126Y63695D01*
X35204Y62616D01*
X35045Y62457D01*
X33967Y63536D01*
X34055D02*
X34126Y63606D01*
X35116Y62616D01*
X35045Y62546D01*
X34055Y63536D01*
X34125Y63518D02*
X35045Y62634D01*
X44025Y46406D02*
X43866Y46565D01*
X44944Y47643D01*
X45103Y47484D01*
X44025Y46406D01*
Y46494D02*
X43954Y46565D01*
X44944Y47555D01*
X45015Y47484D01*
X44025Y46494D01*
X44043Y46565D02*
X44927Y47484D01*
X55321Y54909D02*
X55480Y55068D01*
X56559Y53990D01*
X56400Y53830D01*
X55321Y54909D01*
X55410D02*
X55480Y54980D01*
X56470Y53990D01*
X56400Y53919D01*
X55410Y54909D01*
X55480Y54891D02*
X56400Y54007D01*
X54261Y53848D02*
X54420Y54007D01*
X55498Y52929D01*
X55339Y52770D01*
X54261Y53848D01*
X54349D02*
X54420Y53919D01*
X55410Y52929D01*
X55339Y52858D01*
X54349Y53848D01*
X54419Y53830D02*
X55339Y52947D01*
X53907Y53495D02*
X54066Y53654D01*
X55144Y52575D01*
X54985Y52416D01*
X53907Y53495D01*
X53995D02*
X54066Y53565D01*
X55056Y52575D01*
X54985Y52505D01*
X53995Y53495D01*
X54066Y53477D02*
X54985Y52593D01*
X53553Y53141D02*
X53712Y53300D01*
X54791Y52222D01*
X54632Y52063D01*
X53553Y53141D01*
X53642D02*
X53712Y53212D01*
X54702Y52222D01*
X54632Y52151D01*
X53642Y53141D01*
X53712Y53123D02*
X54632Y52240D01*
X53200Y52788D02*
X53359Y52947D01*
X54437Y51868D01*
X54278Y51709D01*
X53200Y52788D01*
X53288D02*
X53359Y52858D01*
X54349Y51868D01*
X54278Y51798D01*
X53288Y52788D01*
X53359Y52770D02*
X54278Y51886D01*
X52846Y52434D02*
X53005Y52593D01*
X54084Y51515D01*
X53925Y51356D01*
X52846Y52434D01*
X52935D02*
X53005Y52505D01*
X53995Y51515D01*
X53925Y51444D01*
X52935Y52434D01*
X53005Y52416D02*
X53925Y51533D01*
X52493Y52080D02*
X52652Y52239D01*
X53730Y51161D01*
X53571Y51002D01*
X52493Y52080D01*
X52581D02*
X52652Y52151D01*
X53642Y51161D01*
X53571Y51090D01*
X52581Y52080D01*
X52652Y52063D02*
X53571Y51179D01*
X52139Y51727D02*
X52298Y51886D01*
X53377Y50808D01*
X53218Y50649D01*
X52139Y51727D01*
X52228D02*
X52298Y51798D01*
X53288Y50808D01*
X53218Y50737D01*
X52228Y51727D01*
X52298Y51709D02*
X53218Y50825D01*
X51786Y51373D02*
X51945Y51532D01*
X53023Y50454D01*
X52864Y50295D01*
X51786Y51373D01*
X51874D02*
X51945Y51444D01*
X52935Y50454D01*
X52864Y50383D01*
X51874Y51373D01*
X51945Y51355D02*
X52864Y50472D01*
X51432Y51020D02*
X51591Y51179D01*
X52670Y50100D01*
X52510Y49941D01*
X51432Y51020D01*
X51520D02*
X51591Y51090D01*
X52581Y50100D01*
X52510Y50030D01*
X51520Y51020D01*
X51591Y51002D02*
X52511Y50118D01*
X50371Y49959D02*
X50531Y50118D01*
X51609Y49040D01*
X51450Y48881D01*
X50371Y49959D01*
X50460D02*
X50531Y50030D01*
X51520Y49040D01*
X51450Y48969D01*
X50460Y49959D01*
X50530Y49941D02*
X51450Y49058D01*
X50018Y49606D02*
X50177Y49765D01*
X51255Y48686D01*
X51096Y48527D01*
X50018Y49606D01*
X50106D02*
X50177Y49676D01*
X51167Y48686D01*
X51096Y48616D01*
X50106Y49606D01*
X50177Y49588D02*
X51096Y48704D01*
X49664Y49252D02*
X49823Y49411D01*
X50902Y48333D01*
X50743Y48174D01*
X49664Y49252D01*
X49753D02*
X49823Y49323D01*
X50813Y48333D01*
X50743Y48262D01*
X49753Y49252D01*
X49823Y49234D02*
X50743Y48351D01*
X49311Y48898D02*
X49470Y49058D01*
X50548Y47979D01*
X50389Y47820D01*
X49311Y48898D01*
X49399D02*
X49470Y48969D01*
X50460Y47979D01*
X50389Y47908D01*
X49399Y48898D01*
X49470Y48881D02*
X50389Y47997D01*
X48957Y48545D02*
X49116Y48704D01*
X50195Y47626D01*
X50036Y47467D01*
X48957Y48545D01*
X49046D02*
X49116Y48616D01*
X50106Y47626D01*
X50036Y47555D01*
X49046Y48545D01*
X49116Y48527D02*
X50036Y47643D01*
X48604Y48191D02*
X48763Y48350D01*
X49841Y47272D01*
X49682Y47113D01*
X48604Y48191D01*
X48692D02*
X48763Y48262D01*
X49753Y47272D01*
X49682Y47201D01*
X48692Y48191D01*
X48763Y48174D02*
X49682Y47290D01*
X48250Y47838D02*
X48409Y47997D01*
X49488Y46919D01*
X49328Y46759D01*
X48250Y47838D01*
X48338D02*
X48409Y47908D01*
X49399Y46919D01*
X49328Y46848D01*
X48338Y47838D01*
X48409Y47820D02*
X49329Y46936D01*
X47897Y47484D02*
X48056Y47643D01*
X49134Y46565D01*
X48975Y46406D01*
X47897Y47484D01*
X47985D02*
X48056Y47555D01*
X49046Y46565D01*
X48975Y46494D01*
X47985Y47484D01*
X48055Y47466D02*
X48975Y46583D01*
X47543Y47131D02*
X47702Y47290D01*
X48780Y46211D01*
X48621Y46052D01*
X47543Y47131D01*
X47631D02*
X47702Y47201D01*
X48692Y46211D01*
X48621Y46141D01*
X47631Y47131D01*
X47702Y47113D02*
X48621Y46229D01*
X47189Y46777D02*
X47349Y46936D01*
X48427Y45858D01*
X48268Y45699D01*
X47189Y46777D01*
X47278D02*
X47349Y46848D01*
X48338Y45858D01*
X48268Y45787D01*
X47278Y46777D01*
X47348Y46759D02*
X48268Y45876D01*
X50884Y69528D02*
X50725Y69687D01*
X51803Y70766D01*
X51962Y70607D01*
X50884Y69528D01*
Y69617D02*
X50813Y69687D01*
X51803Y70677D01*
X51874Y70607D01*
X50884Y69617D01*
X50902Y69687D02*
X51785Y70607D01*
X32552Y62121D02*
X32711Y62280D01*
X33790Y61202D01*
X33631Y61043D01*
X32552Y62121D01*
X32641D02*
X32711Y62192D01*
X33701Y61202D01*
X33631Y61131D01*
X32641Y62121D01*
X32711Y62104D02*
X33631Y61220D01*
X39270Y68839D02*
X39429Y68998D01*
X40507Y67920D01*
X40348Y67760D01*
X39270Y68839D01*
X39358D02*
X39429Y68910D01*
X40419Y67920D01*
X40348Y67849D01*
X39358Y68839D01*
X39429Y68821D02*
X40348Y67937D01*
X32711Y57720D02*
X32552Y57879D01*
X33631Y58957D01*
X33790Y58798D01*
X32711Y57720D01*
Y57808D02*
X32641Y57879D01*
X33631Y58869D01*
X33701Y58798D01*
X32711Y57808D01*
X32729Y57879D02*
X33613Y58798D01*
X37308Y53123D02*
X37148Y53282D01*
X38227Y54361D01*
X38386Y54202D01*
X37308Y53123D01*
Y53212D02*
X37237Y53282D01*
X38227Y54272D01*
X38298Y54202D01*
X37308Y53212D01*
X37325Y53282D02*
X38209Y54202D01*
X40843Y49588D02*
X40684Y49747D01*
X41762Y50825D01*
X41922Y50666D01*
X40843Y49588D01*
Y49676D02*
X40772Y49747D01*
X41762Y50737D01*
X41833Y50666D01*
X40843Y49676D01*
X40861Y49747D02*
X41745Y50666D01*
X50725Y50313D02*
X50884Y50472D01*
X51962Y49393D01*
X51803Y49234D01*
X50725Y50313D01*
X50813D02*
X50884Y50383D01*
X51874Y49393D01*
X51803Y49323D01*
X50813Y50313D01*
X50884Y50295D02*
X51803Y49411D01*
X54614Y54202D02*
X54773Y54361D01*
X55851Y53282D01*
X55692Y53123D01*
X54614Y54202D01*
X54702D02*
X54773Y54272D01*
X55763Y53282D01*
X55692Y53212D01*
X54702Y54202D01*
X54773Y54184D02*
X55693Y53300D01*
X59210Y58798D02*
X59369Y58957D01*
X60448Y57879D01*
X60289Y57720D01*
X59210Y58798D01*
X59299D02*
X59369Y58869D01*
X60359Y57879D01*
X60289Y57808D01*
X59299Y58798D01*
X59369Y58780D02*
X60289Y57896D01*
X55834Y64579D02*
X55675Y64738D01*
X56753Y65816D01*
X56912Y65657D01*
X55834Y64579D01*
Y64667D02*
X55763Y64738D01*
X56753Y65728D01*
X56824Y65657D01*
X55834Y64667D01*
X55852Y64737D02*
X56735Y65657D01*
X52298Y68114D02*
X52139Y68273D01*
X53218Y69351D01*
X53377Y69192D01*
X52298Y68114D01*
Y68202D02*
X52228Y68273D01*
X53218Y69263D01*
X53288Y69192D01*
X52298Y68202D01*
X52316Y68273D02*
X53200Y69193D01*
X38916Y68485D02*
X39075Y68644D01*
X40154Y67566D01*
X39995Y67407D01*
X38916Y68485D01*
X39005D02*
X39075Y68556D01*
X40065Y67566D01*
X39995Y67495D01*
X39005Y68485D01*
X39075Y68467D02*
X39995Y67584D01*
X34320Y63889D02*
X34479Y64048D01*
X35558Y62970D01*
X35398Y62811D01*
X34320Y63889D01*
X34408D02*
X34479Y63960D01*
X35469Y62970D01*
X35398Y62899D01*
X34408Y63889D01*
X34479Y63871D02*
X35399Y62988D01*
X33259Y62828D02*
X33419Y62988D01*
X34497Y61909D01*
X34338Y61750D01*
X33259Y62828D01*
X33348D02*
X33419Y62899D01*
X34408Y61909D01*
X34338Y61838D01*
X33348Y62828D01*
X33418Y62811D02*
X34338Y61927D01*
X33065Y57366D02*
X32906Y57525D01*
X33984Y58603D01*
X34143Y58444D01*
X33065Y57366D01*
Y57454D02*
X32994Y57525D01*
X33984Y58515D01*
X34055Y58444D01*
X33065Y57454D01*
X33083Y57525D02*
X33966Y58445D01*
X37661Y52770D02*
X37502Y52929D01*
X38580Y54007D01*
X38740Y53848D01*
X37661Y52770D01*
Y52858D02*
X37590Y52929D01*
X38580Y53919D01*
X38651Y53848D01*
X37661Y52858D01*
X37679Y52929D02*
X38563Y53848D01*
X41197Y49234D02*
X41038Y49393D01*
X42116Y50472D01*
X42275Y50313D01*
X41197Y49234D01*
Y49323D02*
X41126Y49393D01*
X42116Y50383D01*
X42187Y50313D01*
X41197Y49323D01*
X41215Y49393D02*
X42098Y50313D01*
X44732Y45699D02*
X44573Y45858D01*
X45651Y46936D01*
X45811Y46777D01*
X44732Y45699D01*
Y45787D02*
X44662Y45858D01*
X45651Y46848D01*
X45722Y46777D01*
X44732Y45787D01*
X44750Y45858D02*
X45634Y46777D01*
X51079Y50666D02*
X51238Y50825D01*
X52316Y49747D01*
X52157Y49588D01*
X51079Y50666D01*
X51167D02*
X51238Y50737D01*
X52228Y49747D01*
X52157Y49676D01*
X51167Y50666D01*
X51237Y50648D02*
X52157Y49765D01*
X54968Y54555D02*
X55127Y54714D01*
X56205Y53636D01*
X56046Y53477D01*
X54968Y54555D01*
X55056D02*
X55127Y54626D01*
X56117Y53636D01*
X56046Y53565D01*
X55056Y54555D01*
X55127Y54537D02*
X56046Y53654D01*
X59564Y59151D02*
X59723Y59311D01*
X60801Y58232D01*
X60642Y58073D01*
X59564Y59151D01*
X59652D02*
X59723Y59222D01*
X60713Y58232D01*
X60642Y58162D01*
X59652Y59151D01*
X59723Y59134D02*
X60642Y58250D01*
X55480Y64932D02*
X55321Y65091D01*
X56400Y66170D01*
X56559Y66010D01*
X55480Y64932D01*
Y65020D02*
X55410Y65091D01*
X56400Y66081D01*
X56470Y66010D01*
X55480Y65020D01*
X55498Y65091D02*
X56382Y66011D01*
X51945Y68468D02*
X51786Y68627D01*
X52864Y69705D01*
X53023Y69546D01*
X51945Y68468D01*
Y68556D02*
X51874Y68627D01*
X52864Y69617D01*
X52935Y69546D01*
X51945Y68556D01*
X51963Y68627D02*
X52846Y69546D01*
X47349Y73064D02*
X47189Y73223D01*
X48268Y74301D01*
X48427Y74142D01*
X47349Y73064D01*
Y73152D02*
X47278Y73223D01*
X48268Y74213D01*
X48339Y74142D01*
X47349Y73152D01*
X47366Y73223D02*
X48250Y74142D01*
X32906Y62475D02*
X33065Y62634D01*
X34143Y61556D01*
X33984Y61397D01*
X32906Y62475D01*
X32994D02*
X33065Y62546D01*
X34055Y61556D01*
X33984Y61485D01*
X32994Y62475D01*
X33065Y62457D02*
X33984Y61573D01*
X59723Y60689D02*
X59564Y60849D01*
X60642Y61927D01*
X60801Y61768D01*
X59723Y60689D01*
Y60778D02*
X59652Y60849D01*
X60642Y61838D01*
X60713Y61768D01*
X59723Y60778D01*
X59741Y60848D02*
X60624Y61768D01*
X59369Y61043D02*
X59210Y61202D01*
X60289Y62280D01*
X60448Y62121D01*
X59369Y61043D01*
Y61131D02*
X59299Y61202D01*
X60289Y62192D01*
X60359Y62121D01*
X59369Y61131D01*
X59387Y61202D02*
X60271Y62121D01*
X59016Y61397D02*
X58857Y61556D01*
X59935Y62634D01*
X60094Y62475D01*
X59016Y61397D01*
Y61485D02*
X58945Y61556D01*
X59935Y62546D01*
X60006Y62475D01*
X59016Y61485D01*
X59034Y61555D02*
X59917Y62475D01*
X58662Y61750D02*
X58503Y61909D01*
X59581Y62988D01*
X59741Y62828D01*
X58662Y61750D01*
Y61838D02*
X58592Y61909D01*
X59581Y62899D01*
X59652Y62828D01*
X58662Y61838D01*
X58680Y61909D02*
X59564Y62829D01*
X58309Y62104D02*
X58150Y62263D01*
X59228Y63341D01*
X59387Y63182D01*
X58309Y62104D01*
Y62192D02*
X58238Y62263D01*
X59228Y63253D01*
X59299Y63182D01*
X58309Y62192D01*
X58326Y62263D02*
X59210Y63182D01*
X57955Y62457D02*
X57796Y62616D01*
X58874Y63695D01*
X59033Y63536D01*
X57955Y62457D01*
Y62546D02*
X57884Y62616D01*
X58874Y63606D01*
X58945Y63536D01*
X57955Y62546D01*
X57973Y62616D02*
X58857Y63536D01*
X57602Y62811D02*
X57442Y62970D01*
X58521Y64048D01*
X58680Y63889D01*
X57602Y62811D01*
Y62899D02*
X57531Y62970D01*
X58521Y63960D01*
X58592Y63889D01*
X57602Y62899D01*
X57619Y62970D02*
X58503Y63889D01*
X57248Y63164D02*
X57089Y63323D01*
X58167Y64402D01*
X58326Y64243D01*
X57248Y63164D01*
Y63253D02*
X57177Y63323D01*
X58167Y64313D01*
X58238Y64243D01*
X57248Y63253D01*
X57266Y63323D02*
X58149Y64243D01*
X56894Y63518D02*
X56735Y63677D01*
X57814Y64755D01*
X57973Y64596D01*
X56894Y63518D01*
Y63606D02*
X56824Y63677D01*
X57814Y64667D01*
X57884Y64596D01*
X56894Y63606D01*
X56912Y63677D02*
X57796Y64596D01*
X56541Y63871D02*
X56382Y64031D01*
X57460Y65109D01*
X57619Y64950D01*
X56541Y63871D01*
Y63960D02*
X56470Y64031D01*
X57460Y65020D01*
X57531Y64950D01*
X56541Y63960D01*
X56559Y64030D02*
X57442Y64950D01*
X56187Y64225D02*
X56028Y64384D01*
X57107Y65462D01*
X57266Y65303D01*
X56187Y64225D01*
Y64313D02*
X56117Y64384D01*
X57107Y65374D01*
X57177Y65303D01*
X56187Y64313D01*
X56205Y64384D02*
X57089Y65303D01*
X55127Y65286D02*
X54968Y65445D01*
X56046Y66523D01*
X56205Y66364D01*
X55127Y65286D01*
Y65374D02*
X55056Y65445D01*
X56046Y66435D01*
X56117Y66364D01*
X55127Y65374D01*
X55145Y65445D02*
X56028Y66364D01*
X54773Y65639D02*
X54614Y65798D01*
X55692Y66877D01*
X55851Y66718D01*
X54773Y65639D01*
Y65728D02*
X54702Y65798D01*
X55692Y66788D01*
X55763Y66718D01*
X54773Y65728D01*
X54791Y65798D02*
X55675Y66718D01*
X54420Y65993D02*
X54261Y66152D01*
X55339Y67230D01*
X55498Y67071D01*
X54420Y65993D01*
Y66081D02*
X54349Y66152D01*
X55339Y67142D01*
X55410Y67071D01*
X54420Y66081D01*
X54437Y66152D02*
X55321Y67071D01*
X54066Y66346D02*
X53907Y66505D01*
X54985Y67584D01*
X55144Y67425D01*
X54066Y66346D01*
Y66435D02*
X53995Y66505D01*
X54985Y67495D01*
X55056Y67425D01*
X54066Y66435D01*
X54084Y66505D02*
X54967Y67425D01*
X53712Y66700D02*
X53553Y66859D01*
X54632Y67937D01*
X54791Y67778D01*
X53712Y66700D01*
Y66788D02*
X53642Y66859D01*
X54632Y67849D01*
X54702Y67778D01*
X53712Y66788D01*
X53730Y66859D02*
X54614Y67778D01*
X53359Y67053D02*
X53200Y67212D01*
X54278Y68291D01*
X54437Y68132D01*
X53359Y67053D01*
Y67142D02*
X53288Y67212D01*
X54278Y68202D01*
X54349Y68132D01*
X53359Y67142D01*
X53377Y67212D02*
X54260Y68132D01*
X53005Y67407D02*
X52846Y67566D01*
X53925Y68644D01*
X54084Y68485D01*
X53005Y67407D01*
Y67495D02*
X52935Y67566D01*
X53925Y68556D01*
X53995Y68485D01*
X53005Y67495D01*
X53023Y67566D02*
X53907Y68485D01*
X52652Y67760D02*
X52493Y67920D01*
X53571Y68998D01*
X53730Y68839D01*
X52652Y67760D01*
Y67849D02*
X52581Y67920D01*
X53571Y68910D01*
X53642Y68839D01*
X52652Y67849D01*
X52670Y67919D02*
X53553Y68839D01*
X51591Y68821D02*
X51432Y68980D01*
X52510Y70059D01*
X52670Y69899D01*
X51591Y68821D01*
Y68910D02*
X51520Y68980D01*
X52510Y69970D01*
X52581Y69899D01*
X51591Y68910D01*
X51609Y68980D02*
X52493Y69900D01*
X51238Y69175D02*
X51079Y69334D01*
X52157Y70412D01*
X52316Y70253D01*
X51238Y69175D01*
Y69263D02*
X51167Y69334D01*
X52157Y70324D01*
X52228Y70253D01*
X51238Y69263D01*
X51255Y69334D02*
X52139Y70253D01*
X50531Y69882D02*
X50371Y70041D01*
X51450Y71119D01*
X51609Y70960D01*
X50531Y69882D01*
Y69970D02*
X50460Y70041D01*
X51450Y71031D01*
X51520Y70960D01*
X50531Y69970D01*
X50548Y70041D02*
X51432Y70960D01*
X50177Y70235D02*
X50018Y70394D01*
X51096Y71473D01*
X51255Y71314D01*
X50177Y70235D01*
Y70324D02*
X50106Y70394D01*
X51096Y71384D01*
X51167Y71314D01*
X50177Y70324D01*
X50195Y70394D02*
X51078Y71314D01*
X49823Y70589D02*
X49664Y70748D01*
X50743Y71826D01*
X50902Y71667D01*
X49823Y70589D01*
Y70677D02*
X49753Y70748D01*
X50743Y71738D01*
X50813Y71667D01*
X49823Y70677D01*
X49841Y70748D02*
X50725Y71667D01*
X49470Y70942D02*
X49311Y71102D01*
X50389Y72180D01*
X50548Y72021D01*
X49470Y70942D01*
Y71031D02*
X49399Y71102D01*
X50389Y72092D01*
X50460Y72021D01*
X49470Y71031D01*
X49488Y71101D02*
X50371Y72021D01*
X49116Y71296D02*
X48957Y71455D01*
X50036Y72533D01*
X50195Y72374D01*
X49116Y71296D01*
Y71384D02*
X49046Y71455D01*
X50036Y72445D01*
X50106Y72374D01*
X49116Y71384D01*
X49134Y71455D02*
X50018Y72375D01*
X48763Y71650D02*
X48604Y71809D01*
X49682Y72887D01*
X49841Y72728D01*
X48763Y71650D01*
Y71738D02*
X48692Y71809D01*
X49682Y72799D01*
X49753Y72728D01*
X48763Y71738D01*
X48781Y71809D02*
X49664Y72728D01*
X48409Y72003D02*
X48250Y72162D01*
X49328Y73241D01*
X49488Y73081D01*
X48409Y72003D01*
Y72092D02*
X48338Y72162D01*
X49328Y73152D01*
X49399Y73081D01*
X48409Y72092D01*
X48427Y72162D02*
X49311Y73082D01*
X48056Y72357D02*
X47897Y72516D01*
X48975Y73594D01*
X49134Y73435D01*
X48056Y72357D01*
Y72445D02*
X47985Y72516D01*
X48975Y73506D01*
X49046Y73435D01*
X48056Y72445D01*
X48073Y72516D02*
X48957Y73435D01*
X47702Y72710D02*
X47543Y72869D01*
X48621Y73948D01*
X48780Y73789D01*
X47702Y72710D01*
Y72799D02*
X47631Y72869D01*
X48621Y73859D01*
X48692Y73789D01*
X47702Y72799D01*
X47720Y72869D02*
X48604Y73789D01*
X55675Y55262D02*
X55834Y55421D01*
X56912Y54343D01*
X56753Y54184D01*
X55675Y55262D01*
X55763D02*
X55834Y55333D01*
X56824Y54343D01*
X56753Y54272D01*
X55763Y55262D01*
X55834Y55245D02*
X56753Y54361D01*
X56028Y55616D02*
X56187Y55775D01*
X57266Y54697D01*
X57107Y54538D01*
X56028Y55616D01*
X56117D02*
X56187Y55687D01*
X57177Y54697D01*
X57107Y54626D01*
X56117Y55616D01*
X56187Y55598D02*
X57107Y54715D01*
X56382Y55969D02*
X56541Y56129D01*
X57619Y55050D01*
X57460Y54891D01*
X56382Y55969D01*
X56470D02*
X56541Y56040D01*
X57531Y55050D01*
X57460Y54980D01*
X56470Y55969D01*
X56541Y55952D02*
X57460Y55068D01*
X56735Y56323D02*
X56894Y56482D01*
X57973Y55404D01*
X57814Y55245D01*
X56735Y56323D01*
X56824D02*
X56894Y56394D01*
X57884Y55404D01*
X57814Y55333D01*
X56824Y56323D01*
X56894Y56305D02*
X57814Y55422D01*
X57089Y56677D02*
X57248Y56836D01*
X58326Y55757D01*
X58167Y55598D01*
X57089Y56677D01*
X57177D02*
X57248Y56747D01*
X58238Y55757D01*
X58167Y55687D01*
X57177Y56677D01*
X57248Y56659D02*
X58167Y55775D01*
X57442Y57030D02*
X57602Y57189D01*
X58680Y56111D01*
X58521Y55952D01*
X57442Y57030D01*
X57531D02*
X57602Y57101D01*
X58592Y56111D01*
X58521Y56040D01*
X57531Y57030D01*
X57601Y57012D02*
X58521Y56129D01*
X57796Y57384D02*
X57955Y57543D01*
X59033Y56464D01*
X58874Y56305D01*
X57796Y57384D01*
X57884D02*
X57955Y57454D01*
X58945Y56464D01*
X58874Y56394D01*
X57884Y57384D01*
X57955Y57366D02*
X58875Y56482D01*
X58150Y57737D02*
X58309Y57896D01*
X59387Y56818D01*
X59228Y56659D01*
X58150Y57737D01*
X58238D02*
X58309Y57808D01*
X59299Y56818D01*
X59228Y56747D01*
X58238Y57737D01*
X58309Y57719D02*
X59228Y56836D01*
X58503Y58091D02*
X58662Y58250D01*
X59741Y57172D01*
X59581Y57012D01*
X58503Y58091D01*
X58592D02*
X58662Y58162D01*
X59652Y57172D01*
X59581Y57101D01*
X58592Y58091D01*
X58662Y58073D02*
X59582Y57189D01*
X58857Y58444D02*
X59016Y58603D01*
X60094Y57525D01*
X59935Y57366D01*
X58857Y58444D01*
X58945D02*
X59016Y58515D01*
X60006Y57525D01*
X59935Y57454D01*
X58945Y58444D01*
X59016Y58427D02*
X59935Y57543D01*
X44379Y46052D02*
X44220Y46211D01*
X45298Y47290D01*
X45457Y47131D01*
X44379Y46052D01*
Y46141D02*
X44308Y46211D01*
X45298Y47201D01*
X45369Y47131D01*
X44379Y46141D01*
X44396Y46211D02*
X45280Y47131D01*
X43672Y46759D02*
X43512Y46919D01*
X44591Y47997D01*
X44750Y47838D01*
X43672Y46759D01*
Y46848D02*
X43601Y46919D01*
X44591Y47908D01*
X44662Y47838D01*
X43672Y46848D01*
X43689Y46918D02*
X44573Y47838D01*
X43318Y47113D02*
X43159Y47272D01*
X44237Y48350D01*
X44396Y48191D01*
X43318Y47113D01*
Y47201D02*
X43247Y47272D01*
X44237Y48262D01*
X44308Y48191D01*
X43318Y47201D01*
X43336Y47272D02*
X44219Y48191D01*
X42964Y47467D02*
X42805Y47626D01*
X43884Y48704D01*
X44043Y48545D01*
X42964Y47467D01*
Y47555D02*
X42894Y47626D01*
X43884Y48616D01*
X43954Y48545D01*
X42964Y47555D01*
X42982Y47625D02*
X43866Y48545D01*
X42611Y47820D02*
X42452Y47979D01*
X43530Y49058D01*
X43689Y48898D01*
X42611Y47820D01*
Y47908D02*
X42540Y47979D01*
X43530Y48969D01*
X43601Y48898D01*
X42611Y47908D01*
X42629Y47979D02*
X43512Y48899D01*
X42257Y48174D02*
X42098Y48333D01*
X43177Y49411D01*
X43336Y49252D01*
X42257Y48174D01*
Y48262D02*
X42187Y48333D01*
X43177Y49323D01*
X43247Y49252D01*
X42257Y48262D01*
X42275Y48333D02*
X43159Y49252D01*
X41904Y48527D02*
X41745Y48686D01*
X42823Y49765D01*
X42982Y49606D01*
X41904Y48527D01*
Y48616D02*
X41833Y48686D01*
X42823Y49676D01*
X42894Y49606D01*
X41904Y48616D01*
X41922Y48686D02*
X42805Y49606D01*
X41550Y48881D02*
X41391Y49040D01*
X42470Y50118D01*
X42629Y49959D01*
X41550Y48881D01*
Y48969D02*
X41480Y49040D01*
X42470Y50030D01*
X42540Y49959D01*
X41550Y48969D01*
X41568Y49040D02*
X42452Y49959D01*
X40490Y49941D02*
X40331Y50100D01*
X41409Y51179D01*
X41568Y51020D01*
X40490Y49941D01*
Y50030D02*
X40419Y50100D01*
X41409Y51090D01*
X41480Y51020D01*
X40490Y50030D01*
X40507Y50100D02*
X41391Y51020D01*
X40136Y50295D02*
X39977Y50454D01*
X41055Y51532D01*
X41214Y51373D01*
X40136Y50295D01*
Y50383D02*
X40065Y50454D01*
X41055Y51444D01*
X41126Y51373D01*
X40136Y50383D01*
X40154Y50454D02*
X41037Y51373D01*
X39782Y50649D02*
X39623Y50808D01*
X40702Y51886D01*
X40861Y51727D01*
X39782Y50649D01*
Y50737D02*
X39712Y50808D01*
X40702Y51798D01*
X40772Y51727D01*
X39782Y50737D01*
X39800Y50807D02*
X40684Y51727D01*
X39429Y51002D02*
X39270Y51161D01*
X40348Y52239D01*
X40507Y52080D01*
X39429Y51002D01*
Y51090D02*
X39358Y51161D01*
X40348Y52151D01*
X40419Y52080D01*
X39429Y51090D01*
X39447Y51161D02*
X40330Y52081D01*
X39075Y51356D02*
X38916Y51515D01*
X39995Y52593D01*
X40154Y52434D01*
X39075Y51356D01*
Y51444D02*
X39005Y51515D01*
X39995Y52505D01*
X40065Y52434D01*
X39075Y51444D01*
X39093Y51515D02*
X39977Y52434D01*
X38722Y51709D02*
X38563Y51868D01*
X39641Y52947D01*
X39800Y52788D01*
X38722Y51709D01*
Y51798D02*
X38651Y51868D01*
X39641Y52858D01*
X39712Y52788D01*
X38722Y51798D01*
X38740Y51868D02*
X39623Y52788D01*
X38368Y52063D02*
X38209Y52222D01*
X39288Y53300D01*
X39447Y53141D01*
X38368Y52063D01*
Y52151D02*
X38298Y52222D01*
X39288Y53212D01*
X39358Y53141D01*
X38368Y52151D01*
X38386Y52222D02*
X39270Y53141D01*
X38015Y52416D02*
X37856Y52575D01*
X38934Y53654D01*
X39093Y53495D01*
X38015Y52416D01*
Y52505D02*
X37944Y52575D01*
X38934Y53565D01*
X39005Y53495D01*
X38015Y52505D01*
X38033Y52575D02*
X38916Y53495D01*
X36954Y53477D02*
X36795Y53636D01*
X37873Y54714D01*
X38032Y54555D01*
X36954Y53477D01*
Y53565D02*
X36883Y53636D01*
X37873Y54626D01*
X37944Y54555D01*
X36954Y53565D01*
X36972Y53636D02*
X37855Y54555D01*
X36601Y53830D02*
X36441Y53990D01*
X37520Y55068D01*
X37679Y54909D01*
X36601Y53830D01*
Y53919D02*
X36530Y53990D01*
X37520Y54980D01*
X37590Y54909D01*
X36601Y53919D01*
X36618Y53989D02*
X37502Y54909D01*
X36247Y54184D02*
X36088Y54343D01*
X37166Y55421D01*
X37325Y55262D01*
X36247Y54184D01*
Y54272D02*
X36176Y54343D01*
X37166Y55333D01*
X37237Y55262D01*
X36247Y54272D01*
X36265Y54343D02*
X37148Y55263D01*
X35893Y54538D02*
X35734Y54697D01*
X36813Y55775D01*
X36972Y55616D01*
X35893Y54538D01*
Y54626D02*
X35823Y54697D01*
X36813Y55687D01*
X36883Y55616D01*
X35893Y54626D01*
X35911Y54697D02*
X36795Y55616D01*
X35540Y54891D02*
X35381Y55050D01*
X36459Y56129D01*
X36618Y55969D01*
X35540Y54891D01*
Y54980D02*
X35469Y55050D01*
X36459Y56040D01*
X36530Y55969D01*
X35540Y54980D01*
X35558Y55050D02*
X36441Y55970D01*
X35186Y55245D02*
X35027Y55404D01*
X36106Y56482D01*
X36265Y56323D01*
X35186Y55245D01*
Y55333D02*
X35116Y55404D01*
X36106Y56394D01*
X36176Y56323D01*
X35186Y55333D01*
X35204Y55404D02*
X36088Y56323D01*
X34833Y55598D02*
X34674Y55757D01*
X35752Y56836D01*
X35911Y56677D01*
X34833Y55598D01*
Y55687D02*
X34762Y55757D01*
X35752Y56747D01*
X35823Y56677D01*
X34833Y55687D01*
X34851Y55757D02*
X35734Y56677D01*
X34479Y55952D02*
X34320Y56111D01*
X35398Y57189D01*
X35558Y57030D01*
X34479Y55952D01*
Y56040D02*
X34408Y56111D01*
X35398Y57101D01*
X35469Y57030D01*
X34479Y56040D01*
X34497Y56111D02*
X35381Y57030D01*
X34126Y56305D02*
X33967Y56464D01*
X35045Y57543D01*
X35204Y57384D01*
X34126Y56305D01*
Y56394D02*
X34055Y56464D01*
X35045Y57454D01*
X35116Y57384D01*
X34126Y56394D01*
X34143Y56464D02*
X35027Y57384D01*
X33772Y56659D02*
X33613Y56818D01*
X34691Y57896D01*
X34850Y57737D01*
X33772Y56659D01*
Y56747D02*
X33701Y56818D01*
X34691Y57808D01*
X34762Y57737D01*
X33772Y56747D01*
X33790Y56818D02*
X34674Y57737D01*
X33419Y57012D02*
X33259Y57172D01*
X34338Y58250D01*
X34497Y58091D01*
X33419Y57012D01*
Y57101D02*
X33348Y57172D01*
X34338Y58162D01*
X34408Y58091D01*
X33419Y57101D01*
X33436Y57171D02*
X34320Y58091D01*
X32358Y58073D02*
X32199Y58232D01*
X33277Y59311D01*
X33436Y59151D01*
X32358Y58073D01*
Y58162D02*
X32287Y58232D01*
X33277Y59222D01*
X33348Y59151D01*
X32358Y58162D01*
X32376Y58232D02*
X33259Y59152D01*
X32199Y61768D02*
X32358Y61927D01*
X33436Y60849D01*
X33277Y60689D01*
X32199Y61768D01*
X32287D02*
X32358Y61839D01*
X33348Y60849D01*
X33277Y60778D01*
X32287Y61768D01*
X32358Y61750D02*
X33277Y60866D01*
X33613Y63182D02*
X33772Y63341D01*
X34850Y62263D01*
X34691Y62104D01*
X33613Y63182D01*
X33701D02*
X33772Y63253D01*
X34762Y62263D01*
X34691Y62192D01*
X33701Y63182D01*
X33772Y63164D02*
X34691Y62281D01*
X34674Y64243D02*
X34833Y64402D01*
X35911Y63323D01*
X35752Y63164D01*
X34674Y64243D01*
X34762D02*
X34833Y64313D01*
X35823Y63323D01*
X35752Y63253D01*
X34762Y64243D01*
X34833Y64225D02*
X35752Y63341D01*
X35027Y64596D02*
X35186Y64755D01*
X36265Y63677D01*
X36106Y63518D01*
X35027Y64596D01*
X35116D02*
X35186Y64667D01*
X36176Y63677D01*
X36106Y63606D01*
X35116Y64596D01*
X35186Y64578D02*
X36106Y63695D01*
X35381Y64950D02*
X35540Y65109D01*
X36618Y64031D01*
X36459Y63871D01*
X35381Y64950D01*
X35469D02*
X35540Y65020D01*
X36530Y64031D01*
X36459Y63960D01*
X35469Y64950D01*
X35540Y64932D02*
X36459Y64048D01*
X35734Y65303D02*
X35893Y65462D01*
X36972Y64384D01*
X36813Y64225D01*
X35734Y65303D01*
X35823D02*
X35893Y65374D01*
X36883Y64384D01*
X36813Y64313D01*
X35823Y65303D01*
X35893Y65285D02*
X36813Y64402D01*
X36088Y65657D02*
X36247Y65816D01*
X37325Y64738D01*
X37166Y64579D01*
X36088Y65657D01*
X36176D02*
X36247Y65728D01*
X37237Y64738D01*
X37166Y64667D01*
X36176Y65657D01*
X36247Y65639D02*
X37166Y64755D01*
X36441Y66010D02*
X36601Y66170D01*
X37679Y65091D01*
X37520Y64932D01*
X36441Y66010D01*
X36530D02*
X36601Y66081D01*
X37590Y65091D01*
X37520Y65020D01*
X36530Y66010D01*
X36600Y65993D02*
X37520Y65109D01*
X36795Y66364D02*
X36954Y66523D01*
X38032Y65445D01*
X37873Y65286D01*
X36795Y66364D01*
X36883D02*
X36954Y66435D01*
X37944Y65445D01*
X37873Y65374D01*
X36883Y66364D01*
X36954Y66346D02*
X37873Y65463D01*
X37149Y66718D02*
X37308Y66877D01*
X38386Y65798D01*
X38227Y65639D01*
X37149Y66718D01*
X37237D02*
X37308Y66788D01*
X38298Y65798D01*
X38227Y65728D01*
X37237Y66718D01*
X37307Y66700D02*
X38227Y65816D01*
X37502Y67071D02*
X37661Y67230D01*
X38740Y66152D01*
X38580Y65993D01*
X37502Y67071D01*
X37590D02*
X37661Y67142D01*
X38651Y66152D01*
X38580Y66081D01*
X37590Y67071D01*
X37661Y67053D02*
X38581Y66170D01*
X37856Y67425D02*
X38015Y67584D01*
X39093Y66505D01*
X38934Y66346D01*
X37856Y67425D01*
X37944D02*
X38015Y67495D01*
X39005Y66505D01*
X38934Y66435D01*
X37944Y67425D01*
X38015Y67407D02*
X38934Y66523D01*
X38209Y67778D02*
X38368Y67937D01*
X39447Y66859D01*
X39288Y66700D01*
X38209Y67778D01*
X38298D02*
X38368Y67849D01*
X39358Y66859D01*
X39288Y66788D01*
X38298Y67778D01*
X38368Y67760D02*
X39288Y66877D01*
X38563Y68132D02*
X38722Y68291D01*
X39800Y67212D01*
X39641Y67053D01*
X38563Y68132D01*
X38651D02*
X38722Y68202D01*
X39712Y67212D01*
X39641Y67142D01*
X38651Y68132D01*
X38722Y68114D02*
X39641Y67230D01*
X39623Y69192D02*
X39782Y69351D01*
X40861Y68273D01*
X40702Y68114D01*
X39623Y69192D01*
X39712D02*
X39782Y69263D01*
X40772Y68273D01*
X40702Y68202D01*
X39712Y69192D01*
X39782Y69175D02*
X40702Y68291D01*
X39977Y69546D02*
X40136Y69705D01*
X41214Y68627D01*
X41055Y68468D01*
X39977Y69546D01*
X40065D02*
X40136Y69617D01*
X41126Y68627D01*
X41055Y68556D01*
X40065Y69546D01*
X40136Y69528D02*
X41055Y68645D01*
X40330Y69899D02*
X40490Y70059D01*
X41568Y68980D01*
X41409Y68821D01*
X40330Y69899D01*
X40419D02*
X40490Y69970D01*
X41480Y68980D01*
X41409Y68910D01*
X40419Y69899D01*
X40489Y69882D02*
X41409Y68998D01*
X40684Y70253D02*
X40843Y70412D01*
X41921Y69334D01*
X41762Y69175D01*
X40684Y70253D01*
X40772D02*
X40843Y70324D01*
X41833Y69334D01*
X41762Y69263D01*
X40772Y70253D01*
X40843Y70235D02*
X41763Y69352D01*
X41038Y70607D02*
X41197Y70766D01*
X42275Y69687D01*
X42116Y69528D01*
X41038Y70607D01*
X41126D02*
X41197Y70677D01*
X42187Y69687D01*
X42116Y69617D01*
X41126Y70607D01*
X41197Y70589D02*
X42116Y69705D01*
X41391Y70960D02*
X41550Y71119D01*
X42629Y70041D01*
X42469Y69882D01*
X41391Y70960D01*
X41480D02*
X41550Y71031D01*
X42540Y70041D01*
X42469Y69970D01*
X41480Y70960D01*
X41550Y70942D02*
X42470Y70059D01*
X41745Y71314D02*
X41904Y71473D01*
X42982Y70394D01*
X42823Y70235D01*
X41745Y71314D01*
X41833D02*
X41904Y71384D01*
X42894Y70394D01*
X42823Y70324D01*
X41833Y71314D01*
X41904Y71296D02*
X42823Y70412D01*
X42098Y71667D02*
X42257Y71826D01*
X43336Y70748D01*
X43177Y70589D01*
X42098Y71667D01*
X42187D02*
X42257Y71738D01*
X43247Y70748D01*
X43177Y70677D01*
X42187Y71667D01*
X42257Y71649D02*
X43177Y70766D01*
X42452Y72021D02*
X42611Y72180D01*
X43689Y71102D01*
X43530Y70942D01*
X42452Y72021D01*
X42540D02*
X42611Y72092D01*
X43601Y71102D01*
X43530Y71031D01*
X42540Y72021D01*
X42611Y72003D02*
X43530Y71119D01*
X42805Y72374D02*
X42964Y72533D01*
X44043Y71455D01*
X43884Y71296D01*
X42805Y72374D01*
X42894D02*
X42964Y72445D01*
X43954Y71455D01*
X43884Y71384D01*
X42894Y72374D01*
X42964Y72357D02*
X43884Y71473D01*
X43159Y72728D02*
X43318Y72887D01*
X44396Y71809D01*
X44237Y71650D01*
X43159Y72728D01*
X43247D02*
X43318Y72799D01*
X44308Y71809D01*
X44237Y71738D01*
X43247Y72728D01*
X43318Y72710D02*
X44237Y71826D01*
X43512Y73081D02*
X43672Y73241D01*
X44750Y72162D01*
X44591Y72003D01*
X43512Y73081D01*
X43601D02*
X43672Y73152D01*
X44662Y72162D01*
X44591Y72092D01*
X43601Y73081D01*
X43671Y73064D02*
X44591Y72180D01*
X43866Y73435D02*
X44025Y73594D01*
X45103Y72516D01*
X44944Y72357D01*
X43866Y73435D01*
X43954D02*
X44025Y73506D01*
X45015Y72516D01*
X44944Y72445D01*
X43954Y73435D01*
X44025Y73417D02*
X44945Y72534D01*
X44220Y73789D02*
X44379Y73948D01*
X45457Y72869D01*
X45298Y72710D01*
X44220Y73789D01*
X44308D02*
X44379Y73859D01*
X45369Y72869D01*
X45298Y72799D01*
X44308Y73789D01*
X44379Y73771D02*
X45298Y72887D01*
X44573Y74142D02*
X44732Y74301D01*
X45811Y73223D01*
X45651Y73064D01*
X44573Y74142D01*
X44662D02*
X44732Y74213D01*
X45722Y73223D01*
X45651Y73152D01*
X44662Y74142D01*
X44732Y74124D02*
X45652Y73241D01*
D12*
X1493Y86612D02*
D03*
X1607Y69988D02*
D03*
X1507Y93288D02*
D03*
Y90488D02*
D03*
X1493Y105012D02*
D03*
X1493Y102212D02*
D03*
X1607Y72788D02*
D03*
X1493Y83812D02*
D03*
D13*
X48025Y29075D02*
D03*
X47375D02*
D03*
X46725D02*
D03*
X45425D02*
D03*
X47375Y23525D02*
D03*
X46725D02*
D03*
X44775D02*
D03*
X44125D02*
D03*
X45425D02*
D03*
X46075D02*
D03*
X48025D02*
D03*
X48675D02*
D03*
X46075Y29075D02*
D03*
X48675D02*
D03*
D14*
X44775Y29075D02*
D03*
X44125D02*
D03*
D15*
X56512Y25807D02*
D03*
X56510Y28647D02*
D03*
X46788Y40993D02*
D03*
X49640Y38178D02*
D03*
X46840Y38178D02*
D03*
X32588Y28693D02*
D03*
X35415Y25926D02*
D03*
X32615Y25926D02*
D03*
X35388Y28693D02*
D03*
X49588Y40993D02*
D03*
X53710Y28647D02*
D03*
X53712Y25807D02*
D03*
X45212Y96607D02*
D03*
X42412D02*
D03*
X59412Y96707D02*
D03*
X56612Y96707D02*
D03*
X48188Y83793D02*
D03*
X50988Y83793D02*
D03*
X53412Y96707D02*
D03*
X50612Y96707D02*
D03*
D16*
X21400Y62600D02*
D03*
X26400D02*
D03*
Y58600D02*
D03*
X21400D02*
D03*
D17*
X40400Y101700D02*
D03*
Y102500D02*
D03*
Y103300D02*
D03*
Y104100D02*
D03*
Y104900D02*
D03*
Y105700D02*
D03*
Y106500D02*
D03*
Y107300D02*
D03*
Y108100D02*
D03*
Y108900D02*
D03*
Y109700D02*
D03*
Y110500D02*
D03*
Y111300D02*
D03*
Y112100D02*
D03*
Y112900D02*
D03*
Y113700D02*
D03*
Y114500D02*
D03*
Y115300D02*
D03*
Y116100D02*
D03*
Y116900D02*
D03*
Y117700D02*
D03*
Y118500D02*
D03*
X52400Y118500D02*
D03*
Y117700D02*
D03*
Y116900D02*
D03*
Y116100D02*
D03*
X52400Y115300D02*
D03*
Y114500D02*
D03*
X52400Y113700D02*
D03*
Y112900D02*
D03*
X52400Y112100D02*
D03*
Y111300D02*
D03*
Y110500D02*
D03*
Y109700D02*
D03*
X52400Y108900D02*
D03*
Y108100D02*
D03*
Y107300D02*
D03*
X52400Y106500D02*
D03*
X52400Y105700D02*
D03*
Y104900D02*
D03*
Y104100D02*
D03*
Y103300D02*
D03*
X52400Y102500D02*
D03*
D18*
Y101700D02*
D03*
D19*
X53700Y7025D02*
D03*
X53200D02*
D03*
X52700D02*
D03*
X52200D02*
D03*
X51700D02*
D03*
X51200D02*
D03*
X50700D02*
D03*
X50200D02*
D03*
X49700D02*
D03*
X49200D02*
D03*
X48700D02*
D03*
X48200D02*
D03*
X47700D02*
D03*
X47200D02*
D03*
X46700D02*
D03*
X46200D02*
D03*
X45700D02*
D03*
X45200D02*
D03*
X44700D02*
D03*
X44200D02*
D03*
X43700D02*
D03*
X43200D02*
D03*
X42700D02*
D03*
X42200D02*
D03*
X41700D02*
D03*
X41200D02*
D03*
X40700D02*
D03*
X40200D02*
D03*
X39700D02*
D03*
X39200D02*
D03*
X38700D02*
D03*
X38200D02*
D03*
X37700D02*
D03*
X37200D02*
D03*
X36700D02*
D03*
X36200D02*
D03*
D20*
X55700Y5775D02*
D03*
X34200D02*
D03*
D21*
X55233Y64844D02*
X55940Y65551D01*
X60183Y58692D02*
X60430Y58939D01*
X59475Y59399D02*
X60183Y58692D01*
X47561Y73930D02*
X47808Y73683D01*
X47101Y72975D02*
X47808Y73683D01*
X51697Y68379D02*
X52404Y69086D01*
X54879Y54803D02*
X55586Y54096D01*
X50990Y50914D02*
X51697Y50207D01*
X39535Y68026D02*
X40242Y67319D01*
X34939Y63429D02*
X35646Y62722D01*
X33878Y62369D02*
X34585Y61662D01*
X33525Y57985D02*
X34232Y58692D01*
X45192Y46317D02*
X45899Y47025D01*
X45192Y46317D02*
X45439Y46070D01*
X44485Y45610D02*
X45192Y46317D01*
X41656Y49853D02*
X42363Y50560D01*
X38121Y53389D02*
X38828Y54096D01*
D22*
X1600Y96350D02*
D03*
Y99450D02*
D03*
D23*
X50199Y20402D02*
D03*
X47659D02*
D03*
X40039D02*
D03*
X50199Y17702D02*
D03*
X40039D02*
D03*
X50325Y35210D02*
D03*
X42705D02*
D03*
X40165D02*
D03*
X52865D02*
D03*
X50299Y32402D02*
D03*
X42679Y32402D02*
D03*
X40139Y32402D02*
D03*
X52839D02*
D03*
X57860Y91140D02*
D03*
X55320D02*
D03*
X52780D02*
D03*
X50240D02*
D03*
X47700D02*
D03*
X45160D02*
D03*
X42620D02*
D03*
X40080D02*
D03*
X37540D02*
D03*
Y88600D02*
D03*
X35000Y91140D02*
D03*
X82739Y4710D02*
D03*
X79491D02*
D03*
X76243D02*
D03*
X72995D02*
D03*
X69747D02*
D03*
X8954Y1865D02*
D03*
X12202D02*
D03*
X15450D02*
D03*
X18698D02*
D03*
X21946D02*
D03*
X71024Y118443D02*
D03*
Y115903D02*
D03*
X74272Y118443D02*
D03*
X74272Y115903D02*
D03*
X77520Y118443D02*
D03*
X77520Y115903D02*
D03*
X80768Y118443D02*
D03*
Y115903D02*
D03*
X84016Y118443D02*
D03*
X84016Y115903D02*
D03*
X9203Y118393D02*
D03*
X9203Y115853D02*
D03*
X12451Y118393D02*
D03*
Y115853D02*
D03*
X15699Y118393D02*
D03*
Y115853D02*
D03*
X18947Y118393D02*
D03*
X18947Y115853D02*
D03*
X22195Y118393D02*
D03*
Y115853D02*
D03*
X55379Y32402D02*
D03*
X45219D02*
D03*
X47759D02*
D03*
X55405Y35210D02*
D03*
X45245D02*
D03*
X47785Y35210D02*
D03*
X55279Y17702D02*
D03*
X52739D02*
D03*
X42579D02*
D03*
X45119D02*
D03*
X47659Y17702D02*
D03*
X55279Y20402D02*
D03*
X52739Y20402D02*
D03*
X42579D02*
D03*
X45119Y20402D02*
D03*
X40080Y88600D02*
D03*
X42620D02*
D03*
X45160D02*
D03*
X47700D02*
D03*
X50240D02*
D03*
X52780D02*
D03*
X55320D02*
D03*
X57860D02*
D03*
X29160Y101400D02*
D03*
X31700Y103940D02*
D03*
X29160D02*
D03*
X31700Y106480D02*
D03*
X29160D02*
D03*
X31700Y109020D02*
D03*
X29160D02*
D03*
X31700Y111560D02*
D03*
X29160D02*
D03*
X31700Y114100D02*
D03*
X29160D02*
D03*
X31700Y116640D02*
D03*
X29160D02*
D03*
X31700Y119180D02*
D03*
X29160D02*
D03*
X61360Y101625D02*
D03*
X63900Y104165D02*
D03*
X61360D02*
D03*
X63900Y106705D02*
D03*
X61360D02*
D03*
X63900Y109245D02*
D03*
X61360D02*
D03*
X63900Y111785D02*
D03*
X61360D02*
D03*
X63900Y114325D02*
D03*
X61360D02*
D03*
X63900Y116865D02*
D03*
X61360D02*
D03*
X63900Y119405D02*
D03*
X61360D02*
D03*
X55735D02*
D03*
X58275Y119405D02*
D03*
X55735Y116865D02*
D03*
X58275Y116865D02*
D03*
X55735Y114325D02*
D03*
X58275Y114325D02*
D03*
X55735Y111785D02*
D03*
X58275D02*
D03*
X55735Y109245D02*
D03*
X58275D02*
D03*
X55735Y106705D02*
D03*
X58275D02*
D03*
X55735Y104165D02*
D03*
X58275D02*
D03*
X55735Y101625D02*
D03*
X34735Y119280D02*
D03*
X37275D02*
D03*
X34735Y116740D02*
D03*
X37275Y116740D02*
D03*
X34735Y114200D02*
D03*
X37275D02*
D03*
X34735Y111660D02*
D03*
X37275D02*
D03*
X34735Y109120D02*
D03*
X37275D02*
D03*
X34735Y106580D02*
D03*
X37275D02*
D03*
X34735Y104040D02*
D03*
X37275D02*
D03*
X34735Y101500D02*
D03*
X74960Y107380D02*
D03*
X77500Y92140D02*
D03*
Y79440D02*
D03*
X84960Y55960D02*
D03*
X87500Y40720D02*
D03*
X84960Y25480D02*
D03*
X17540Y12620D02*
D03*
Y25320D02*
D03*
Y38020D02*
D03*
X15000Y53260D02*
D03*
Y66780D02*
D03*
X17540Y71860D02*
D03*
X15000Y87100D02*
D03*
X84960Y107380D02*
D03*
X87500Y92140D02*
D03*
Y79440D02*
D03*
X74960Y55960D02*
D03*
X77500Y40720D02*
D03*
X74960Y25480D02*
D03*
X7540Y12620D02*
D03*
X7540Y25320D02*
D03*
X7540Y38020D02*
D03*
X5000Y53260D02*
D03*
Y66780D02*
D03*
X7540Y71860D02*
D03*
X5000Y87100D02*
D03*
X84960Y38180D02*
D03*
X1538Y80845D02*
D03*
Y75845D02*
D03*
X17540Y112500D02*
D03*
X15000Y109960D02*
D03*
X17540D02*
D03*
X15000Y107420D02*
D03*
X17540D02*
D03*
X15000Y104880D02*
D03*
X17540D02*
D03*
X15000Y102340D02*
D03*
X17540Y102340D02*
D03*
X15000Y99800D02*
D03*
X17540Y99800D02*
D03*
X15000Y97260D02*
D03*
X17540D02*
D03*
X15000Y94720D02*
D03*
X17540D02*
D03*
X15000Y92180D02*
D03*
X17540D02*
D03*
X15000Y89640D02*
D03*
X17540D02*
D03*
X17540Y87100D02*
D03*
X15000Y84560D02*
D03*
X17540D02*
D03*
X15000Y82020D02*
D03*
X17540D02*
D03*
X15000Y79480D02*
D03*
X17540D02*
D03*
X15000Y76940D02*
D03*
X17540Y76940D02*
D03*
X15000Y74400D02*
D03*
X17540D02*
D03*
X15000Y71860D02*
D03*
X17540Y69320D02*
D03*
X17540Y66780D02*
D03*
X15000Y64240D02*
D03*
X17540D02*
D03*
X7540Y112500D02*
D03*
X5000Y109960D02*
D03*
X7540D02*
D03*
X5000Y107420D02*
D03*
X7540Y107420D02*
D03*
X5000Y104880D02*
D03*
X7540D02*
D03*
X5000Y102340D02*
D03*
X7540D02*
D03*
X5000Y99800D02*
D03*
X7540D02*
D03*
X5000Y97260D02*
D03*
X7540D02*
D03*
X5000Y94720D02*
D03*
X7540Y94720D02*
D03*
X5000Y92180D02*
D03*
X7540D02*
D03*
X5000Y89640D02*
D03*
X7540D02*
D03*
Y87100D02*
D03*
X5000Y84560D02*
D03*
X7540Y84560D02*
D03*
X5000Y82020D02*
D03*
X7540Y82020D02*
D03*
X5000Y79480D02*
D03*
X7540D02*
D03*
X5000Y76940D02*
D03*
X7540D02*
D03*
X5000Y74400D02*
D03*
X7540D02*
D03*
X5000Y71860D02*
D03*
X7540Y69320D02*
D03*
Y66780D02*
D03*
X5000Y64240D02*
D03*
X7540D02*
D03*
X17540Y55800D02*
D03*
Y53260D02*
D03*
X15000Y50720D02*
D03*
X17540D02*
D03*
X15000Y48180D02*
D03*
X17540D02*
D03*
X15000Y45640D02*
D03*
X17540Y45640D02*
D03*
X15000Y43100D02*
D03*
X17540D02*
D03*
X15000Y40560D02*
D03*
X17540Y40560D02*
D03*
X15000Y38020D02*
D03*
Y35480D02*
D03*
X17540Y35480D02*
D03*
X15000Y32940D02*
D03*
X17540Y32940D02*
D03*
X15000Y30400D02*
D03*
X17540D02*
D03*
X15000Y27860D02*
D03*
X17540Y27860D02*
D03*
X15000Y22780D02*
D03*
X17540D02*
D03*
X15000Y20240D02*
D03*
X17540D02*
D03*
X15000Y17700D02*
D03*
X17540Y17700D02*
D03*
X15000Y15160D02*
D03*
X17540D02*
D03*
X15000Y12620D02*
D03*
Y10080D02*
D03*
X17540Y10080D02*
D03*
X15000Y7540D02*
D03*
X17540D02*
D03*
X7540Y55800D02*
D03*
Y53260D02*
D03*
X5000Y50720D02*
D03*
X7540Y50720D02*
D03*
X5000Y48180D02*
D03*
X7540D02*
D03*
X5000Y45640D02*
D03*
X7540D02*
D03*
X5000Y43100D02*
D03*
X7540D02*
D03*
X5000Y40560D02*
D03*
X7540D02*
D03*
X5000Y38020D02*
D03*
Y35480D02*
D03*
X7540D02*
D03*
X5000Y32940D02*
D03*
X7540D02*
D03*
X5000Y30400D02*
D03*
X7540D02*
D03*
X5000Y27860D02*
D03*
X7540Y27860D02*
D03*
X5000Y22780D02*
D03*
X7540D02*
D03*
X5000Y20240D02*
D03*
X7540D02*
D03*
X5000Y17700D02*
D03*
X7540D02*
D03*
X5000Y15160D02*
D03*
X7540Y15160D02*
D03*
X5000Y12620D02*
D03*
Y10080D02*
D03*
X7540D02*
D03*
X5000Y7540D02*
D03*
X7540D02*
D03*
X5000Y25320D02*
D03*
X15000D02*
D03*
X5000Y69320D02*
D03*
X15000D02*
D03*
X74960Y64200D02*
D03*
X77500Y66740D02*
D03*
X74960D02*
D03*
X77500Y69280D02*
D03*
X74960D02*
D03*
X77500Y71820D02*
D03*
X74960D02*
D03*
X77500Y74360D02*
D03*
X74960D02*
D03*
X77500Y76900D02*
D03*
X74960Y79440D02*
D03*
X77500Y81980D02*
D03*
X74960D02*
D03*
X77500Y84520D02*
D03*
X74960D02*
D03*
X77500Y87060D02*
D03*
X74960D02*
D03*
X77500Y89600D02*
D03*
X74960Y92140D02*
D03*
X77500Y94680D02*
D03*
X74960D02*
D03*
X77500Y97220D02*
D03*
X74960D02*
D03*
X77500Y99760D02*
D03*
X74960D02*
D03*
X77500Y102300D02*
D03*
X74960D02*
D03*
X77500Y104840D02*
D03*
X74960D02*
D03*
X77500Y107380D02*
D03*
Y109920D02*
D03*
X74960D02*
D03*
X77500Y112460D02*
D03*
X74960D02*
D03*
Y76900D02*
D03*
Y89600D02*
D03*
X84960Y64200D02*
D03*
X87500Y66740D02*
D03*
X84960D02*
D03*
X87500Y69280D02*
D03*
X84960D02*
D03*
X87500Y71820D02*
D03*
X84960D02*
D03*
X87500Y74360D02*
D03*
X84960D02*
D03*
X87500Y76900D02*
D03*
X84960Y79440D02*
D03*
X87500Y81980D02*
D03*
X84960D02*
D03*
X87500Y84520D02*
D03*
X84960D02*
D03*
X87500Y87060D02*
D03*
X84960D02*
D03*
X87500Y89600D02*
D03*
X84960Y92140D02*
D03*
X87500Y94680D02*
D03*
X84960D02*
D03*
X87500Y97220D02*
D03*
X84960D02*
D03*
X87500Y99760D02*
D03*
X84960D02*
D03*
X87500Y102300D02*
D03*
X84960D02*
D03*
X87500Y104840D02*
D03*
X84960D02*
D03*
X87500Y107380D02*
D03*
Y109920D02*
D03*
X84960D02*
D03*
X87500Y112460D02*
D03*
X84960D02*
D03*
Y76900D02*
D03*
Y89600D02*
D03*
X74975Y38175D02*
D03*
X74960Y7700D02*
D03*
X77500Y10240D02*
D03*
X74960D02*
D03*
X77500Y12780D02*
D03*
X74960D02*
D03*
X77500Y15320D02*
D03*
X74960D02*
D03*
X77500Y17860D02*
D03*
X74960D02*
D03*
X77500Y20400D02*
D03*
X74960D02*
D03*
X77500Y22940D02*
D03*
X74960D02*
D03*
X77500Y28020D02*
D03*
X74960D02*
D03*
X77500Y30560D02*
D03*
X74960D02*
D03*
X77500Y33100D02*
D03*
X74960D02*
D03*
X77500Y35640D02*
D03*
X74960D02*
D03*
X77500Y38180D02*
D03*
X74960Y40720D02*
D03*
X77500Y43260D02*
D03*
X74960D02*
D03*
X77500Y45800D02*
D03*
X74960D02*
D03*
X77500Y48340D02*
D03*
X74960D02*
D03*
X77500Y50880D02*
D03*
X74960D02*
D03*
X77500Y53420D02*
D03*
X74960D02*
D03*
X77500Y25480D02*
D03*
Y55960D02*
D03*
X84960Y7700D02*
D03*
X87500Y10240D02*
D03*
X84960D02*
D03*
X87500Y12780D02*
D03*
X84960Y12780D02*
D03*
X87500Y15320D02*
D03*
X84960D02*
D03*
X87500Y17860D02*
D03*
X84960D02*
D03*
X87500Y20400D02*
D03*
X84960D02*
D03*
X87500Y22940D02*
D03*
X84960D02*
D03*
X87500Y28020D02*
D03*
X84960D02*
D03*
X87500Y30560D02*
D03*
X84960D02*
D03*
X87500Y33100D02*
D03*
X84960D02*
D03*
X87500Y35640D02*
D03*
X84960Y35640D02*
D03*
X87500Y38180D02*
D03*
X84960Y40720D02*
D03*
X87500Y43260D02*
D03*
X84960D02*
D03*
X87500Y45800D02*
D03*
X84960D02*
D03*
X87500Y48340D02*
D03*
X84960Y48340D02*
D03*
X87500Y50880D02*
D03*
X84960D02*
D03*
X87500Y53420D02*
D03*
X84960D02*
D03*
X87500Y25480D02*
D03*
Y55960D02*
D03*
X67655Y15140D02*
D03*
Y12600D02*
D03*
X65115Y15140D02*
D03*
X65115Y12600D02*
D03*
X62575Y15140D02*
D03*
Y12600D02*
D03*
X60035Y15140D02*
D03*
Y12600D02*
D03*
X57495Y15140D02*
D03*
Y12600D02*
D03*
X54955Y15140D02*
D03*
X54955Y12600D02*
D03*
X52415Y15140D02*
D03*
X52415Y12600D02*
D03*
X49875Y15140D02*
D03*
Y12600D02*
D03*
X47335Y15140D02*
D03*
Y12600D02*
D03*
X44795Y15140D02*
D03*
Y12600D02*
D03*
X42255Y15140D02*
D03*
X42255Y12600D02*
D03*
X39715Y15140D02*
D03*
Y12600D02*
D03*
X37175Y15140D02*
D03*
Y12600D02*
D03*
X34635Y15140D02*
D03*
Y12600D02*
D03*
X32095Y15140D02*
D03*
Y12600D02*
D03*
X29555Y15140D02*
D03*
X29555Y12600D02*
D03*
X27015Y15140D02*
D03*
Y12600D02*
D03*
X24475Y15140D02*
D03*
X27500Y22500D02*
D03*
X30000D02*
D03*
X27500Y20000D02*
D03*
X30000D02*
D03*
X27500Y17500D02*
D03*
X30000Y17500D02*
D03*
X32500Y17500D02*
D03*
X32500Y20000D02*
D03*
X60000Y17500D02*
D03*
X62500Y17500D02*
D03*
X65000Y17500D02*
D03*
X60000Y20000D02*
D03*
X62500D02*
D03*
X65000D02*
D03*
X60025Y22500D02*
D03*
X62500Y22500D02*
D03*
X65000Y22500D02*
D03*
X27500Y5000D02*
D03*
X30000Y5000D02*
D03*
Y2500D02*
D03*
X27500Y2500D02*
D03*
X90600Y10000D02*
D03*
X1825Y10025D02*
D03*
X90900Y112500D02*
D03*
X1650D02*
D03*
X67475Y107500D02*
D03*
X69975Y107500D02*
D03*
Y110000D02*
D03*
X67475Y110000D02*
D03*
X22500Y107500D02*
D03*
X25000Y107500D02*
D03*
Y110000D02*
D03*
X22500Y110000D02*
D03*
X62500Y2500D02*
D03*
X65000Y2500D02*
D03*
Y5000D02*
D03*
X62500Y5000D02*
D03*
D24*
X37625Y35210D02*
D03*
X37599Y32402D02*
D03*
X35000Y88600D02*
D03*
X82739Y2170D02*
D03*
X79491D02*
D03*
X76243D02*
D03*
X72995D02*
D03*
X69747D02*
D03*
X8954Y4405D02*
D03*
X12202D02*
D03*
X15450D02*
D03*
X18698D02*
D03*
X21946D02*
D03*
X71024Y120983D02*
D03*
X74272D02*
D03*
X77520D02*
D03*
X80768D02*
D03*
X84016D02*
D03*
X9203Y120933D02*
D03*
X12451D02*
D03*
X15699Y120933D02*
D03*
X18947Y120933D02*
D03*
X22195D02*
D03*
X37499Y17702D02*
D03*
Y20402D02*
D03*
X31700Y101400D02*
D03*
X63900Y101625D02*
D03*
X58275D02*
D03*
X37275Y101500D02*
D03*
X15000Y112500D02*
D03*
X5000D02*
D03*
X15000Y55800D02*
D03*
X5000D02*
D03*
X77500Y64200D02*
D03*
X87500D02*
D03*
X77500Y7700D02*
D03*
X87500D02*
D03*
X24475Y12600D02*
D03*
D25*
X90000Y120000D02*
D03*
Y60000D02*
D03*
Y2500D02*
D03*
X2500D02*
D03*
Y60000D02*
D03*
Y120000D02*
D03*
D26*
X39550Y55550D02*
D03*
X43225Y52125D02*
D03*
X49500Y51697D02*
D03*
X53500Y55500D02*
D03*
X54500Y63400D02*
D03*
X50850Y66750D02*
D03*
X41725Y66600D02*
D03*
X38800Y94600D02*
D03*
X44525Y76975D02*
D03*
X63350Y64225D02*
D03*
X43850Y78050D02*
D03*
X43575Y79425D02*
D03*
X65450Y52125D02*
D03*
X65425Y62825D02*
D03*
X48900Y93650D02*
D03*
X20275Y78200D02*
D03*
X46250Y85875D02*
D03*
X35000D02*
D03*
X31500Y60025D02*
D03*
X37025Y62400D02*
D03*
X36975Y60125D02*
D03*
X46475Y50662D02*
D03*
X56075Y59800D02*
D03*
X57050Y58200D02*
D03*
X46275Y69675D02*
D03*
X67493Y53388D02*
D03*
X45250Y52400D02*
D03*
X32450Y31075D02*
D03*
X32600Y23650D02*
D03*
X58400Y28625D02*
D03*
Y25900D02*
D03*
X44400Y41100D02*
D03*
X28600Y62600D02*
D03*
X27750Y65800D02*
D03*
X21275Y68125D02*
D03*
X21407Y60550D02*
D03*
X1493Y88600D02*
D03*
X1450Y107450D02*
D03*
X1575Y67450D02*
D03*
X44450Y38175D02*
D03*
X45275Y108450D02*
D03*
Y111775D02*
D03*
X46877Y110098D02*
D03*
X50375Y108575D02*
D03*
X50000Y111500D02*
D03*
X49725Y116375D02*
D03*
X47700Y4225D02*
D03*
X46700Y5125D02*
D03*
X45700Y4275D02*
D03*
X44675Y5125D02*
D03*
X48700Y5125D02*
D03*
X49675Y4175D02*
D03*
X50675Y5125D02*
D03*
X51700Y4125D02*
D03*
X52700Y5150D02*
D03*
X53425Y4100D02*
D03*
X43675Y4275D02*
D03*
X42675Y5125D02*
D03*
X41700Y4275D02*
D03*
X40700Y5125D02*
D03*
X39700Y4275D02*
D03*
X38725Y5125D02*
D03*
X37725Y4200D02*
D03*
X36725Y5125D02*
D03*
M02*
