METRIC,LZ
M48
T1F00S00C0.500
T2F00S00C0.700
T3F00S00C0.950
T4F00S00C1.000
T5F00S00C1.500
T6F00S00C3.500
%
T01
X00326Y002365
X0036725Y0005125
X0037725Y00042
X0038725Y0005125
X00397Y0004275
X00407Y0005125
X00417Y0004275
X0042675Y0005125
X0043675Y0004275
X0044675Y0005125
X00457Y0004275
X00467Y0005125
X00477Y0004225
X00487Y0005125
X0049675Y0004175
X0050675Y0005125
X00517Y0004125
X0053425Y00041
X00527Y000515
X00584Y00259
Y0028625
X004445Y0038175
X00444Y00411
X0046475Y0050662
X004525Y00524
X0043225Y0052125
X00495Y0051697
X00535Y00555
X005705Y00582
X0056075Y00598
X00545Y00634
X005085Y006675
X0041725Y00666
X0037025Y00624
X0036975Y0060125
X003955Y005555
X006545Y0052125
X0067493Y0053388
X0065425Y0062825
X006335Y0064225
X00315Y0060025
X00286Y00626
X002775Y00658
X0021275Y0068125
X0021407Y006055
X0001575Y006745
X003245Y0031075
X0020275Y00782
X0001493Y00886
X000145Y010745
X0045275Y010845
X0050375Y0108575
X00489Y009365
X004625Y0085875
X0043575Y0079425
X004385Y007805
X0044525Y0076975
X0046275Y0069675
X0035Y0085875
X00388Y00946
X0046877Y0110098
X0045275Y0111775
X005Y01115
X0049725Y0116375
T02
X00016Y009635
Y009945
T03
X0037499Y0017702
X0040039
X0042579
X0045119
X0047659Y0017702
X0050199Y0017702
X0052739
X0055279
Y0020402
X0052739Y0020402
X0050199
X0047659
X0045119Y0020402
X0042579Y0020402
X0040039
X0037499
X0037599Y0032402
X0040139Y0032402
X0042679Y0032402
X0045219
X0047759
X0050299Y0032402
X0052839
X0055379Y0032402
X0055405Y003521
X0052865
X0050325
X0047785Y003521
X0045245Y003521
X0042705
X0040165
X0037625
T04
X0008954Y0001865
Y0004405
X0012202
Y0001865
X001545
X001545Y0004405
X0018698
Y0001865
X0021946
Y0004405
X00275Y0005
X003Y0005
Y00025
X00275Y00025
X0027015Y00126
Y001514
X0029555
X0032095
Y00126
X0029555
X0024475
Y001514
X00275Y00175
X003Y00175
X003Y002
X00325Y002
X00325Y00175
X00275Y002
X00275Y00225
X003
X001754Y002278
Y002532
Y002786
X0015Y002786
Y002532
Y002278
Y002024
X001754
Y00177
X0015Y00177
Y001516
X001754
Y001262
X0015Y001262
Y001008
Y000754
X001754
Y001008
X000754Y001008
Y001262
Y001516
X0005Y001516
Y00177
X000754
X000754Y002024
Y002278
X0005
Y002024
Y002532
X000754Y002532
Y002786
X0005Y002786
Y001262
Y001008
Y000754
X000754
X0034635Y00126
X0037175
X0039715
X0042255
X0044795
X0047335
X0049875
Y001514
X0052415
X0054955
X0057495
X0060035
X006Y00175
X00625Y00175
X0062575Y001514
X0065115
X0065Y00175
X0065Y002
X00625
X006
X0060025Y00225
X00625Y00225
X0065Y00225
X0065115Y00126
X0062575
X0060035
X0057495
X0054955
X0052415
X0047335Y001514
X0044795
X0042255
X0039715
X0037175
X0034635
X0067655
Y00126
X0069747Y000471
Y000217
X0072995
Y000471
X0065Y0005
X00625Y0005
Y00025
X0065Y00025
X0076243Y000217
Y000471
X0079491
Y000217
X0082739
Y000471
X008496Y00077
X00875
Y001024
X008496
Y001278
Y001532
X00875
Y001278
Y001786
X008496
Y00204
X00875
Y002294
Y002548
X008496Y002548
Y002294
Y002802
X00875
X00775
X007496
Y002548
Y002294
Y00204
Y001786
Y001532
Y001278
Y001024
Y00077
X00775
Y001024
Y001278
Y001532
Y001786
Y00204
Y002294
Y002548
Y003056
X007496
Y00331
X00775
Y003564
X007496
X0074975Y0038175
X00775Y003818
Y004072
X007496
Y004326
X00775
Y00458
X007496
Y004834
X00775
Y005088
X007496
Y005342
Y005596
X00775
Y005342
X008496
Y005596
X00875
Y005342
Y005088
X008496
Y004834
Y00458
Y004326
Y004072
X00875
Y004326
Y00458
Y004834
Y003818
Y003564
Y00331
Y003056
X008496
Y00331
Y003564
Y003818
Y00642
X00875
Y006674
X008496
Y006928
X00875
X00775
Y006674
Y00642
X007496
Y006674
Y006928
X001754Y006932
X0015
Y006678
X001754
X001754Y006424
X0015
X000754
Y006678
X0005
Y006424
Y006932
X000754
Y00558
X0005
Y005326
X000754
Y005072
X000754Y004818
X0005
Y005072
Y004564
X000754
Y00431
X0005
Y004056
X000754
X000754Y003802
Y003548
X0005
Y003802
Y003294
X000754
Y00304
X0005
X0015
Y003294
Y003548
Y003802
X001754
Y003548
Y003294
Y00304
Y004056
Y00431
Y004564
Y004818
Y005072
Y005326
X0015
Y00558
X001754
X0015Y005072
Y004818
Y004564
Y00431
Y004056
Y007186
X001754
Y00744
X0015
Y007694
Y007948
Y008202
Y008456
X001754
Y008202
X001754Y007948
Y007694
X000754Y007694
Y007948
Y008202
Y008456
Y00871
X0005
Y008964
Y009218
X000754
Y009472
Y009726
Y00998
Y010234
Y010488
Y010742
X0005Y010742
Y010488
Y010234
Y00998
Y009726
Y009472
X000754Y008964
X0015
X001754
X001754Y009218
X001754Y009472
Y009726
X0015
Y00998
Y010234
Y010488
Y010742
X001754
Y010488
X001754Y010234
Y00998
X0015Y009472
Y009218
X0015Y00871
X001754
X0005Y008456
Y008202
Y007948
Y007694
Y00744
X000754
Y007186
X0005
X0001538Y0075845
Y0080845
X00225Y01075
X0025Y01075
X002916Y010648
Y010394
Y01014
X00317
Y010394
Y010648
Y010902
X002916
X0034735Y010658
X0037275
X0037275Y010404
X0034735
Y01015
X0037275
X003754Y009114
X004008
X004262
X004516
X00477
X005024
X005278
X005532
X005786
Y00886
X005532
X005278
X005024
X00477
X004516
X004262
X004008
X003754
X0035
Y009114
X0055735Y0101625
Y0104165
Y0106705
X0058275
X0058275Y0104165
Y0101625
X006136
X00639
Y0104165
X006136
Y0106705
X00639
X0067475Y01075
X0069975Y01075
X007496Y010738
Y010484
Y01023
Y009976
Y009722
Y009468
Y009214
X00775
Y00896
Y008706
Y008452
Y008198
Y007944
Y00769
Y007436
Y007182
X007496
Y007436
Y00769
Y007944
Y008198
Y008452
Y008706
Y00896
X00775Y009468
Y009722
Y009976
Y01023
Y010484
Y010738
X008496
Y010484
Y01023
Y009976
Y009722
Y009468
Y009214
X00875
Y00896
Y008706
Y008452
Y008198
Y007944
Y00769
Y007436
Y007182
X008496
Y007436
Y00769
Y007944
Y008198
Y008452
Y008706
Y00896
X00875Y009468
Y009722
Y009976
Y01023
Y010484
Y010738
Y010992
X008496
Y011246
X00875
X0084016Y0115903
X0084016Y0118443
Y0120983
X0080768
Y0118443
Y0115903
X007752
X007752Y0118443
X007752Y0120983
X0074272
Y0118443
X0074272Y0115903
X007496Y011246
Y010992
X00775
Y011246
X0071024Y0115903
Y0118443
Y0120983
X00639Y0119405
Y0116865
Y0114325
Y0111785
Y0109245
X006136
Y0111785
Y0114325
Y0116865
Y0119405
X0058275Y0119405
Y0116865
X0055735Y0116865
Y0119405
X0055735Y0114325
X0058275Y0114325
Y0111785
X0055735
Y0109245
X0058275
X0067475Y011
X0069975Y011
X0037275Y010912
X0034735
X0034735Y011166
Y01142
X0037275
Y011166
Y011674
X0037275Y011928
X0034735
Y011674
X00317Y011664
Y01141
Y011156
X002916
Y01141
Y011664
Y011918
X00317
X0022195Y0118393
Y0115853
X0018947Y0115853
X0018947Y0118393
X0018947Y0120933
X0022195
X0015699Y0120933
X0015699Y0118393
Y0115853
X0012451Y0115853
Y0118393
Y0120933
X0009203
X0009203Y0118393
X0009203Y0115853
X000754Y01125
X0005
Y010996
X000754
X0015
Y01125
X001754
X001754Y010996
X00225Y011
X0025Y011
T05
X0001825Y0010025
X00906Y001
X00909Y01125
X000165
T06
X00025Y00025
X009
Y006
X00025
X009Y012
X00025
M30
